{
.appVersion = "3424";
.formatVersion = 3;
classes = (
{
code = "a.ss01 aacute.ss01 abreve.ss01 abreveacute.ss01 abrevedotbelow.ss01 abrevegrave.ss01 abrevehookabove.ss01 abrevetilde.ss01 acircumflex.ss01 acircumflexacute.ss01 acircumflexdotbelow.ss01 acircumflexgrave.ss01 acircumflexhookabove.ss01 acircumflextilde.ss01 adotbelow.ss01 agrave.ss01 ahookabove.ss01 atilde.ss01 
b.ss01 
c.ss01 
d.ss01 dcroat.ss01 
e.ss01 eacute.ss01 ecircumflex.ss01 ecircumflexacute.ss01 ecircumflexdotbelow.ss01 ecircumflexgrave.ss01 ecircumflexhookabove.ss01 ecircumflextilde.ss01 edotbelow.ss01 egrave.ss01 ehookabove.ss01 etilde.ss01
f.ss01 
g.ss01 
h.ss01 
i.ss01 dotlessi.ss01 iacute.ss01 idotbelow.ss01 igrave.ss01 ihookabove.ss01 itilde.ss01 j.ss01 
k.ss01 
l.ss01 
m.ss01 n.ss01 p.ss01 q.ss01
o.ss01 oacute.ss01 ocircumflex.ss01 ocircumflexacute.ss01 ocircumflexdotbelow.ss01 ocircumflexgrave.ss01 ocircumflexhookabove.ss01 ocircumflextilde.ss01 odotbelow.ss01 ograve.ss01 ohookabove.ss01 ohorn.ss01 ohornacute.ss01 ohorndotbelow.ss01 ohorngrave.ss01 ohornhookabove.ss01 ohorntilde.ss01 otilde.ss01 

r.begin r.ss02
s.begin s.ss02
t.ss02 
u.ss01 uacute.ss01 udotbelow.ss01 ugrave.ss01 uhookabove.ss01 uhorn.ss01 uhornacute.ss01 uhorndotbelow.ss01 uhorngrave.ss01 uhornhookabove.ss01 uhorntilde.ss01 utilde.ss01
v.ss01 w.ss01
x.ss01 
y.ss01 yacute.ss01 ydotbelow.ss01 ygrave.ss01 yhookabove.ss01 ytilde.ss01 
z.ss01
c_r.liga.ss01 t_r.liga.ss01 

#Ligature

glyphs = (
{
glyphname = A;
kernLeft = A;
kernRight = A;
lastChange = "2025-09-24 09:57:13 +0000";
layers = (
{
anchors = (
{
name = bottom;
pos = (431,-15);
},
{
name = ogonek;
pos = (1070,20);
},
{
name = top;
pos = (862,921);
}
);
background = {
shapes = (
{
closed = 1;
nodes = (
(1016,221,o),
(1005,232,o),
(992,232,cs),
(986,232,o),
(980,229,o),
(975,225,cs),
(955,205,ls),
(938,188,o),
(851,99,o),
(795,52,cs),
(778,38,o),
(766,30,o),
(759,30,cs),
(749,30,o),
(745,44,o),
(745,72,cs),
(745,134,o),
(778,254,o),
(798,323,c),
(810,322,o),
(833,320,o),
(836,320,cs),
(851,320,o),
(860,332,o),
(860,344,cs),
(860,355,o),
(853,367,o),
(838,369,cs),
(811,371,l),
(837,463,o),
(904,696,o),
(904,725,cs),
(904,751,o),
(894,776,o),
(864,776,cs),
(815,776,o),
(711,690,o),
(555,553,cs),
(505,509,o),
(441,449,o),
(379,383,c),
(293,377,o),
(199,360,o),
(199,282,cs),
(199,265,o),
(208,246,o),
(226,246,cs),
(239,246,o),
(251,255,o),
(251,270,cs),
(251,276,o),
(248,279,o),
(248,284,cs),
(248,315,o),
(291,319,o),
(330,328,c),
(225,206,o),
(136,65,o),
(136,-64,cs),
(136,-79,o),
(148,-88,o),
(160,-88,cs),
(173,-88,o),
(185,-79,o),
(185,-64,cs),
(185,65,o),
(290,212,o),
(402,336,c),
(422,337,o),
(441,337,o),
(456,337,cs),
(490,337,ls),
(566,337,o),
(655,333,o),
(748,327,c),
(728,254,o),
(696,137,o),
(696,72,cs),
(696,29,o),
(709,-20,o),
(756,-20,cs),
(825,-20,o),
(949,131,o),
(989,171,cs),
(1009,190,ls),
(1014,195,o),
(1016,201,o),
(1016,207,cs)
);
},
{
closed = 1;
nodes = (
(855,703,o),
(785,461,o),
(761,375,c),
(663,382,o),
(569,386,o),
(490,386,cs),
(450,386,l),
(500,437,o),
(547,482,o),
(586,516,cs),
(693,609,o),
(810,708,o),
(855,725,c)
);
}
);
};
layerId = m01;
shapes = (
{
closed = 1;
nodes = (
(820,-47,o),
(878,-6,o),
(934,52,cs),
(1007,128,o),
(1084,243,o),
(1197,451,cs),
(1228,508,o),
(1140,556,o),
(1109,499,cs),
(998,295,o),
(922,184,o),
(862,122,cs),
(817,75,o),
(772,53,o),
(751,53,cs),
(732,53,o),
(705,69,o),
(705,148,cs),
(705,186,o),
(714,245,o),
(736,339,c),
(788,330,ls),
(852,317,o),
(872,417,o),
(808,430,cs),
(761,438,l),
(786,536,o),
(820,660,o),
(866,821,cs),
(880,870,o),
(821,908,o),
(782,872,cs),
(700,796,o),
(554,637,o),
(398,452,c),
(279,445,o),
(166,428,o),
(75,401,cs),
(15,383,o),
(39,286,o),
(103,305,cs),
(160,322,o),
(231,334,o),
(307,342,c),
(218,234,o),
(131,123,o),
(51,14,cs),
(13,-38,o),
(92,-99,o),
(131,-46,cs),
(228,86,o),
(339,225,o),
(446,352,c),
(510,354,o),
(572,353,o),
(633,349,c),
(612,259,o),
(603,197,o),
(603,148,cs),
(603,48,o),
(648,-47,o),
(751,-47,cs)
);
},
{
closed = 1;
nodes = (
(618,453,o),
(577,455,o),
(534,456,c),
(598,530,o),
(660,599,o),
(713,656,c),
(657,450,l),
(657,450,l)
);
}
);
userData = {
com.hugojourdan.ColorFlow = {
"0" = 0;
"1" = 0;
"10" = 0;
"11" = 0;
"2" = 0;
"3" = 0;
"4" = 0;
"5" = 0;
"6" = 0;
"7" = 0;
"8" = 0;
"9" = 0;
};
};
width = 983;
}
);
metricLeft = A.ss03;
note = A;
unicode = 65;
},
{
glyphname = AE;
kernLeft = A;
lastChange = "2025-09-24 09:57:13 +0000";
layers = (
{
anchors = (
{
name = bottom;
pos = (432,-15);
},
{
name = ogonek;
pos = (1070,20);
},
{
name = top;
pos = (863,921);
}
);
layerId = m01;
shapes = (
{
closed = 1;
nodes = (
(228,86,o),
(339,225,o),
(447,354,c),
(673,357,l),
(640,176,o),
(627,74,o),
(627,-1,cs),
(627,-54,o),
(693,-65,o),
(719,-32,c),
(797,-29,o),
(975,-30,o),
(1091,-29,cs),
(1157,-28,o),
(1159,74,o),
(1091,73,cs),
(982,72,o),
(822,71,o),
(733,68,c),
(739,134,o),
(753,225,o),
(777,358,c),
(1142,361,ls),
(1208,362,o),
(1208,464,o),
(1140,463,cs),
(796,460,l),
(858,782,l),
(1191,781,ls),
(1257,781,o),
(1258,883,o),
(1191,883,cs),
(836,882,l),
(819,889,o),
(798,887,o),
(782,872,cs),
(700,796,o),
(555,638,o),
(399,454,c),
(301,451,o),
(216,447,o),
(164,442,cs),
(100,435,o),
(107,335,o),
(174,342,cs),
(208,346,o),
(256,348,o),
(313,350,c),
(223,240,o),
(132,124,o),
(51,14,cs),
(13,-38,o),
(92,-99,o),
(131,-46,cs)
);
},
{
closed = 1;
nodes = (
(608,541,o),
(676,617,o),
(734,678,c),
(691,459,l),
(535,456,l),
(535,456,l)
);
}
);
userData = {
com.hugojourdan.ColorFlow = {
"0" = 0;
"1" = 0;
"10" = 0;
"11" = 0;
"2" = 0;
"3" = 0;
"4" = 0;
"5" = 0;
"6" = 0;
"7" = 0;
"8" = 0;
"9" = 0;
};
};
width = 1171;
}
);
metricLeft = A.ss03;
metricRight = "=E.ss03-60";
unicode = 198;
},
{
glyphname = B;
kernLeft = B;
kernRight = B;
lastChange = "2025-09-24 09:57:13 +0000";
layers = (
{
background = {
shapes = (
{
closed = 1;
nodes = (
(611,-21,o),
(648,-10,o),
(682,8,cs),
(718,27,o),
(752,56,o),
(774,81,cs),
(799,109,o),
(819,143,o),
(831,177,cs),
(844,214,o),
(847,248,o),
(841,279,cs),
(834,314,o),
(818,336,o),
(800,352,cs),
(762,386,o),
(717,390,o),
(645,372,c),
(680,389,o),
(711,411,o),
(732,434,cs),
(756,460,o),
(773,491,o),
(783,532,cs),
(800,602,o),
(784,657,o),
(735,702,cs),
(685,748,o),
(611,775,o),
(525,786,cs),
(422,799,o),
(297,789,o),
(195,754,cs),
(99,721,o),
(31,669,o),
(-6,596,cs),
(-33,543,o),
(-39,488,o),
(-20,446,cs),
(0,402,o),
(47,368,o),
(98,353,cs),
(115,348,o),
(137,344,o),
(156,342,cs),
(165,341,o),
(185,339,o),
(201,339,cs),
(208,339,o),
(208,339,o),
(213,341,cs),
(227,346,o),
(237,359,o),
(237,375,cs),
(237,383,o),
(234,391,o),
(233,401,cs),
(232,408,o),
(228,411,o),
(222,411,cs),
(133,411,o),
(133,411,o),
(110,424,cs),
(44,461,o),
(32,475,o),
(42,522,cs),
(53,573,o),
(77,612,o),
(129,646,cs),
(209,698,o),
(346,731,o),
(491,716,cs),
(531,712,o),
(570,704,o),
(596,696,cs),
(625,687,o),
(646,676,o),
(660,666,cs),
(675,655,o),
(687,643,o),
(696,630,cs),
(705,617,o),
(709,605,o),
(709,586,cs),
(709,577,o),
(708,561,o),
(706,547,c),
(695,502,o),
(668,462,o),
(626,428,cs),
(584,394,o),
(524,363,o),
(439,334,cs),
(424,329,o),
(415,317,o),
(415,302,cs),
(415,281,o),
(436,265,o),
(457,271,cs),
(480,278,ls),
(507,286,o),
(531,293,o),
(552,298,cs),
(565,301,o),
(601,309,o),
(624,313,cs),
(652,318,o),
(676,320,o),
(696,319,cs),
(715,318,o),
(734,314,o),
(748,303,cs),
(761,293,o),
(768,278,o),
(770,260,cs),
(772,241,o),
(768,219,o),
(761,199,cs),
(741,141,o),
(694,96,o),
(651,72,cs),
(601,44,o),
(559,43,o),
(529,65,cs),
(506,82,o),
(497,108,o),
(500,141,cs),
(502,162,o),
(485,181,o),
(462,181,cs),
(443,181,o),
(431,169,o),
(427,147,cs),
(423,125,o),
(428,99,o),
(433,82,cs),
(443,48,o),
(458,26,o),
(483,9,cs),
(508,-8,o),
(538,-16,o),
(567,-18,cs)
);
},
{
closed = 1;
nodes = (
(292,0,o),
(308,13,o),
(312,30,cs),
(441,600,ls),
(447,624,o),
(428,647,o),
(404,647,cs),
(385,647,o),
(370,634,o),
(366,617,cs),
(237,47,ls),
(232,23,o),
(250,0,o),
(274,0,cs)
);
}
);
};
layerId = m01;
shapes = (
{
closed = 1;
nodes = (
(815,-22,o),
(927,95,o),
(927,238,cs),
(927,360,o),
(862,431,o),
(762,457,c),
(829,509,o),
(867,571,o),
(867,649,cs),
(867,795,o),
(742,856,o),
(573,856,cs),
(551,856,l),
(563,918,o),
(464,941,o),
(451,875,cs),
(444,844,l),
(325,821,o),
(208,768,o),
(127,695,cs),
(79,652,o),
(144,577,o),
(193,621,cs),
(246,668,o),
(330,710,o),
(417,734,c),
(379,589,o),
(319,386,o),
(246,168,cs),
(222,98,o),
(159,73,o),
(111,95,cs),
(53,122,o),
(8,31,o),
(69,3,cs),
(182,-49,o),
(303,20,o),
(342,136,cs),
(425,382,o),
(491,606,o),
(528,754,c),
(573,756,ls),
(715,756,o),
(765,705,o),
(765,649,cs),
(765,597,o),
(700,523,o),
(573,468,c),
(476,450,o),
(429,408,o),
(439,371,cs),
(448,335,o),
(515,326,o),
(614,365,c),
(766,387,o),
(827,322,o),
(827,238,cs),
(827,133,o),
(739,78,o),
(631,78,cs),
(575,78,o),
(512,104,o),
(479,137,cs),
(434,183,o),
(362,113,o),
(409,67,cs),
(465,10,o),
(547,-22,o),
(631,-22,cs)
);
}
);
userData = {
com.hugojourdan.ColorFlow = {
"0" = 0;
"1" = 0;
"10" = 0;
"11" = 0;
"2" = 0;
"3" = 0;
"4" = 0;
"5" = 0;
"6" = 0;
"7" = 0;
"8" = 0;
"9" = 0;
};
};
width = 937;
}
);
metricLeft = B.ss03;
metricRight = "=B.ss03+20";
note = B;
unicode = 66;
},
{
glyphname = C;
kernLeft = C;
kernRight = C;
lastChange = "2025-09-24 09:57:13 +0000";
layers = (
{
anchors = (
{
name = bottom;
pos = (366,0);
},
{
name = top;
pos = (520,890);
}
);
background = {
shapes = (
{
closed = 1;
nodes = (
(335,-14,l),
(369,-11,o),
(405,-2,o),
(441,12,cs),
(482,28,o),
(522,52,o),
(554,74,cs),
(583,94,o),
(622,123,o),
(648,144,cs),
(668,160,o),
(691,180,o),
(717,203,cs),
(724,209,o),
(728,217,o),
(728,226,cs),
(728,244,o),
(714,258,o),
(697,258,cs),
(689,258,o),
(682,255,o),
(676,250,cs),
(672,247,o),
(652,230,o),
(651,229,cs),
(631,212,o),
(579,174,o),
(534,145,cs),
(484,113,o),
(436,87,o),
(391,72,cs),
(337,54,o),
(293,53,o),
(254,75,cs),
(229,89,o),
(208,113,o),
(192,145,cs),
(178,173,o),
(169,205,o),
(165,245,cs),
(160,295,o),
(163,354,o),
(178,417,cs),
(192,476,o),
(215,534,o),
(249,584,cs),
(287,640,o),
(333,678,o),
(384,699,cs),
(418,713,o),
(451,719,o),
(479,716,cs),
(506,713,o),
(527,702,o),
(538,680,cs),
(549,658,o),
(548,631,o),
(530,597,cs),
(506,552,o),
(463,517,o),
(394,487,cs),
(381,481,o),
(372,468,o),
(372,452,cs),
(372,432,o),
(388,415,o),
(409,415,cs),
(415,415,o),
(418,416,o),
(423,418,cs),
(514,455,o),
(574,512,o),
(602,589,cs),
(623,646,o),
(619,693,o),
(589,731,cs),
(562,765,o),
(519,786,o),
(471,791,cs),
(408,798,o),
(340,775,o),
(278,726,cs),
(221,681,o),
(169,614,o),
(134,538,cs),
(106,477,o),
(89,409,o),
(84,340,cs),
(79,268,o),
(88,199,o),
(108,142,cs),
(129,82,o),
(163,35,o),
(208,8,cs),
(241,-12,o),
(280,-21,o),
(321,-18,cs),
(330,-17,o),
(332,-17,o),
(333,-16,cs)
);
}
);
};
layerId = m01;
shapes = (
{
closed = 1;
nodes = (
(588,-13,o),
(742,144,o),
(910,457,cs),
(940,513,o),
(853,563,o),
(822,505,cs),
(656,196,o),
(522,87,o),
(387,87,cs),
(273,87,o),
(182,166,o),
(182,347,cs),
(182,586,o),
(346,780,o),
(500,780,cs),
(580,780,o),
(629,711,o),
(533,547,cs),
(500,491,o),
(586,441,o),
(619,497,cs),
(722,672,o),
(700,880,o),
(500,880,cs),
(262,880,o),
(80,614,o),
(80,347,cs),
(80,125,o),
(211,-13,o),
(387,-13,cs)
);
}
);
userData = {
com.hugojourdan.ColorFlow = {
"0" = 0;
"1" = 0;
"10" = 0;
"11" = 0;
"2" = 0;
"3" = 0;
"4" = 0;
"5" = 0;
"6" = 0;
"7" = 0;
"8" = 0;
"9" = 0;
};
};
width = 694;
}
);
metricLeft = C.ss03;
note = C;
unicode = 67;
},
{
glyphname = D;
kernLeft = D;
kernRight = D;
lastChange = "2025-09-24 09:57:13 +0000";
layers = (
{
anchors = (
{
name = top;
pos = (520,890);
}
);
background = {
shapes = (
{
closed = 1;
nodes = (
(799,630,o),
(728,759,o),
(554,759,cs),
(495,759,o),
(438,745,o),
(386,723,c),
(391,738,ls),
(392,741,o),
(393,745,o),
(393,747,cs),
(393,762,o),
(380,771,o),
(367,771,cs),
(358,771,o),
(349,767,o),
(345,755,cs),
(322,688,l),
(123,560,o),
(5,282,o),
(5,61,cs),
(5,1,o),
(33,-24,o),
(60,-24,cs),
(95,-24,o),
(119,-2,o),
(139,49,cs),
(217,239,o),
(295,457,o),
(364,656,c),
(421,689,o),
(485,709,o),
(554,709,cs),
(691,709,o),
(750,614,o),
(750,486,cs),
(750,274,o),
(588,9,o),
(372,9,cs),
(322,9,o),
(269,23,o),
(218,54,cs),
(213,56,o),
(208,58,o),
(205,58,cs),
(191,58,o),
(181,45,o),
(181,32,cs),
(181,24,o),
(184,17,o),
(192,12,cs),
(250,-24,o),
(312,-40,o),
(372,-40,cs),
(629,-40,o),
(799,262,o),
(799,486,cs)
);
},
{
closed = 1;
nodes = (
(230,425,o),
(167,245,o),
(95,69,cs),
(81,37,o),
(71,24,o),
(65,24,cs),
(56,24,o),
(54,45,o),
(54,61,cs),
(54,241,o),
(142,473,o),
(293,606,c)
);
}
);
};
layerId = m01;
shapes = (
{
closed = 1;
nodes = (
(676,-23,o),
(886,195,o),
(886,488,cs),
(886,698,o),
(745,842,o),
(549,842,cs),
(522,842,o),
(495,840,o),
(471,837,c),
(484,900,o),
(385,925,o),
(371,857,cs),
(360,808,l),
(307,787,o),
(260,758,o),
(221,725,cs),
(173,685,o),
(235,607,o),
(285,649,cs),
(300,661,o),
(314,671,o),
(330,681,c),
(286,512,o),
(227,317,o),
(187,208,cs),
(154,118,o),
(127,95,o),
(81,87,cs),
(17,76,o),
(33,-24,o),
(99,-13,cs),
(183,1,o),
(246,71,o),
(283,172,cs),
(331,304,o),
(401,541,o),
(447,731,c),
(478,738,o),
(512,742,o),
(549,742,cs),
(691,742,o),
(784,638,o),
(784,488,cs),
(784,273,o),
(638,77,o),
(440,77,cs),
(400,77,o),
(363,84,o),
(313,95,cs),
(249,109,o),
(227,11,o),
(291,-3,cs),
(342,-14,o),
(388,-23,o),
(440,-23,cs)
);
}
);
userData = {
com.hugojourdan.ColorFlow = {
"0" = 0;
"1" = 0;
"10" = 0;
"11" = 0;
"2" = 0;
"3" = 0;
"4" = 0;
"5" = 0;
"6" = 0;
"7" = 0;
"8" = 0;
"9" = 0;
};
};
width = 876;
},
{
associatedMasterId = m01;
background = {
shapes = (
{
closed = 1;
nodes = (
(909,630,o),
(838,759,o),
(664,759,cs),
(605,759,o),
(548,745,o),
(496,723,c),
(501,738,ls),
(502,741,o),
(503,745,o),
(503,747,cs),
(503,762,o),
(490,771,o),
(477,771,cs),
(468,771,o),
(459,767,o),
(455,755,cs),
(432,688,l),
(233,560,o),
(115,282,o),
(115,61,cs),
(115,1,o),
(143,-24,o),
(170,-24,cs),
(205,-24,o),
(229,-2,o),
(249,49,cs),
(327,239,o),
(405,457,o),
(474,656,c),
(531,689,o),
(595,709,o),
(664,709,cs),
(801,709,o),
(860,614,o),
(860,486,cs),
(860,274,o),
(698,9,o),
(482,9,cs),
(432,9,o),
(379,23,o),
(328,54,cs),
(323,56,o),
(318,58,o),
(315,58,cs),
(301,58,o),
(291,45,o),
(291,32,cs),
(291,24,o),
(294,17,o),
(302,12,cs),
(360,-24,o),
(422,-40,o),
(482,-40,cs),
(739,-40,o),
(909,262,o),
(909,486,cs)
);
},
{
closed = 1;
nodes = (
(340,425,o),
(277,245,o),
(205,69,cs),
(191,37,o),
(181,24,o),
(175,24,cs),
(166,24,o),
(164,45,o),
(164,61,cs),
(164,241,o),
(252,473,o),
(403,606,c)
);
}
);
};
hints = (
{
horizontal = 1;
place = (635,-20);
target = down;
type = TopGhost;
},
{
horizontal = 1;
place = (721,68);
type = Stem;
},
{
horizontal = 1;
place = (250,67);
type = Stem;
},
{
horizontal = 1;
place = (131,67);
type = Stem;
},
{
horizontal = 1;
place = (-14,74);
type = Stem;
},
{
horizontal = 1;
place = (-18,67);
type = Stem;
},
{
place = (976,76);
type = Stem;
},
{
place = (105,75);
type = Stem;
},
{
place = (30,71);
type = Stem;
},
{
horizontal = 1;
place = (596,-20);
target = down;
type = TopGhost;
},
{
horizontal = 1;
place = (719,72);
type = Stem;
},
{
horizontal = 1;
place = (108,75);
type = Stem;
},
{
horizontal = 1;
place = (-12,68);
type = Stem;
},
{
horizontal = 1;
place = (-145,75);
type = Stem;
},
{
place = (652,75);
type = Stem;
},
{
place = (13,74);
type = Stem;
}
);
layerId = "CD43873C-47B8-4D68-B5CC-5976CFD3EBCC";
name = "27 Jun 24 at 00:03";
shapes = (
{
closed = 1;
nodes = (
(638.265,655.224,o),
(544.116,694.661,o),
(520.238,630.882,cs),
(443.837,426.812,o),
(385.914,246.397,o),
(333.425,141.89,cs),
(286.637,48.732,o),
(259.119,29,o),
(217,29,cs),
(211.779,29,o),
(182,25.854,o),
(182,50,cs),
(182,63.044,o),
(206.495,100,o),
(306,100,cs),
(381.591,100,o),
(422.608,77.123,o),
(457.066,55.692,cs),
(499.087,29.559,o),
(568.005,-21,o),
(671,-21,cs),
(862.851,-21,o),
(983,158.525,o),
(983,346,cs),
(983,602.526,o),
(781.195,774,o),
(480,774,cs),
(255.078,774,o),
(43,691.511,o),
(43,501,cs),
(43,359.065,o),
(176.079,306.904,o),
(320.867,362.301,cs),
(381.415,385.468,o),
(345.727,478.883,o),
(285.133,455.699,cs),
(199.921,423.096,o),
(145,452.935,o),
(145,501,cs),
(145,598.166,o),
(260.154,672,o),
(480,672,cs),
(726.805,672,o),
(911,549.474,o),
(911,346,cs),
(911,175.209,o),
(791.884,81,o),
(671,81,cs),
(601.995,81,o),
(558.925,112.461,o),
(510.934,142.308,cs),
(471.402,166.894,o),
(404.409,202,o),
(306,202,cs),
(198.806,202,o),
(82,163.923,o),
(82,50,cs),
(82,-1.854,o),
(106.221,-71,o),
(217,-71,cs),
(308.881,-71,o),
(375.018,-2.559,o),
(424.575,96.11,cs),
(483.686,213.804,o),
(540.163,393.188,o),
(615.762,595.118,cs)
);
}
);
width = 873;
}
);
metricLeft = D.ss03;
note = D;
unicode = 68;
},
{
glyphname = Dcroat;
lastChange = "2025-09-24 09:57:13 +0000";
layers = (
{
hints = (
{
horizontal = 1;
origin = (0,7);
target = (0,4);
type = Stem;
}
);
layerId = m01;
shapes = (
{
closed = 1;
nodes = (
(545,387,l),
(594,390,o),
(588,478,o),
(537,472,cs),
(133,434,ls),
(85,430,o),
(93,344,o),
(142,346,c)
);
},
{
pos = (0,1);
ref = D;
}
);
userData = {
com.hugojourdan.ColorFlow = {
"0" = 0;
"1" = 0;
"10" = 0;
"11" = 0;
"2" = 0;
"3" = 0;
"4" = 0;
"5" = 0;
"6" = 0;
"7" = 0;
"8" = 0;
"9" = 0;
};
};
width = 876;
}
);
metricLeft = D;
metricRight = D;
unicode = 272;
},
{
glyphname = E;
kernLeft = E;
kernRight = E;
lastChange = "2025-09-24 09:57:13 +0000";
layers = (
{
anchors = (
{
name = bottom;
pos = (306,-15);
},
{
name = ogonek;
pos = (730,20);
},
{
name = top;
pos = (467,921);
},
{
name = topleft;
pos = (71,883);
}
);
background = {
hints = (
{
horizontal = 1;
place = (555,-20);
target = down;
type = TopGhost;
},
{
horizontal = 1;
place = (708,83);
type = Stem;
},
{
horizontal = 1;
place = (-16,74);
type = Stem;
},
{
place = (440,70);
type = Stem;
},
{
place = (106,79);
type = Stem;
},
{
place = (3,88);
type = Stem;
}
);
shapes = (
{
closed = 1;
nodes = (
(243,-20,o),
(318,-19,o),
(400,10,cs),
(448,27,o),
(495,53,o),
(547,92,cs),
(590,124,o),
(637,166,o),
(695,224,cs),
(701,230,o),
(704,238,o),
(704,247,cs),
(704,265,o),
(690,279,o),
(672,279,cs),
(663,279,o),
(656,276,o),
(650,271,cs),
(638,261,o),
(581,203,o),
(512,153,cs),
(469,122,o),
(426,98,o),
(382,81,cs),
(322,58,o),
(272,55,o),
(235,61,cs),
(193,68,o),
(162,87,o),
(143,113,cs),
(124,139,o),
(119,170,o),
(124,201,cs),
(132,249,o),
(163,286,o),
(208,313,cs),
(251,339,o),
(311,359,o),
(397,376,cs),
(412,379,o),
(424,392,o),
(424,408,cs),
(424,429,o),
(405,445,o),
(386,442,cs),
(366,439,l),
(325,433,ls),
(318,432,o),
(309,432,o),
(298,433,cs),
(287,434,o),
(274,437,o),
(264,442,cs),
(242,453,o),
(225,477,o),
(219,508,cs),
(213,540,o),
(220,575,o),
(232,604,cs),
(253,655,o),
(290,692,o),
(342,709,cs),
(373,719,o),
(403,720,o),
(426,715,cs),
(451,710,o),
(464,698,o),
(470,681,cs),
(477,661,o),
(473,643,o),
(458,622,cs),
(449,609,o),
(435,594,o),
(415,576,cs),
(410,571,o),
(403,565,o),
(403,551,cs),
(403,529,o),
(419,512,o),
(439,512,cs),
(449,512,o),
(457,516,o),
(466,523,cs),
(492,543,o),
(515,584,o),
(522,597,cs),
(551,651,o),
(552,686,o),
(526,727,cs),
(503,763,o),
(470,786,o),
(419,791,cs),
(374,795,o),
(318,785,o),
(267,755,cs),
(219,727,o),
(180,683,o),
(158,632,cs),
(138,585,o),
(133,534,o),
(144,490,cs),
(155,446,o),
(182,413,o),
(218,396,c),
(127,363,o),
(71,312,o),
(47,239,cs),
(29,184,o),
(33,131,o),
(59,84,cs),
(86,35,o),
(130,5,o),
(189,-8,cs)
);
}
);
};
layerId = m01;
shapes = (
{
closed = 1;
nodes = (
(498,-32,o),
(643,128,o),
(811,456,cs),
(841,514,o),
(752,559,o),
(723,502,cs),
(558,181,o),
(426,68,o),
(303,68,cs),
(203,68,o),
(142,123,o),
(142,220,cs),
(142,299,o),
(179,370,o),
(256,409,c),
(302,386,o),
(353,380,o),
(392,380,cs),
(426,380,o),
(491,389,o),
(491,442,cs),
(490,496,o),
(433,504,o),
(394,504,cs),
(356,504,o),
(316,499,o),
(280,491,c),
(259,516,o),
(247,552,o),
(247,599,cs),
(247,705,o),
(307,772,o),
(390,782,cs),
(468,792,o),
(520,761,o),
(532,690,cs),
(542,627,o),
(641,641,o),
(630,706,cs),
(611,826,o),
(496,897,o),
(378,882,cs),
(239,864,o),
(145,735,o),
(145,599,cs),
(145,537,o),
(164,491,o),
(191,459,c),
(102,414,o),
(40,336,o),
(40,220,cs),
(40,69,o),
(147,-32,o),
(303,-32,cs)
);
}
);
userData = {
com.hugojourdan.ColorFlow = {
"0" = 0;
"1" = 0;
"10" = 0;
"11" = 0;
"2" = 0;
"3" = 0;
"4" = 0;
"5" = 0;
"6" = 0;
"7" = 0;
"8" = 0;
"9" = 0;
};
};
width = 598;
}
);
metricLeft = E.ss03;
note = E;
unicode = 69;
},
{
glyphname = Schwa;
lastChange = "2025-09-24 09:57:13 +0000";
layers = (
{
anchors = (
{
name = bottom;
pos = (282,-54);
},
{
name = ogonek;
pos = (41,724);
},
{
name = top;
pos = (338,738);
}
);
layerId = m01;
shapes = (
{
closed = 1;
nodes = (
(472,-19,o),
(660,183,o),
(660,431,cs),
(660,465,o),
(657,496,o),
(650,527,c),
(650,536,o),
(647,546,o),
(643,554,c),
(605,677,o),
(509,760,o),
(368,760,cs),
(272,760,o),
(162,715,o),
(33,570,cs),
(-11,520,o),
(64,451,o),
(109,502,cs),
(232,641,o),
(302,658,o),
(368,658,cs),
(449,658,o),
(508,621,o),
(537,551,c),
(449,494,o),
(366,435,o),
(290,366,cs),
(195,280,o),
(135,216,o),
(135,127,cs),
(135,38,o),
(206,-19,o),
(299,-19,cs)
);
},
{
closed = 1;
nodes = (
(252,83,o),
(237,106,o),
(237,127,cs),
(237,150,o),
(266,207,o),
(358,290,cs),
(420,346,o),
(486,395,o),
(558,443,c),
(558,431,ls),
(558,233,o),
(387,83,o),
(299,83,cs)
);
}
);
userData = {
com.hugojourdan.ColorFlow = {
"0" = 0;
"1" = 0;
"10" = 0;
"11" = 0;
"2" = 0;
"3" = 0;
"4" = 0;
"5" = 0;
"6" = 0;
"7" = 0;
"8" = 0;
"9" = 0;
};
};
width = 670;
}
);
unicode = 399;
},
{
glyphname = F;
kernLeft = F;
kernRight = F;
lastChange = "2025-09-24 09:57:13 +0000";
layers = (
{
background = {
shapes = (
{
closed = 0;
nodes = (
(959,715,l,{
"Letterink-NibData" = {
AngleInDegrees = "28";
MainAxisWidth = "59";
MinorAxisWidth = "59";
ValidForParentMainAxisWidth = "15";
ValidForParentMinorAxisWidth = "15";
};
"Letterink-NibStyleId" = "7";
}),
(726,632,o),
(641,743,o),
(338,743,cs,{
"Letterink-NibData" = {
AngleInDegrees = "28";
MainAxisWidth = "64";
MinorAxisWidth = "64";
ValidForParentMainAxisWidth = "15";
ValidForParentMinorAxisWidth = "15";
};
"Letterink-NibStyleId" = "6";
}),
(134,743,o),
(-14,651,o),
(-14,524,cs,{
"Letterink-NibData" = {
AngleInDegrees = "28";
MainAxisWidth = "64";
MinorAxisWidth = "64";
ValidForParentMainAxisWidth = "15";
ValidForParentMinorAxisWidth = "15";
};
"Letterink-NibStyleId" = "6";
}),
(-14,443,o),
(67,408,o),
(158,451,c,{
"Letterink-NibData" = {
AngleInDegrees = "28";
MainAxisWidth = "59";
MinorAxisWidth = "59";
ValidForParentMainAxisWidth = "15";
ValidForParentMinorAxisWidth = "15";
};
"Letterink-NibStyleId" = "7";
})
);
},
{
closed = 0;
nodes = (
(551,632,l,{
"Letterink-NibData" = {
AngleInDegrees = "28";
MainAxisWidth = "64";
MinorAxisWidth = "64";
ValidForParentMainAxisWidth = "15";
ValidForParentMinorAxisWidth = "15";
};
"Letterink-NibStyleId" = "6";
}),
(443,481,o),
(409,236,o),
(363,133,cs,{
"Letterink-NibData" = {
AngleInDegrees = "28";
MainAxisWidth = "64";
MinorAxisWidth = "64";
ValidForParentMainAxisWidth = "15";
ValidForParentMinorAxisWidth = "15";
};
"Letterink-NibStyleId" = "6";
}),
(326,50,o),
(260,10,o),
(186,10,cs,{
"Letterink-NibData" = {
AngleInDegrees = "28";
MainAxisWidth = "59";
MinorAxisWidth = "59";
ValidForParentMainAxisWidth = "15";
ValidForParentMinorAxisWidth = "15";
};
"Letterink-NibStyleId" = "7";
}),
(127,10,o),
(79,36,o),
(48,87,c,{
"Letterink-NibData" = {
AngleInDegrees = "28";
MainAxisWidth = "59";
MinorAxisWidth = "59";
ValidForParentMainAxisWidth = "15";
ValidForParentMinorAxisWidth = "15";
};
"Letterink-NibStyleId" = "7";
})
);
},
{
closed = 0;
nodes = (
(314,330,l,{
"Letterink-NibData" = {
AngleInDegrees = "28";
MainAxisWidth = "59";
MinorAxisWidth = "59";
ValidForParentMainAxisWidth = "15";
ValidForParentMinorAxisWidth = "15";
};
"Letterink-NibStyleId" = "7";
}),
(769,330,l,{
"Letterink-NibData" = {
AngleInDegrees = "28";
MainAxisWidth = "59";
MinorAxisWidth = "59";
ValidForParentMainAxisWidth = "15";
ValidForParentMinorAxisWidth = "15";
};
"Letterink-NibStyleId" = "7";
})
);
}
);
};
layerId = m01;
shapes = (
{
closed = 1;
nodes = (
(329,-8,o),
(410,46,o),
(450,134,cs),
(480,199,o),
(504,304,o),
(533,421,c),
(836,421,ls),
(902,421,o),
(903,523,o),
(836,523,cs),
(559,523,l),
(580,598,o),
(604,675,o),
(634,747,cs),
(635,750,l),
(697,742,ls),
(822,727,o),
(890,715,o),
(997,731,cs),
(1062,740,o),
(1049,841,o),
(983,831,cs),
(890,818,o),
(842,827,o),
(709,844,cs),
(564,862,o),
(449,868,o),
(311,818,cs),
(248,795,o),
(282,699,o),
(345,722,cs),
(411,746,o),
(466,755,o),
(527,756,c),
(497,678,o),
(473,598,o),
(453,523,c),
(327,523,ls),
(261,523,o),
(260,421,o),
(327,421,cs),
(426,421,l),
(399,312,o),
(379,223,o),
(358,176,cs),
(330,116,o),
(295,94,o),
(245,94,cs),
(169,94,o),
(142,156,o),
(142,229,cs),
(142,295,o),
(40,296,o),
(40,229,cs),
(40,76,o),
(133,-8,o),
(245,-8,cs)
);
}
);
userData = {
com.hugojourdan.ColorFlow = {
"0" = 0;
"1" = 0;
"10" = 0;
"11" = 0;
"2" = 0;
"3" = 0;
"4" = 0;
"5" = 0;
"6" = 0;
"7" = 0;
"8" = 0;
"9" = 0;
};
};
width = 880;
}
);
metricLeft = F.ss03;
note = F;
unicode = 70;
},
{
glyphname = G;
kernLeft = G;
kernRight = G;
lastChange = "2025-09-24 09:57:13 +0000";
layers = (
{
anchors = (
{
name = bottom;
pos = (764,0);
},
{
name = top;
pos = (548,890);
}
);
background = {
hints = (
{
horizontal = 1;
place = (578,-20);
target = down;
type = TopGhost;
},
{
horizontal = 1;
place = (524,-20);
target = down;
type = TopGhost;
},
{
horizontal = 1;
place = (712,80);
type = Stem;
},
{
horizontal = 1;
place = (383,62);
type = Stem;
},
{
horizontal = 1;
place = (-325,66);
type = Stem;
},
{
horizontal = 1;
place = (-16,21);
target = up;
type = BottomGhost;
},
{
place = (604,72);
type = Stem;
},
{
place = (283,70);
type = Stem;
},
{
place = (133,75);
type = Stem;
}
);
shapes = (
{
pos = (-11,0);
ref = S;
}
);
};
layerId = m01;
shapes = (
{
closed = 1;
nodes = (
(465,-381,o),
(555,-262,o),
(597,-117,cs),
(633,11,l),
(764,115,o),
(919,245,o),
(1084,448,cs),
(1124,498,o),
(1047,562,o),
(1006,512,cs),
(891,370,o),
(780,265,o),
(680,180,c),
(700,249,o),
(720,318,o),
(742,386,cs),
(763,449,o),
(666,481,o),
(646,418,cs),
(580,217,o),
(432,87,o),
(337,87,cs),
(240,87,o),
(182,156,o),
(182,322,cs),
(182,516,o),
(302,780,o),
(537,780,cs),
(631,780,o),
(689,731,o),
(608,600,cs),
(574,545,o),
(660,493,o),
(694,548,cs),
(793,709,o),
(753,880,o),
(537,880,cs),
(284,880,o),
(80,596,o),
(80,322,cs),
(80,124,o),
(146,-13,o),
(337,-13,cs),
(410,-13,o),
(480,16,o),
(544,69,c),
(543,68,ls),
(462,4,o),
(389,-54,o),
(327,-117,cs),
(256,-190,o),
(204,-332,o),
(344,-358,cs)
);
},
{
closed = 1;
nodes = (
(362,-260,o),
(342,-245,o),
(399,-187,cs),
(428,-157,o),
(461,-128,o),
(496,-99,c),
(456,-227,o),
(391,-265,o),
(362,-260,c)
);
}
);
userData = {
com.hugojourdan.ColorFlow = {
"0" = 0;
"1" = 0;
"10" = 0;
"11" = 0;
"2" = 0;
"3" = 0;
"4" = 0;
"5" = 0;
"6" = 0;
"7" = 0;
"8" = 0;
"9" = 0;
};
};
width = 875;
}
);
metricLeft = G.ss03;
note = G;
unicode = 71;
},
{
glyphname = H;
kernLeft = H;
kernRight = H;
lastChange = "2025-09-24 09:57:13 +0000";
layers = (
{
anchors = (
{
name = bottom;
pos = (510,0);
},
{
name = top;
pos = (703,922);
}
);
background = {
hints = (
{
horizontal = 1;
place = (779,-20);
target = down;
type = TopGhost;
},
{
horizontal = 1;
place = (564,-20);
target = down;
type = TopGhost;
},
{
horizontal = 1;
place = (662,70);
type = Stem;
},
{
horizontal = 1;
place = (293,69);
type = Stem;
},
{
horizontal = 1;
place = (-16,68);
type = Stem;
},
{
place = (6,899);
type = Stem;
}
);
shapes = (
{
closed = 0;
nodes = (
(783,778,l,{
"Letterink-NibData" = {
AngleInDegrees = "28";
MainAxisWidth = "64";
MinorAxisWidth = "64";
ValidForParentMainAxisWidth = "15";
ValidForParentMinorAxisWidth = "15";
};
"Letterink-NibStyleId" = "6";
}),
(639,157,ls,{
"Letterink-NibData" = {
AngleInDegrees = "28";
MainAxisWidth = "64";
MinorAxisWidth = "64";
ValidForParentMainAxisWidth = "15";
ValidForParentMinorAxisWidth = "15";
};
"Letterink-NibStyleId" = "6";
}),
(614,49,o),
(641,-15,o),
(706,-15,cs,{
"Letterink-NibData" = {
AngleInDegrees = "28";
MainAxisWidth = "59";
MinorAxisWidth = "59";
ValidForParentMainAxisWidth = "15";
ValidForParentMinorAxisWidth = "15";
};
"Letterink-NibStyleId" = "7";
}),
(756,-15,o),
(805,25,o),
(871,115,cs,{
"Letterink-NibData" = {
AngleInDegrees = "28";
MainAxisWidth = "59";
MinorAxisWidth = "59";
ValidForParentMainAxisWidth = "15";
ValidForParentMinorAxisWidth = "15";
};
"Letterink-NibStyleId" = "7";
}),
(926,190,o),
(996,307,o),
(1045,385,c,{
"Letterink-NibData" = {
AngleInDegrees = "28";
MainAxisWidth = "57";
MinorAxisWidth = "57";
ValidForParentMainAxisWidth = "15";
ValidForParentMinorAxisWidth = "15";
};
"Letterink-NibStyleId" = "8";
})
);
},
{
closed = 0;
nodes = (
(379,389,l,{
"Letterink-NibData" = {
AngleInDegrees = "28";
MainAxisWidth = "59";
MinorAxisWidth = "59";
ValidForParentMainAxisWidth = "15";
ValidForParentMinorAxisWidth = "15";
};
"Letterink-NibStyleId" = "7";
}),
(819,389,l,{
"Letterink-NibData" = {
AngleInDegrees = "28";
MainAxisWidth = "59";
MinorAxisWidth = "59";
ValidForParentMainAxisWidth = "15";
ValidForParentMinorAxisWidth = "15";
};
"Letterink-NibStyleId" = "7";
})
);
},
{
closed = 0;
nodes = (
(28,716,l,{
"Letterink-NibData" = {
AngleInDegrees = "28";
MainAxisWidth = "64";
MinorAxisWidth = "64";
ValidForParentMainAxisWidth = "15";
ValidForParentMinorAxisWidth = "15";
};
"Letterink-NibStyleId" = "6";
}),
(121,624,o),
(279,647,o),
(462,778,c,{
"Letterink-NibData" = {
AngleInDegrees = "28";
MainAxisWidth = "59";
MinorAxisWidth = "59";
ValidForParentMainAxisWidth = "15";
ValidForParentMinorAxisWidth = "15";
};
"Letterink-NibStyleId" = "7";
}),
(283,8,l,{
"Letterink-NibData" = {
AngleInDegrees = "28";
MainAxisWidth = "64";
MinorAxisWidth = "64";
ValidForParentMainAxisWidth = "15";
ValidForParentMinorAxisWidth = "15";
};
"Letterink-NibStyleId" = "6";
})
);
}
);
};
layerId = m01;
shapes = (
{
closed = 1;
nodes = (
(890,-12,o),
(964,43,o),
(1026,124,cs),
(1085,201,o),
(1154,284,o),
(1223,454,cs),
(1247,512,o),
(1156,554,o),
(1131,492,cs),
(1066,332,o),
(1008,265,o),
(946,184,cs),
(899,123,o),
(836,88,o),
(807,88,cs),
(782,88,o),
(742,109,o),
(768,222,cs),
(805,385,l),
(902,385,ls),
(966,385,o),
(967,485,o),
(902,485,cs),
(829,485,l),
(914,848,ls),
(928,909,o),
(830,940,o),
(814,872,cs),
(724,485,l),
(476,485,l),
(561,849,ls),
(568,879,o),
(548,910,o),
(513,910,cs),
(225,914,o),
(40,867,o),
(40,697,cs),
(40,546,o),
(174,522,o),
(295,565,cs),
(354,586,o),
(323,681,o),
(261,659,cs),
(158,622,o),
(140,668,o),
(140,697,cs),
(140,749,o),
(194,806,o),
(449,810,c),
(266,30,ls),
(252,-33,o),
(351,-59,o),
(366,6,cs),
(453,385,l),
(701,385,l),
(668,244,ls),
(640,120,o),
(668,-12,o),
(807,-12,cs)
);
}
);
userData = {
com.hugojourdan.ColorFlow = {
"0" = 0;
"1" = 0;
"10" = 0;
"11" = 0;
"2" = 0;
"3" = 0;
"4" = 0;
"5" = 0;
"6" = 0;
"7" = 0;
"8" = 0;
"9" = 0;
};
};
width = 1008;
}
);
metricLeft = H.ss03;
note = H;
unicode = 72;
},
{
glyphname = Hbar;
kernLeft = H;
lastChange = "2025-09-24 09:57:13 +0000";
layers = (
{
anchors = (
{
name = bottom;
pos = (510,0);
},
{
name = top;
pos = (703,922);
}
);
layerId = m01;
shapes = (
{
closed = 1;
nodes = (
(890,-12,o),
(964,43,o),
(1026,124,cs),
(1085,201,o),
(1154,284,o),
(1223,454,cs),
(1247,512,o),
(1156,554,o),
(1131,492,cs),
(1066,332,o),
(1008,265,o),
(946,184,cs),
(899,123,o),
(836,88,o),
(807,88,cs),
(782,88,o),
(742,109,o),
(768,222,cs),
(786,300,l),
(837,300,ls),
(901,300,o),
(902,400,o),
(837,400,cs),
(809,400,l),
(843,544,l),
(938,543,ls),
(1005,542,o),
(1007,644,o),
(940,645,cs),
(866,646,l),
(914,848,ls),
(928,909,o),
(830,940,o),
(814,872,cs),
(762,646,l),
(513,645,l),
(561,849,ls),
(568,879,o),
(548,910,o),
(513,910,cs),
(225,914,o),
(40,867,o),
(40,697,cs),
(40,546,o),
(174,522,o),
(295,565,cs),
(354,586,o),
(323,681,o),
(261,659,cs),
(158,622,o),
(140,668,o),
(140,697,cs),
(140,749,o),
(194,806,o),
(449,810,c),
(408,635,l),
(389,620,o),
(385,593,o),
(393,572,c),
(353,400,l),
(300,397,o),
(292,328,o),
(331,306,c),
(266,30,ls),
(252,-33,o),
(351,-59,o),
(366,6,cs),
(434,300,l),
(681,300,l),
(668,244,ls),
(640,120,o),
(668,-12,o),
(807,-12,cs)
);
},
{
closed = 1;
nodes = (
(490,543,l),
(738,544,l),
(704,400,l),
(457,400,l),
(457,400,l)
);
}
);
userData = {
com.hugojourdan.ColorFlow = {
"0" = 0;
"1" = 0;
"10" = 0;
"11" = 0;
"2" = 0;
"3" = 0;
"4" = 0;
"5" = 0;
"6" = 0;
"7" = 0;
"8" = 0;
"9" = 0;
};
};
width = 1008;
}
);
metricLeft = H;
metricRight = H;
unicode = 294;
},
{
glyphname = I;
kernLeft = I;
kernRight = I;
lastChange = "2025-09-24 09:57:13 +0000";
layers = (
{
anchors = (
{
name = bottom;
pos = (436,-15);
},
{
name = top;
pos = (537,921);
}
);
background = {
shapes = (
{
closed = 0;
nodes = (
(352,519,l,{
"Letterink-NibData" = {
AngleInDegrees = "28";
MainAxisWidth = "85";
MinorAxisWidth = "85";
ValidForParentMainAxisWidth = "15";
ValidForParentMinorAxisWidth = "15";
};
"Letterink-NibStyleId" = "7";
}),
(240,480,o),
(164,515,o),
(164,604,cs,{
"Letterink-NibData" = {
AngleInDegrees = "28";
MainAxisWidth = "85";
MinorAxisWidth = "85";
ValidForParentMainAxisWidth = "15";
ValidForParentMinorAxisWidth = "15";
};
"Letterink-NibStyleId" = "7";
}),
(164,718,o),
(289,774,o),
(407,774,cs,{
"Letterink-NibData" = {
AngleInDegrees = "28";
MainAxisWidth = "85";
MinorAxisWidth = "85";
ValidForParentMainAxisWidth = "15";
ValidForParentMinorAxisWidth = "15";
};
"Letterink-NibStyleId" = "7";
}),
(539,774,o),
(583,776,o),
(643,839,c,{
"Letterink-NibData" = {
AngleInDegrees = "28";
MainAxisWidth = "85";
MinorAxisWidth = "85";
ValidForParentMainAxisWidth = "15";
ValidForParentMinorAxisWidth = "15";
};
"Letterink-NibStyleId" = "7";
}),
(516,595,o),
(485,281,o),
(429,154,cs,{
"Letterink-NibData" = {
AngleInDegrees = "28";
MainAxisWidth = "87";
MinorAxisWidth = "87";
ValidForParentMainAxisWidth = "15";
ValidForParentMinorAxisWidth = "15";
};
"Letterink-NibStyleId" = "6";
}),
(387,63,o),
(316,20,o),
(234,20,cs,{
"Letterink-NibData" = {
AngleInDegrees = "28";
MainAxisWidth = "85";
MinorAxisWidth = "85";
ValidForParentMainAxisWidth = "15";
ValidForParentMinorAxisWidth = "15";
};
"Letterink-NibStyleId" = "7";
}),
(160,20,o),
(101,58,o),
(60,106,c,{
"Letterink-NibData" = {
AngleInDegrees = "28";
MainAxisWidth = "85";
MinorAxisWidth = "85";
ValidForParentMainAxisWidth = "15";
ValidForParentMinorAxisWidth = "15";
};
"Letterink-NibStyleId" = "7";
})
);
}
);
};
layerId = m01;
shapes = (
{
closed = 1;
nodes = (
(158,-9,o),
(262,-3,o),
(431,-11,cs),
(620,-20,o),
(652,-21,o),
(754,-13,cs),
(817,-8,o),
(810,92,o),
(746,87,cs),
(651,79,o),
(628,80,o),
(466,87,c),
(508,255,o),
(537,569,o),
(611,753,c),
(731,748,o),
(767,748,o),
(854,755,cs),
(917,760,o),
(910,860,o),
(846,855,cs),
(747,847,o),
(726,848,o),
(535,857,cs),
(298,868,o),
(93,822,o),
(69,650,cs),
(51,514,o),
(150,438,o),
(315,465,cs),
(379,475,o),
(364,574,o),
(299,563,cs),
(214,550,o),
(161,578,o),
(169,636,cs),
(177,699,o),
(278,764,o),
(504,758,c),
(426,540,o),
(399,225,o),
(361,92,c),
(231,95,o),
(141,90,o),
(74,84,cs),
(11,78,o),
(18,-22,o),
(84,-16,cs)
);
}
);
userData = {
com.hugojourdan.ColorFlow = {
"0" = 0;
"1" = 0;
"10" = 0;
"11" = 0;
"2" = 0;
"3" = 0;
"4" = 0;
"5" = 0;
"6" = 0;
"7" = 0;
"8" = 0;
"9" = 0;
};
};
width = 809;
}
);
metricLeft = I.ss03;
note = I;
unicode = 73;
},
{
glyphname = J;
kernLeft = I;
kernRight = I;
lastChange = "2025-09-24 09:57:13 +0000";
layers = (
{
anchors = (
{
name = bottom;
pos = (369,0);
},
{
name = top;
pos = (511,890);
}
);
background = {
shapes = (
{
closed = 1;
nodes = (
(392,-232,o),
(432,-196,o),
(459,-119,cs),
(474,-77,o),
(492,1,o),
(553,274,c),
(838,375,ls),
(852,380,o),
(859,392,o),
(859,405,cs),
(859,428,o),
(835,440,o),
(817,434,cs),
(571,349,l),
(584,408,o),
(600,485,o),
(619,579,c),
(637,582,o),
(665,592,o),
(686,601,cs),
(738,623,o),
(773,650,o),
(792,686,cs),
(811,722,o),
(812,762,o),
(795,798,cs),
(781,828,o),
(759,846,o),
(728,853,cs),
(697,860,o),
(664,854,o),
(638,838,cs),
(612,822,o),
(594,797,o),
(586,763,cs),
(580,738,ls),
(577,725,o),
(574,715,o),
(569,690,cs),
(557,632,l),
(512,632,o),
(420,663,o),
(383,674,cs),
(332,689,o),
(277,696,o),
(220,672,cs),
(170,651,o),
(143,616,o),
(133,568,cs),
(124,525,o),
(131,482,o),
(150,447,cs),
(172,406,o),
(207,379,o),
(250,364,cs),
(281,353,o),
(315,349,o),
(344,350,cs),
(373,351,o),
(396,356,o),
(406,359,cs),
(425,365,o),
(432,375,o),
(432,390,cs),
(432,408,o),
(421,421,o),
(408,426,cs),
(404,428,o),
(400,427,o),
(396,426,cs),
(384,423,ls),
(378,422,o),
(362,419,o),
(360,419,cs),
(351,418,o),
(342,417,o),
(332,417,cs),
(296,417,o),
(265,429,o),
(240,453,cs),
(217,475,o),
(204,504,o),
(204,535,cs),
(204,569,o),
(219,595,o),
(246,609,cs),
(280,627,o),
(323,621,o),
(367,609,cs),
(419,595,o),
(486,570,o),
(543,568,c),
(486,318,l),
(232,230,ls),
(171,209,o),
(118,183,o),
(78,153,cs),
(37,122,o),
(12,89,o),
(2,50,cs),
(-16,-19,o),
(18,-86,o),
(108,-157,cs),
(187,-219,o),
(260,-244,o),
(325,-238,cs)
);
},
{
closed = 1;
nodes = (
(94,87,o),
(153,132,o),
(247,165,cs),
(470,243,l),
(422,38,o),
(393,-80,o),
(383,-110,c),
(383,-110,l),
(383,-110,o),
(381,-113,o),
(379,-118,cs),
(367,-150,o),
(339,-165,o),
(308,-165,cs),
(275,-165,o),
(216,-149,o),
(164,-115,cs),
(132,-94,o),
(105,-67,o),
(90,-39,cs),
(76,-12,o),
(73,14,o),
(80,38,cs)
);
},
{
closed = 1;
nodes = (
(654,737,o),
(648,718,o),
(653,742,cs),
(657,761,o),
(661,771,o),
(675,780,cs),
(686,787,o),
(697,789,o),
(709,785,cs),
(718,782,o),
(728,775,o),
(732,763,c),
(733,764,l),
(742,740,o),
(736,718,o),
(716,697,cs),
(696,676,o),
(668,660,o),
(633,649,c)
);
}
);
};
layerId = m01;
shapes = (
{
closed = 1;
nodes = (
(396,-232,o),
(519,-97,o),
(572,97,cs),
(606,221,l),
(767,312,o),
(929,400,o),
(996,431,cs),
(1055,458,o),
(1014,549,o),
(954,521,cs),
(895,494,o),
(774,430,o),
(643,357,c),
(773,828,ls),
(785,871,o),
(735,910,o),
(696,882,cs),
(598,811,o),
(539,789,o),
(381,803,cs),
(198,819,o),
(40,748,o),
(40,587,cs),
(40,437,o),
(173,413,o),
(294,455,cs),
(355,476,o),
(322,570,o),
(262,549,cs),
(158,513,o),
(140,559,o),
(140,587,cs),
(140,654,o),
(232,715,o),
(373,703,cs),
(484,694,o),
(569,706,o),
(644,738,c),
(603,588,o),
(560,437,o),
(518,286,c),
(438,240,o),
(361,195,o),
(298,157,cs),
(167,77,o),
(92,9,o),
(92,-93,cs),
(92,-165,o),
(142,-232,o),
(236,-232,cs)
);
},
{
closed = 1;
nodes = (
(214,-132,o),
(192,-123,o),
(192,-93,cs),
(192,-55,o),
(225,-5,o),
(350,71,cs),
(480,149,l),
(474,125,ls),
(427,-46,o),
(322,-132,o),
(236,-132,cs)
);
}
);
userData = {
com.hugojourdan.ColorFlow = {
"0" = 0;
"1" = 0;
"10" = 0;
"11" = 0;
"2" = 0;
"3" = 0;
"4" = 0;
"5" = 0;
"6" = 0;
"7" = 0;
"8" = 0;
"9" = 0;
};
};
width = 808;
}
);
metricLeft = J.ss03;
note = J;
unicode = 74;
},
{
glyphname = K;
kernLeft = K;
kernRight = K;
lastChange = "2025-09-24 09:57:13 +0000";
layers = (
{
anchors = (
{
name = bottom;
pos = (609,0);
},
{
name = top;
pos = (751,890);
}
);
background = {
shapes = (
{
closed = 1;
nodes = (
(319,-16,o),
(351,11,o),
(379,53,cs),
(412,102,o),
(442,179,o),
(471,283,c),
(552,167,o),
(613,89,o),
(665,43,cs),
(709,4,o),
(754,-19,o),
(809,-19,cs),
(834,-19,o),
(861,-14,o),
(888,-2,cs),
(915,10,o),
(943,30,o),
(975,57,cs),
(1001,79,o),
(1030,106,o),
(1052,128,cs),
(1070,145,o),
(1120,200,o),
(1123,203,cs),
(1129,209,o),
(1132,216,o),
(1132,225,cs),
(1132,242,o),
(1118,257,o),
(1100,257,cs),
(1091,257,o),
(1083,253,o),
(1077,247,cs),
(1070,240,o),
(1010,175,o),
(946,125,cs),
(890,81,o),
(849,62,o),
(813,62,cs),
(777,62,o),
(741,81,o),
(699,123,cs),
(659,164,o),
(605,232,o),
(537,328,c),
(549,341,o),
(574,370,o),
(612,414,cs),
(729,549,ls),
(770,596,o),
(813,644,o),
(840,669,cs),
(869,696,o),
(886,704,o),
(909,703,cs),
(934,702,o),
(947,690,o),
(957,675,cs),
(975,648,o),
(975,621,o),
(957,590,cs),
(935,553,o),
(892,519,o),
(876,502,cs),
(871,497,o),
(864,489,o),
(864,476,cs),
(864,457,o),
(880,441,o),
(899,441,cs),
(907,441,o),
(915,443,o),
(920,448,c),
(980,492,o),
(1017,536,o),
(1034,581,cs),
(1054,635,o),
(1041,692,o),
(1005,732,cs),
(988,751,o),
(968,763,o),
(946,769,cs),
(920,776,o),
(890,775,o),
(862,766,cs),
(830,756,o),
(804,737,o),
(776,706,cs),
(671,590,o),
(562,465,o),
(494,384,c),
(568,663,o),
(546,585,o),
(554,612,cs),
(569,664,ls),
(573,678,o),
(576,690,o),
(579,698,cs),
(580,701,o),
(580,705,o),
(579,710,cs),
(574,735,o),
(554,749,o),
(532,749,cs),
(520,749,o),
(508,745,o),
(502,735,c),
(489,724,o),
(475,716,o),
(458,710,cs),
(435,702,o),
(411,699,o),
(387,701,cs),
(363,702,o),
(362,704,o),
(298,719,cs),
(238,733,o),
(125,754,o),
(52,591,cs),
(50,587,o),
(49,582,o),
(49,577,cs),
(49,558,o),
(65,542,o),
(84,542,cs),
(97,542,o),
(110,550,o),
(116,563,cs),
(137,608,o),
(158,632,o),
(180,645,cs),
(207,661,o),
(241,663,o),
(282,651,cs),
(364,627,o),
(436,626,o),
(490,649,c),
(482,618,o),
(479,608,o),
(454,512,cs),
(410,343,o),
(376,214,o),
(342,138,cs),
(312,71,o),
(283,47,o),
(239,47,cs),
(224,47,o),
(210,50,o),
(198,56,cs),
(186,62,o),
(177,71,o),
(168,86,cs),
(162,96,o),
(155,110,o),
(150,123,cs),
(148,128,o),
(146,134,o),
(144,141,cs),
(141,150,o),
(131,164,o),
(108,164,cs),
(86,164,o),
(77,151,o),
(77,122,cs),
(77,120,o),
(77,114,o),
(77,116,cs),
(77,91,o),
(116,45,o),
(136,24,cs),
(170,-12,o),
(198,-25,o),
(252,-21,cs)
);
}
);
};
layerId = m01;
shapes = (
{
closed = 1;
nodes = (
(323,-30,o),
(406,36,o),
(455,133,cs),
(479,182,o),
(501,250,o),
(525,329,c),
(561,128,o),
(638,-24,o),
(775,-24,cs),
(921,-24,o),
(1023,104,o),
(1255,444,cs),
(1291,496,o),
(1210,554,o),
(1173,500,cs),
(948,171,o),
(833,76,o),
(775,76,cs),
(726,76,o),
(652,157,o),
(619,390,c),
(812,714,o),
(939,831,o),
(979,796,cs),
(983,793,o),
(999,780,o),
(942,689,cs),
(908,635,o),
(991,579,o),
(1026,636,cs),
(1080,721,o),
(1130,798,o),
(1045,872,cs),
(904,994,o),
(738,778,o),
(595,548,c),
(627,639,o),
(665,731,o),
(714,813,cs),
(741,859,o),
(686,911,o),
(642,880,cs),
(534,804,o),
(482,789,o),
(325,805,cs),
(195,818,o),
(66,763,o),
(57,625,cs),
(48,492,o),
(161,473,o),
(254,508,cs),
(315,531,o),
(282,625,o),
(220,602,cs),
(147,575,o),
(157,614,o),
(157,619,cs),
(161,673,o),
(214,715,o),
(315,705,cs),
(410,696,o),
(487,702,o),
(556,724,c),
(458,505,o),
(411,274,o),
(363,179,cs),
(326,105,o),
(269,70,o),
(228,70,cs),
(192,70,o),
(154,93,o),
(136,129,cs),
(107,185,o),
(16,142,o),
(46,83,cs),
(82,14,o),
(152,-30,o),
(228,-30,cs)
);
}
);
userData = {
com.hugojourdan.ColorFlow = {
"0" = 0;
"1" = 0;
"10" = 0;
"11" = 0;
"2" = 0;
"3" = 0;
"4" = 0;
"5" = 0;
"6" = 0;
"7" = 0;
"8" = 0;
"9" = 0;
};
};
width = 1044;
}
);
metricLeft = K.ss03;
note = K;
unicode = 75;
},
{
glyphname = L;
kernLeft = L;
kernRight = L;
lastChange = "2025-09-24 09:57:13 +0000";
layers = (
{
anchors = (
{
name = bottom;
pos = (429,0);
},
{
name = top;
pos = (965,890);
},
{
name = topright;
pos = (837,750);
}
);
background = {
shapes = (
{
closed = 1;
nodes = (
(899,203,o),
(888,214,o),
(875,214,cs),
(869,214,o),
(863,211,o),
(858,206,cs),
(839,187,ls),
(749,97,o),
(685,63,o),
(600,63,cs),
(522,63,o),
(438,100,o),
(349,125,c),
(400,208,o),
(438,304,o),
(461,363,cs),
(469,382,o),
(483,422,o),
(501,469,c),
(627,552,o),
(747,652,o),
(747,732,cs),
(747,772,o),
(721,800,o),
(682,800,cs),
(649,800,o),
(611,780,o),
(579,740,cs),
(541,692,o),
(504,605,o),
(465,505,c),
(356,435,o),
(243,375,o),
(210,357,cs),
(201,352,o),
(197,344,o),
(197,337,cs),
(197,325,o),
(207,312,o),
(220,312,cs),
(223,312,o),
(228,312,o),
(232,314,cs),
(275,338,o),
(354,378,o),
(435,428,c),
(395,324,o),
(350,217,o),
(300,137,c),
(271,142,o),
(240,146,o),
(209,146,cs),
(104,146,o),
(44,105,o),
(44,43,cs),
(44,-14,o),
(88,-40,o),
(134,-40,cs),
(208,-40,o),
(271,13,o),
(322,83,c),
(416,60,o),
(506,16,o),
(600,16,cs),
(703,16,o),
(779,61,o),
(873,154,cs),
(892,173,ls),
(896,178,o),
(899,184,o),
(899,190,cs)
);
},
{
closed = 1;
nodes = (
(700,684,o),
(625,616,o),
(534,551,c),
(576,652,o),
(632,753,o),
(682,753,cs),
(692,753,o),
(700,748,o),
(700,732,cs)
);
},
{
closed = 1;
nodes = (
(230,41,o),
(185,7,o),
(134,7,cs),
(105,7,o),
(92,20,o),
(92,43,cs),
(92,62,o),
(111,99,o),
(209,99,cs),
(230,99,o),
(251,97,o),
(271,94,c)
);
}
);
};
layerId = m01;
shapes = (
{
closed = 1;
nodes = (
(274,-65,o),
(342,1,o),
(397,95,c),
(410,89,o),
(426,81,o),
(440,73,cs),
(500,38,o),
(568,-17,o),
(667,-17,cs),
(821,-17,o),
(946,135,o),
(1098,460,cs),
(1126,519,o),
(1036,562,o),
(1008,502,cs),
(866,199,o),
(731,83,o),
(667,83,cs),
(614,83,o),
(558,122,o),
(490,161,cs),
(475,170,o),
(459,179,o),
(444,186,c),
(477,260,o),
(505,341,o),
(532,412,cs),
(546,449,l),
(654,503,o),
(731,556,o),
(785,606,cs),
(874,688,o),
(961,804,o),
(856,886,cs),
(735,981,o),
(591,824,o),
(465,521,c),
(391,486,o),
(302,450,o),
(192,413,cs),
(132,393,o),
(161,298,o),
(224,319,cs),
(294,342,o),
(358,366,o),
(414,389,c),
(393,330,o),
(372,271,o),
(348,217,c),
(324,222,o),
(302,224,o),
(278,224,cs),
(164,224,o),
(40,177,o),
(40,64,cs),
(40,2,o),
(82,-65,o),
(179,-65,cs)
);
},
{
closed = 1;
nodes = (
(166,35,o),
(140,38,o),
(140,64,cs),
(140,81,o),
(171,124,o),
(278,124,cs),
(284,124,o),
(290,124,o),
(297,123,c),
(253,58,o),
(211,35,o),
(179,35,cs)
);
},
{
closed = 1;
nodes = (
(721,811,o),
(791,810,o),
(794,808,cs),
(795,807,o),
(816,771,o),
(717,680,cs),
(690,655,o),
(657,629,o),
(615,602,c)
);
}
);
userData = {
com.hugojourdan.ColorFlow = {
"0" = 0;
"1" = 0;
"10" = 0;
"11" = 0;
"2" = 0;
"3" = 0;
"4" = 0;
"5" = 0;
"6" = 0;
"7" = 0;
"8" = 0;
"9" = 0;
};
};
width = 883;
}
);
metricLeft = L.ss03;
note = L;
unicode = 76;
},
{
glyphname = Lslash;
kernLeft = L;
lastChange = "2025-09-24 09:57:13 +0000";
layers = (
{
anchors = (
{
name = bottom;
pos = (429,0);
},
{
name = center;
pos = (429,375);
},
{
name = top;
pos = (635,890);
},
{
name = topright;
pos = (837,750);
}
);
layerId = m01;
shapes = (
{
closed = 1;
nodes = (
(405,310,o),
(753,389,o),
(855,431,cs),
(917,456,o),
(878,550,o),
(817,525,cs),
(738,493,o),
(381,412,o),
(191,412,cs),
(125,412,o),
(124,310,o),
(191,310,cs)
);
},
{
ref = L;
}
);
userData = {
com.hugojourdan.ColorFlow = {
"0" = 0;
"1" = 0;
"10" = 0;
"11" = 0;
"2" = 0;
"3" = 0;
"4" = 0;
"5" = 0;
"6" = 0;
"7" = 0;
"8" = 0;
"9" = 0;
};
};
width = 883;
}
);
metricLeft = L;
metricRight = L;
unicode = 321;
},
{
glyphname = M;
kernLeft = M;
kernRight = M;
lastChange = "2025-09-24 09:57:13 +0000";
layers = (
{
background = {
shapes = (
{
closed = 0;
nodes = (
(263,783,l,{
"Letterink-NibData" = {
AngleInDegrees = "28";
MainAxisWidth = "87";
MinorAxisWidth = "87";
ValidForParentMainAxisWidth = "15";
ValidForParentMinorAxisWidth = "15";
};
"Letterink-NibStyleId" = "6";
}),
(252,702,o),
(190,404,o),
(111,4,c,{
"Letterink-NibData" = {
AngleInDegrees = "28";
MainAxisWidth = "85";
MinorAxisWidth = "85";
ValidForParentMainAxisWidth = "15";
ValidForParentMinorAxisWidth = "15";
};
"Letterink-NibStyleId" = "7";
}),
(325,528,o),
(443,822,o),
(559,775,cs,{
"Letterink-NibData" = {
AngleInDegrees = "28";
MainAxisWidth = "85";
MinorAxisWidth = "85";
ValidForParentMainAxisWidth = "15";
ValidForParentMinorAxisWidth = "15";
};
"Letterink-NibStyleId" = "7";
}),
(683,725,o),
(558,355,o),
(511,9,c,{
"Letterink-NibData" = {
AngleInDegrees = "28";
MainAxisWidth = "85";
MinorAxisWidth = "85";
ValidForParentMainAxisWidth = "15";
ValidForParentMinorAxisWidth = "15";
};
"Letterink-NibStyleId" = "7";
}),
(640,294,o),
(842,798,o),
(1016,743,cs,{
"Letterink-NibData" = {
AngleInDegrees = "28";
MainAxisWidth = "85";
MinorAxisWidth = "85";
ValidForParentMainAxisWidth = "15";
ValidForParentMinorAxisWidth = "15";
};
"Letterink-NibStyleId" = "7";
}),
(1151,700,o),
(976,397,o),
(920,207,cs,{
"Letterink-NibData" = {
AngleInDegrees = "28";
MainAxisWidth = "87";
MinorAxisWidth = "87";
ValidForParentMainAxisWidth = "15";
ValidForParentMinorAxisWidth = "15";
};
"Letterink-NibStyleId" = "6";
}),
(882,78,o),
(908,4,o),
(990,4,cs,{
"Letterink-NibData" = {
AngleInDegrees = "28";
MainAxisWidth = "85";
MinorAxisWidth = "85";
ValidForParentMainAxisWidth = "15";
ValidForParentMinorAxisWidth = "15";
};
"Letterink-NibStyleId" = "7";
}),
(1054,4,o),
(1110,48,o),
(1172,124,cs,{
"Letterink-NibData" = {
AngleInDegrees = "28";
MainAxisWidth = "85";
MinorAxisWidth = "85";
ValidForParentMainAxisWidth = "15";
ValidForParentMinorAxisWidth = "15";
};
"Letterink-NibStyleId" = "7";
}),
(1232,197,o),
(1296,267,o),
(1370,420,c,{
"Letterink-NibData" = {
AngleInDegrees = "28";
MainAxisWidth = "79";
MinorAxisWidth = "79";
ValidForParentMainAxisWidth = "15";
ValidForParentMinorAxisWidth = "15";
};
"Letterink-NibStyleId" = "1";
})
);
}
);
};
layerId = m01;
shapes = (
{
closed = 1;
nodes = (
(1072,-16,o),
(1143,40,o),
(1211,122,cs),
(1269,194,o),
(1336,273,o),
(1412,430,cs),
(1439,485,o),
(1355,526,o),
(1328,470,cs),
(1256,322,o),
(1194,260,o),
(1133,186,cs),
(1077,117,o),
(1016,84,o),
(990,84,cs),
(985,84,o),
(926,78,o),
(969,222,cs),
(1016,380,o),
(1230,723,o),
(1014,803,cs),
(892,848,o),
(767,738,o),
(665,583,c),
(679,714,o),
(659,812,o),
(569,851,cs),
(441,906,o),
(321,765,o),
(231,600,cs),
(153,457,o),
(84,266,o),
(41,44,cs),
(29,-20,o),
(128,-42,o),
(141,24,cs),
(182,236,o),
(249,420,o),
(321,552,cs),
(427,746,o),
(499,772,o),
(529,759,cs),
(603,727,o),
(554,504,o),
(442,82,cs),
(425,19,o),
(523,-9,o),
(540,56,cs),
(623,368,o),
(853,756,o),
(980,709,cs),
(1053,682,o),
(947,506,o),
(871,252,cs),
(830,114,o),
(825,-16,o),
(990,-16,cs)
);
}
);
userData = {
com.hugojourdan.ColorFlow = {
"0" = 0;
"1" = 0;
"10" = 0;
"11" = 0;
"2" = 0;
"3" = 0;
"4" = 0;
"5" = 0;
"6" = 0;
"7" = 0;
"8" = 0;
"9" = 0;
};
};
width = 1197;
}
);
metricLeft = M.ss03;
note = M;
unicode = 77;
},
{
glyphname = N;
kernLeft = N;
kernRight = N;
lastChange = "2025-09-24 09:57:13 +0000";
layers = (
{
anchors = (
{
name = bottom;
pos = (397,0);
},
{
name = top;
pos = (543,890);
}
);
background = {
shapes = (
{
closed = 0;
nodes = (
(3,232,l,{
"Letterink-NibData" = {
AngleInDegrees = "28";
MainAxisWidth = "85";
MinorAxisWidth = "85";
ValidForParentMainAxisWidth = "15";
ValidForParentMinorAxisWidth = "15";
};
"Letterink-NibStyleId" = "7";
}),
(-64,206,o),
(-101,160,o),
(-101,106,cs,{
"Letterink-NibData" = {
AngleInDegrees = "28";
MainAxisWidth = "85";
MinorAxisWidth = "85";
ValidForParentMainAxisWidth = "15";
ValidForParentMinorAxisWidth = "15";
};
"Letterink-NibStyleId" = "7";
}),
(-101,52,o),
(-65,18,o),
(-9,18,cs,{
"Letterink-NibData" = {
AngleInDegrees = "28";
MainAxisWidth = "85";
MinorAxisWidth = "85";
ValidForParentMainAxisWidth = "15";
ValidForParentMinorAxisWidth = "15";
};
"Letterink-NibStyleId" = "7";
}),
(48,18,o),
(96,53,o),
(148,145,cs,{
"Letterink-NibData" = {
AngleInDegrees = "28";
MainAxisWidth = "85";
MinorAxisWidth = "85";
ValidForParentMainAxisWidth = "15";
ValidForParentMinorAxisWidth = "15";
};
"Letterink-NibStyleId" = "7";
}),
(222,278,o),
(299,517,o),
(360,767,c,{
"Letterink-NibData" = {
AngleInDegrees = "28";
MainAxisWidth = "85";
MinorAxisWidth = "85";
ValidForParentMainAxisWidth = "15";
ValidForParentMinorAxisWidth = "15";
};
"Letterink-NibStyleId" = "7";
}),
(426,502,o),
(488,210,o),
(523,7,c,{
"Letterink-NibData" = {
AngleInDegrees = "28";
MainAxisWidth = "85";
MinorAxisWidth = "85";
ValidForParentMainAxisWidth = "15";
ValidForParentMinorAxisWidth = "15";
};
"Letterink-NibStyleId" = "7";
}),
(599,356,o),
(722,658,o),
(843,790,c,{
"Letterink-NibData" = {
AngleInDegrees = "28";
MainAxisWidth = "85";
MinorAxisWidth = "85";
ValidForParentMainAxisWidth = "15";
ValidForParentMinorAxisWidth = "15";
};
"Letterink-NibStyleId" = "7";
})
);
}
);
};
layerId = m01;
shapes = (
{
closed = 1;
nodes = (
(733,-27,o),
(800,32,o),
(874,122,cs),
(952,218,o),
(1036,352,o),
(1098,445,cs),
(1131,494,o),
(1054,548,o),
(1020,497,cs),
(958,404,o),
(869,275,o),
(796,186,cs),
(725,99,o),
(685,78,o),
(653,81,cs),
(630,83,o),
(597,110,o),
(612,167,cs),
(632,241,o),
(736,482,o),
(747,510,cs),
(799,640,o),
(816,752,o),
(719,805,cs),
(616,861,o),
(505,776,o),
(424,672,cs),
(381,617,o),
(314,517,o),
(245,405,c),
(289,569,o),
(325,708,o),
(345,800,cs),
(358,861,o),
(261,886,o),
(247,820,cs),
(215,670,o),
(130,368,o),
(42,42,cs),
(26,-16,o),
(110,-48,o),
(137,7,cs),
(222,181,o),
(421,506,o),
(502,610,cs),
(584,715,o),
(645,729,o),
(671,715,cs),
(684,708,o),
(708,687,o),
(653,548,cs),
(642,521,o),
(538,284,o),
(514,193,cs),
(488,96,o),
(531,-8,o),
(643,-19,cs)
);
}
);
userData = {
com.hugojourdan.ColorFlow = {
"0" = 0;
"1" = 0;
"10" = 0;
"11" = 0;
"2" = 0;
"3" = 0;
"4" = 0;
"5" = 0;
"6" = 0;
"7" = 0;
"8" = 0;
"9" = 0;
};
};
width = 886;
}
);
metricLeft = N.ss03;
note = N;
unicode = 78;
},
{
glyphname = O;
kernLeft = O;
kernRight = O;
lastChange = "2025-09-24 09:57:13 +0000";
layers = (
{
anchors = (
{
name = bottom;
pos = (408,-15);
},
{
name = center;
pos = (518,455);
},
{
name = ogonek;
pos = (914,26);
},
{
name = top;
pos = (556,901);
},
{
name = topright;
pos = (635,878);
}
);
background = {
hints = (
{
horizontal = 1;
place = (721,75);
type = Stem;
},
{
horizontal = 1;
place = (577,64);
type = Stem;
},
{
horizontal = 1;
place = (-8,70);
type = Stem;
},
{
place = (564,73);
type = Stem;
},
{
place = (314,73);
type = Stem;
},
{
place = (18,76);
type = Stem;
}
);
shapes = (
{
closed = 1;
nodes = (
(382,-6,o),
(408,-1,o),
(432,7,cs),
(462,17,o),
(489,31,o),
(516,53,cs),
(542,74,o),
(565,100,o),
(589,134,cs),
(613,168,o),
(637,212,o),
(652,247,c),
(701,254,o),
(750,271,o),
(812,300,cs),
(863,324,o),
(910,351,o),
(945,376,cs),
(952,381,o),
(958,390,o),
(958,401,cs),
(958,418,o),
(944,431,o),
(927,431,cs),
(922,431,o),
(916,430,o),
(909,425,cs),
(831,371,o),
(753,334,o),
(680,317,c),
(710,417,o),
(704,504,o),
(662,572,cs),
(638,611,o),
(607,634,o),
(563,641,cs),
(517,648,o),
(475,635,o),
(442,607,cs),
(415,584,o),
(392,550,o),
(382,508,cs),
(372,467,o),
(376,426,o),
(387,393,cs),
(399,357,o),
(420,326,o),
(449,302,cs),
(478,278,o),
(516,260,o),
(571,247,c),
(559,224,o),
(544,200,o),
(526,174,cs),
(490,123,o),
(455,92,o),
(415,76,cs),
(375,60,o),
(330,58,o),
(290,68,cs),
(259,76,o),
(233,91,o),
(211,116,cs),
(189,141,o),
(176,167,o),
(167,201,cs),
(152,257,o),
(152,327,o),
(166,393,cs),
(179,454,o),
(204,512,o),
(240,561,cs),
(284,621,o),
(340,663,o),
(394,687,cs),
(439,707,o),
(489,717,o),
(548,720,cs),
(568,721,o),
(584,736,o),
(584,761,cs),
(584,786,o),
(569,794,o),
(524,794,cs),
(508,794,o),
(493,793,o),
(473,790,cs),
(440,785,o),
(407,777,o),
(375,766,cs),
(335,752,o),
(304,735,o),
(272,709,cs),
(240,683,o),
(206,647,o),
(176,603,cs),
(131,537,o),
(99,459,o),
(86,375,cs),
(74,297,o),
(80,221,o),
(102,170,c),
(137,73,o),
(197,16,o),
(280,-3,cs),
(302,-8,o),
(324,-10,o),
(352,-8,cs)
);
},
{
closed = 1;
nodes = (
(443,454,o),
(449,495,o),
(464,526,cs),
(480,559,o),
(505,577,o),
(541,577,cs),
(572,577,o),
(593,563,o),
(608,533,cs),
(632,484,o),
(635,400,o),
(599,313,c),
(596,313,o),
(592,314,o),
(587,315,cs),
(588,315,o),
(569,320,o),
(559,323,cs),
(532,331,o),
(510,344,o),
(498,354,cs),
(480,369,o),
(464,392,o),
(456,416,cs)
);
}
);
};
layerId = m01;
shapes = (
{
closed = 1;
nodes = (
(564,-13,o),
(700,106,o),
(753,284,c),
(863,291,o),
(973,334,o),
(1049,415,cs),
(1089,457,o),
(1025,526,o),
(981,479,cs),
(933,428,o),
(853,397,o),
(773,387,c),
(777,417,o),
(778,443,o),
(778,461,cs),
(778,605,o),
(719,742,o),
(583,742,cs),
(490,742,o),
(400,668,o),
(400,536,cs),
(400,409,o),
(506,313,o),
(649,289,c),
(604,156,o),
(513,87,o),
(400,87,cs),
(258,87,o),
(182,209,o),
(182,360,cs),
(182,576,o),
(327,754,o),
(528,780,cs),
(581,787,o),
(639,781,o),
(678,769,cs),
(741,750,o),
(770,846,o),
(708,865,cs),
(654,881,o),
(586,889,o),
(516,880,cs),
(264,847,o),
(80,622,o),
(80,360,cs),
(80,129,o),
(222,-13,o),
(400,-13,cs)
);
},
{
closed = 1;
nodes = (
(556,401,o),
(502,458,o),
(502,536,cs),
(502,582,o),
(524,640,o),
(583,640,cs),
(627,640,o),
(678,594,o),
(678,461,cs),
(678,444,o),
(677,418,o),
(672,387,c)
);
}
);
userData = {
com.hugojourdan.ColorFlow = {
"0" = 0;
"1" = 0;
"10" = 0;
"11" = 0;
"2" = 0;
"3" = 0;
"4" = 0;
"5" = 0;
"6" = 0;
"7" = 0;
"8" = 0;
"9" = 0;
};
};
width = 846;
}
);
metricLeft = O.ss03;
note = O;
unicode = 79;
},
{
glyphname = Ohorn;
kernLeft = O;
kernRight = O;
lastChange = "2025-09-24 09:57:13 +0000";
layers = (
{
anchors = (
{
name = bottom;
pos = (408,-1);
},
{
name = center;
pos = (518,455);
},
{
name = ogonek;
pos = (914,26);
},
{
name = top;
pos = (506,901);
},
{
name = topright;
pos = (635,878);
}
);
background = {
shapes = (
{
closed = 1;
nodes = (
(544,741,o),
(563,730,o),
(595,730,cs,{
"Letterink-NibData" = {
AngleInDegrees = "90";
};
}),
(691,730,o),
(805,816,o),
(806,899,cs),
(806,931,o),
(791,947,o),
(768,947,cs,{
"Letterink-NibData" = {
AngleInDegrees = "270";
};
}),
(746,947,o),
(730,933,o),
(727,912,cs,{
"Letterink-NibData" = {
AngleInDegrees = "188.01711";
};
}),
(717,841,o),
(668,801,o),
(578,795,cs,{
"Letterink-NibData" = {
AngleInDegrees = "266.18594";
};
}),
(563,794,o),
(544,780,o),
(544,760,cs,{
"Letterink-NibData" = {
AngleInDegrees = "180";
};
})
);
}
);
};
layerId = m01;
shapes = (
{
closed = 1;
nodes = (
(563,-13,o),
(700,106,o),
(753,284,c),
(874,290,o),
(987,338,o),
(1053,414,cs),
(1093,460,o),
(1022,532,o),
(977,480,cs),
(940,437,o),
(860,398,o),
(773,387,c),
(777,418,o),
(778,443,o),
(778,461,cs),
(778,611,o),
(718,731,o),
(583,731,cs),
(490,731,o),
(400,656,o),
(400,526,cs),
(400,404,o),
(506,312,o),
(649,289,c),
(604,156,o),
(513,87,o),
(400,87,cs),
(260,87,o),
(182,204,o),
(182,360,cs),
(182,575,o),
(313,730,o),
(528,757,cs),
(747,785,o),
(885,863,o),
(895,1015,cs),
(899,1079,o),
(798,1089,o),
(793,1021,cs),
(787,933,o),
(731,884,o),
(516,857,cs),
(279,827,o),
(80,623,o),
(80,360,cs),
(80,124,o),
(224,-13,o),
(400,-13,cs)
);
},
{
closed = 1;
nodes = (
(549,401,o),
(502,450,o),
(502,526,cs),
(502,574,o),
(524,631,o),
(583,631,cs),
(630,631,o),
(678,586,o),
(678,461,cs),
(678,444,o),
(677,418,o),
(672,387,c)
);
}
);
userData = {
com.hugojourdan.ColorFlow = {
"0" = 0;
"1" = 0;
"10" = 0;
"11" = 0;
"2" = 0;
"3" = 0;
"4" = 0;
"5" = 0;
"6" = 0;
"7" = 0;
"8" = 0;
"9" = 0;
};
};
width = 849;
}
);
metricLeft = O;
metricRight = O;
unicode = 416;
},
{
glyphname = OE;
kernLeft = O;
kernRight = E;
lastChange = "2025-09-24 09:57:13 +0000";
layers = (
{
anchors = (
{
name = bottom;
pos = (1278,-15);
},
{
name = center;
pos = (518,455);
},
{
name = ogonek;
pos = (1916,20);
},
{
name = top;
pos = (1709,921);
},
{
name = topright;
pos = (635,878);
}
);
layerId = m01;
shapes = (
{
closed = 1;
nodes = (
(680,-29,o),
(858,-30,o),
(974,-29,cs),
(1040,-28,o),
(1042,74,o),
(974,73,cs),
(865,72,o),
(705,71,o),
(616,68,c),
(622,134,o),
(635,223,o),
(659,356,c),
(745,360,o),
(914,359,o),
(1025,361,cs),
(1090,362,o),
(1089,464,o),
(1023,463,cs),
(921,461,o),
(773,461,o),
(678,457,c),
(741,782,l),
(1074,781,ls),
(1140,781,o),
(1141,883,o),
(1074,883,cs),
(715,882,l),
(698,888,o),
(680,886,o),
(667,875,c),
(620,884,o),
(569,887,o),
(516,880,cs),
(264,847,o),
(80,622,o),
(80,360,cs),
(80,129,o),
(222,-13,o),
(400,-13,cs),
(438,-13,o),
(474,-8,o),
(510,4,c),
(510,-1,ls),
(510,-54,o),
(576,-65,o),
(602,-32,c)
);
},
{
closed = 1;
nodes = (
(258,87,o),
(182,209,o),
(182,360,cs),
(182,576,o),
(327,754,o),
(528,780,cs),
(564,785,o),
(604,783,o),
(637,778,c),
(569,439,o),
(533,247,o),
(518,119,c),
(484,99,o),
(444,87,o),
(400,87,cs)
);
}
);
userData = {
com.hugojourdan.ColorFlow = {
"0" = 0;
"1" = 0;
"10" = 0;
"11" = 0;
"2" = 0;
"3" = 0;
"4" = 0;
"5" = 0;
"6" = 0;
"7" = 0;
"8" = 0;
"9" = 0;
};
};
width = 1164;
}
);
metricLeft = O;
unicode = 338;
},
{
glyphname = P;
kernLeft = P;
kernRight = P;
lastChange = "2025-09-24 09:57:13 +0000";
layers = (
{
background = {
shapes = (
{
closed = 0;
nodes = (
(498,240,l,{
"Letterink-NibData" = {
AngleInDegrees = "28";
MainAxisWidth = "64";
MinorAxisWidth = "64";
ValidForParentMainAxisWidth = "15";
ValidForParentMinorAxisWidth = "15";
};
"Letterink-NibStyleId" = "6";
}),
(680,222,o),
(833,339,o),
(833,492,cs,{
"Letterink-NibData" = {
AngleInDegrees = "28";
MainAxisWidth = "57";
MinorAxisWidth = "57";
ValidForParentMainAxisWidth = "15";
ValidForParentMinorAxisWidth = "15";
};
"Letterink-NibStyleId" = "8";
}),
(833,652,o),
(667,753,o),
(445,753,cs,{
"Letterink-NibData" = {
AngleInDegrees = "28";
MainAxisWidth = "64";
MinorAxisWidth = "64";
ValidForParentMainAxisWidth = "15";
ValidForParentMinorAxisWidth = "15";
};
"Letterink-NibStyleId" = "6";
}),
(216,753,o),
(51,645,o),
(51,507,cs,{
"Letterink-NibData" = {
AngleInDegrees = "28";
MainAxisWidth = "64";
MinorAxisWidth = "64";
ValidForParentMainAxisWidth = "15";
ValidForParentMinorAxisWidth = "15";
};
"Letterink-NibStyleId" = "6";
}),
(51,406,o),
(139,364,o),
(260,409,c,{
"Letterink-NibData" = {
AngleInDegrees = "28";
MainAxisWidth = "59";
MinorAxisWidth = "59";
ValidForParentMainAxisWidth = "15";
ValidForParentMinorAxisWidth = "15";
};
"Letterink-NibStyleId" = "7";
})
);
},
{
closed = 0;
nodes = (
(525,612,l,{
"Letterink-NibData" = {
AngleInDegrees = "28";
MainAxisWidth = "64";
MinorAxisWidth = "64";
ValidForParentMainAxisWidth = "15";
ValidForParentMinorAxisWidth = "15";
};
"Letterink-NibStyleId" = "6";
}),
(450,433,o),
(380,205,o),
(348,133,cs,{
"Letterink-NibData" = {
AngleInDegrees = "28";
MainAxisWidth = "64";
MinorAxisWidth = "64";
ValidForParentMainAxisWidth = "15";
ValidForParentMinorAxisWidth = "15";
};
"Letterink-NibStyleId" = "6";
}),
(309,45,o),
(245,10,o),
(173,10,cs,{
"Letterink-NibData" = {
AngleInDegrees = "28";
MainAxisWidth = "59";
MinorAxisWidth = "59";
ValidForParentMainAxisWidth = "15";
ValidForParentMinorAxisWidth = "15";
};
"Letterink-NibStyleId" = "7";
}),
(112,10,o),
(65,35,o),
(33,87,c,{
"Letterink-NibData" = {
AngleInDegrees = "28";
MainAxisWidth = "59";
MinorAxisWidth = "59";
ValidForParentMainAxisWidth = "15";
ValidForParentMinorAxisWidth = "15";
};
"Letterink-NibStyleId" = "7";
})
);
}
);
};
layerId = m01;
shapes = (
{
closed = 1;
nodes = (
(187,-67,o),
(257,13,o),
(318,225,cs),
(354,350,o),
(407,552,o),
(442,703,c),
(468,709,o),
(500,712,o),
(536,712,cs),
(641,712,o),
(727,652,o),
(727,541,cs),
(727,421,o),
(650,341,o),
(524,341,cs),
(503,341,o),
(481,343,o),
(450,348,cs),
(386,359,o),
(370,260,o),
(434,250,cs),
(467,244,o),
(495,241,o),
(524,241,cs),
(704,241,o),
(829,365,o),
(829,541,cs),
(829,692,o),
(719,812,o),
(536,812,cs),
(511,812,o),
(488,810,o),
(465,806,c),
(470,834,ls),
(482,898,o),
(382,918,o),
(370,852,cs),
(353,770,l),
(289,737,o),
(232,685,o),
(179,613,cs),
(141,562,o),
(219,499,o),
(259,553,cs),
(281,583,o),
(301,607,o),
(319,626,c),
(287,497,o),
(248,350,o),
(220,253,cs),
(158,38,o),
(123,33,o),
(88,33,cs),
(24,33,o),
(23,-67,o),
(88,-67,cs)
);
}
);
userData = {
com.hugojourdan.ColorFlow = {
"0" = 0;
"1" = 0;
"10" = 0;
"11" = 0;
"2" = 0;
"3" = 0;
"4" = 0;
"5" = 0;
"6" = 0;
"7" = 0;
"8" = 0;
"9" = 0;
};
};
width = 809;
}
);
metricLeft = P.ss03;
metricRight = "=P.ss03-30";
note = P;
unicode = 80;
},
{
glyphname = Thorn;
lastChange = "2025-09-24 09:57:13 +0000";
layers = (
{
layerId = m01;
shapes = (
{
closed = 1;
nodes = (
(140,32,o),
(144,79,o),
(148,137,c),
(275,139,o),
(524,190,o),
(524,378,cs),
(524,570,o),
(306,602,o),
(168,606,c),
(173,748,ls),
(176,809,o),
(80,817,o),
(77,752,cs),
(72,636,o),
(59,134,o),
(41,19,cs),
(31,-41,o),
(125,-59,o),
(135,3,cs)
);
},
{
closed = 1;
nodes = (
(165,509,l),
(307,504,o),
(428,462,o),
(428,378,cs),
(428,306,o),
(282,237,o),
(154,233,c)
);
}
);
userData = {
com.hugojourdan.ColorFlow = {
"0" = 0;
"1" = 0;
"10" = 0;
"11" = 0;
"2" = 0;
"3" = 0;
"4" = 0;
"5" = 0;
"6" = 0;
"7" = 0;
"8" = 0;
"9" = 0;
};
};
width = 564;
}
);
unicode = 222;
},
{
glyphname = Q;
kernLeft = Q;
kernRight = Q;
lastChange = "2025-09-24 09:57:13 +0000";
layers = (
{
anchors = (
{
name = bottom;
pos = (260,10);
},
{
name = center;
pos = (385,455);
},
{
name = ogonek;
pos = (-162,26);
},
{
name = top;
pos = (508,901);
},
{
name = topleft;
pos = (417,878);
}
);
background = {
anchors = (
{
name = bottom;
pos = (284,-22);
},
{
name = center;
pos = (420,462);
},
{
name = ogonek;
pos = (-174,-4);
},
{
name = top;
pos = (554,947);
},
{
name = topleft;
pos = (455,922);
}
);
shapes = (
{
closed = 0;
nodes = (
(369,855,l,{
"Letterink-NibData" = {
AngleInDegrees = "28";
MainAxisWidth = "65";
MinorAxisWidth = "65";
ValidForParentMainAxisWidth = "15";
ValidForParentMinorAxisWidth = "15";
};
"Letterink-NibStyleId" = "7";
}),
(423,871,o),
(493,878,o),
(557,870,cs,{
"Letterink-NibData" = {
AngleInDegrees = "28";
MainAxisWidth = "65";
MinorAxisWidth = "65";
ValidForParentMainAxisWidth = "15";
ValidForParentMinorAxisWidth = "15";
};
"Letterink-NibStyleId" = "7";
}),
(792,841,o),
(894,622,o),
(803,359,cs,{
"Letterink-NibData" = {
AngleInDegrees = "28";
MainAxisWidth = "69";
MinorAxisWidth = "69";
ValidForParentMainAxisWidth = "15";
ValidForParentMinorAxisWidth = "15";
};
"Letterink-NibStyleId" = "6";
}),
(730,148,o),
(569,8,o),
(399,8,cs,{
"Letterink-NibData" = {
AngleInDegrees = "28";
MainAxisWidth = "65";
MinorAxisWidth = "65";
ValidForParentMainAxisWidth = "15";
ValidForParentMinorAxisWidth = "15";
};
"Letterink-NibStyleId" = "7";
}),
(239,8,o),
(133,133,o),
(145,335,cs,{
"Letterink-NibData" = {
AngleInDegrees = "28";
MainAxisWidth = "65";
MinorAxisWidth = "65";
ValidForParentMainAxisWidth = "15";
ValidForParentMinorAxisWidth = "15";
};
"Letterink-NibStyleId" = "7";
}),
(157,542,o),
(288,744,o),
(487,744,c,{
"Letterink-NibData" = {
AngleInDegrees = "28";
MainAxisWidth = "65";
MinorAxisWidth = "65";
ValidForParentMainAxisWidth = "15";
ValidForParentMinorAxisWidth = "15";
};
"Letterink-NibStyleId" = "7";
})
);
},
{
closed = 0;
nodes = (
(254,55,l,{
"Letterink-NibData" = {
AngleInDegrees = "28";
MainAxisWidth = "57";
MinorAxisWidth = "57";
ValidForParentMainAxisWidth = "15";
ValidForParentMinorAxisWidth = "15";
};
"Letterink-NibStyleId" = "8";
}),
(225,166,o),
(269,243,o),
(355,243,cs,{
"Letterink-NibData" = {
AngleInDegrees = "28";
MainAxisWidth = "65";
MinorAxisWidth = "65";
ValidForParentMainAxisWidth = "15";
ValidForParentMinorAxisWidth = "15";
};
"Letterink-NibStyleId" = "7";
}),
(463,243,o),
(528,126,o),
(552,86,cs,{
"Letterink-NibData" = {
AngleInDegrees = "28";
MainAxisWidth = "69";
MinorAxisWidth = "69";
ValidForParentMainAxisWidth = "15";
ValidForParentMinorAxisWidth = "15";
};
"Letterink-NibStyleId" = "6";
}),
(610,-11,o),
(677,-69,o),
(752,-69,cs,{
"Letterink-NibData" = {
AngleInDegrees = "28";
MainAxisWidth = "65";
MinorAxisWidth = "65";
ValidForParentMainAxisWidth = "15";
ValidForParentMinorAxisWidth = "15";
};
"Letterink-NibStyleId" = "7";
}),
(807,-69,o),
(867,-38,o),
(934,35,cs,{
"Letterink-NibData" = {
AngleInDegrees = "28";
MainAxisWidth = "65";
MinorAxisWidth = "65";
ValidForParentMainAxisWidth = "15";
ValidForParentMinorAxisWidth = "15";
};
"Letterink-NibStyleId" = "7";
}),
(1012,120,o),
(1098,262,o),
(1203,486,c,{
"Letterink-NibData" = {
AngleInDegrees = "28";
MainAxisWidth = "65";
MinorAxisWidth = "65";
ValidForParentMainAxisWidth = "15";
ValidForParentMinorAxisWidth = "15";
};
"Letterink-NibStyleId" = "7";
})
);
}
);
};
layerId = m01;
shapes = (
{
closed = 1;
nodes = (
(761,-83,o),
(829,-43,o),
(895,28,cs),
(974,114,o),
(1053,248,o),
(1150,456,cs),
(1178,515,o),
(1087,556,o),
(1060,498,cs),
(965,295,o),
(886,166,o),
(821,96,cs),
(764,34,o),
(721,17,o),
(690,17,cs),
(664,17,o),
(631,34,o),
(598,70,c),
(679,133,o),
(745,230,o),
(784,344,cs),
(883,628,o),
(768,848,o),
(517,880,cs),
(451,888,o),
(382,881,o),
(325,865,cs),
(261,847,o),
(290,752,o),
(351,769,cs),
(395,781,o),
(453,787,o),
(505,780,cs),
(686,757,o),
(759,576,o),
(690,376,cs),
(657,281,o),
(601,204,o),
(539,154,c),
(509,206,o),
(448,304,o),
(325,304,cs),
(256,304,o),
(213,272,o),
(191,226,c),
(184,256,o),
(180,293,o),
(183,336,cs),
(193,507,o),
(301,643,o),
(447,643,cs),
(513,643,o),
(514,745,o),
(447,745,cs),
(222,745,o),
(93,539,o),
(81,342,cs),
(69,134,o),
(188,-13,o),
(366,-13,cs),
(416,-13,o),
(464,-3,o),
(508,16,c),
(557,-43,o),
(616,-83,o),
(690,-83,cs)
);
},
{
closed = 1;
nodes = (
(333,87,o),
(303,94,o),
(277,108,c),
(262,186,o),
(302,204,o),
(325,204,cs),
(375,204,o),
(423,144,o),
(450,103,c),
(421,92,o),
(393,87,o),
(366,87,cs)
);
}
);
userData = {
com.hugojourdan.ColorFlow = {
"0" = 0;
"1" = 0;
"10" = 0;
"11" = 0;
"2" = 0;
"3" = 0;
"4" = 0;
"5" = 0;
"6" = 0;
"7" = 0;
"8" = 0;
"9" = 0;
};
};
width = 940;
}
);
metricLeft = O.ss03;
note = Q;
unicode = 81;
},
{
glyphname = R;
kernLeft = R;
kernRight = R;
lastChange = "2025-09-24 09:57:13 +0000";
layers = (
{
anchors = (
{
name = bottom;
pos = (441,0);
},
{
name = top;
pos = (588,890);
}
);
background = {
shapes = (
{
closed = 1;
nodes = (
(716,-15,o),
(758,-4,o),
(797,18,cs),
(829,36,o),
(862,65,o),
(897,105,cs),
(904,113,o),
(906,118,o),
(906,125,cs),
(906,146,o),
(891,161,o),
(872,161,cs),
(863,161,o),
(854,158,o),
(846,149,cs),
(787,83,o),
(731,55,o),
(667,55,cs),
(612,55,o),
(558,75,o),
(515,115,cs),
(497,132,o),
(476,157,o),
(424,228,c),
(466,230,o),
(507,236,o),
(547,246,cs),
(586,256,o),
(627,271,o),
(664,291,cs),
(705,313,o),
(735,338,o),
(760,369,cs),
(788,404,o),
(807,443,o),
(816,482,cs),
(832,551,o),
(814,611,o),
(775,658,cs),
(732,710,o),
(661,749,o),
(576,771,cs),
(522,785,o),
(463,792,o),
(409,793,cs),
(356,794,o),
(298,790,o),
(240,778,cs),
(177,765,o),
(126,745,o),
(84,720,cs),
(38,693,o),
(-1,659,o),
(-25,624,cs),
(-45,595,o),
(-55,565,o),
(-55,533,cs),
(-55,519,o),
(-53,504,o),
(-47,486,cs),
(-42,470,o),
(-35,458,o),
(-27,448,cs),
(-7,424,o),
(29,407,o),
(60,404,cs),
(69,403,o),
(90,402,o),
(97,402,cs),
(109,402,o),
(119,402,o),
(127,403,cs),
(150,406,l),
(167,409,l),
(172,410,ls),
(177,411,o),
(179,413,o),
(182,417,cs),
(187,424,o),
(189,431,o),
(189,439,cs),
(189,451,o),
(184,462,o),
(176,471,cs),
(172,476,o),
(168,477,o),
(162,475,cs),
(159,474,l),
(145,471,l),
(127,468,ls),
(121,467,o),
(112,466,o),
(102,466,cs),
(75,466,o),
(48,474,o),
(33,489,cs),
(22,500,o),
(20,513,o),
(20,523,cs),
(20,535,o),
(23,551,o),
(29,565,cs),
(36,582,o),
(47,597,o),
(60,611,cs),
(75,627,o),
(93,641,o),
(114,654,cs),
(145,673,o),
(181,688,o),
(223,698,cs),
(268,709,o),
(327,717,o),
(377,718,cs),
(431,719,o),
(501,712,o),
(556,698,cs),
(638,677,o),
(690,640,o),
(718,605,cs),
(745,571,o),
(754,533,o),
(747,494,cs),
(741,460,o),
(722,427,o),
(695,399,cs),
(668,371,o),
(633,349,o),
(596,333,cs),
(561,318,o),
(520,305,o),
(479,297,cs),
(439,289,o),
(401,285,o),
(366,285,c),
(344,296,o),
(322,306,o),
(299,314,c),
(364,601,ls),
(370,625,o),
(351,648,o),
(327,648,cs),
(308,648,o),
(293,635,o),
(289,618,cs),
(223,329,l),
(194,329,ls),
(177,329,o),
(160,323,o),
(149,312,cs),
(139,302,o),
(137,290,o),
(138,279,cs),
(140,265,o),
(146,258,o),
(156,251,cs),
(167,243,o),
(183,236,o),
(201,231,c),
(159,47,ls),
(154,23,o),
(172,0,o),
(196,0,cs),
(214,0,o),
(230,13,o),
(234,30,cs),
(277,217,l),
(299,215,o),
(321,215,o),
(342,216,c),
(352,204,o),
(367,185,o),
(386,159,cs),
(403,136,o),
(416,117,o),
(429,102,cs),
(440,89,o),
(455,73,o),
(472,57,cs),
(490,40,o),
(507,27,o),
(525,18,cs),
(541,10,o),
(562,2,o),
(587,-5,cs),
(613,-12,o),
(639,-15,o),
(665,-15,cs)
);
}
);
};
layerId = m01;
shapes = (
{
closed = 1;
nodes = (
(749,-45,o),
(818,2,o),
(879,76,cs),
(947,159,o),
(1014,282,o),
(1090,455,cs),
(1115,513,o),
(1025,556,o),
(998,495,cs),
(924,326,o),
(859,210,o),
(801,140,cs),
(749,76,o),
(707,55,o),
(668,55,cs),
(621,55,o),
(568,102,o),
(535,351,c),
(548,351,ls),
(721,351,o),
(853,490,o),
(853,642,cs),
(853,822,o),
(727,886,o),
(556,886,cs),
(530,886,o),
(505,884,o),
(481,880,c),
(485,938,o),
(392,957,o),
(380,892,cs),
(371,847,l),
(297,813,o),
(237,761,o),
(190,702,cs),
(150,652,o),
(228,590,o),
(268,640,cs),
(290,667,o),
(314,692,o),
(340,713,c),
(286,493,o),
(206,213,o),
(203,203,cs),
(174,109,o),
(112,65,o),
(70,65,cs),
(4,65,o),
(3,-37,o),
(70,-37,cs),
(186,-37,o),
(264,54,o),
(301,173,cs),
(303,180,o),
(331,278,o),
(365,403,c),
(377,384,o),
(402,372,o),
(433,364,c),
(464,106,o),
(519,-45,o),
(668,-45,cs)
);
},
{
closed = 1;
nodes = (
(483,467,o),
(417,478,o),
(381,462,c),
(409,567,o),
(438,681,o),
(459,774,c),
(490,782,o),
(521,786,o),
(556,786,cs),
(692,786,o),
(751,734,o),
(751,642,cs),
(751,541,o),
(665,461,o),
(567,452,cs),
(561,452,l),
(540,451,l),
(507,451,l),
(507,451,l)
);
}
);
userData = {
com.hugojourdan.ColorFlow = {
"0" = 0;
"1" = 0;
"10" = 0;
"11" = 0;
"2" = 0;
"3" = 0;
"4" = 0;
"5" = 0;
"6" = 0;
"7" = 0;
"8" = 0;
"9" = 0;
};
};
width = 881;
}
);
metricLeft = R.ss03;
note = R;
unicode = 82;
},
{
glyphname = S;
kernLeft = S;
kernRight = S;
lastChange = "2025-09-24 09:57:13 +0000";
layers = (
{
anchors = (
{
name = bottom;
pos = (641,0);
},
{
name = top;
pos = (481,890);
}
);
background = {
shapes = (
{
closed = 1;
nodes = (
(798,241,o),
(787,252,o),
(773,252,cs),
(767,252,o),
(760,250,o),
(755,245,cs),
(735,224,ls),
(667,157,o),
(590,122,o),
(505,103,c),
(512,125,o),
(514,148,o),
(514,172,cs),
(514,386,o),
(216,403,o),
(216,540,cs),
(216,637,o),
(337,740,o),
(479,740,cs),
(575,740,o),
(622,685,o),
(622,614,cs),
(622,578,o),
(610,538,o),
(586,499,cs),
(583,494,o),
(582,491,o),
(582,486,cs),
(582,472,o),
(595,460,o),
(608,460,cs),
(616,460,o),
(623,463,o),
(629,472,cs),
(656,516,o),
(671,566,o),
(671,614,cs),
(671,708,o),
(613,791,o),
(479,791,cs),
(321,791,o),
(165,676,o),
(165,540,cs),
(165,363,o),
(464,354,o),
(464,172,cs),
(464,143,o),
(459,118,o),
(449,93,c),
(398,85,o),
(344,83,o),
(290,81,cs),
(123,79,o),
(41,42,o),
(41,-29,cs),
(41,-98,o),
(108,-132,o),
(168,-132,cs),
(296,-132,o),
(425,-63,o),
(483,46,c),
(588,65,o),
(685,104,o),
(770,189,cs),
(790,209,ls),
(795,214,o),
(798,221,o),
(798,227,cs)
);
},
{
closed = 1;
nodes = (
(361,-38,o),
(262,-82,o),
(168,-82,cs),
(119,-82,o),
(91,-57,o),
(91,-29,cs),
(91,-11,o),
(110,27,o),
(290,31,cs),
(334,32,o),
(376,34,o),
(418,37,c)
);
}
);
};
layerId = m01;
shapes = (
{
closed = 1;
nodes = (
(432,-184,o),
(574,-31,o),
(603,112,c),
(751,168,o),
(865,285,o),
(949,457,cs),
(977,515,o),
(887,559,o),
(859,501,cs),
(786,351,o),
(709,263,o),
(604,216,c),
(581,334,o),
(475,385,o),
(404,430,cs),
(294,500,o),
(260,536,o),
(260,606,cs),
(260,727,o),
(345,791,o),
(460,791,cs),
(604,791,o),
(661,746,o),
(588,624,cs),
(555,569,o),
(640,515,o),
(674,572,cs),
(775,742,o),
(708,891,o),
(460,891,cs),
(271,891,o),
(158,767,o),
(158,606,cs),
(158,482,o),
(243,412,o),
(350,344,cs),
(431,292,o),
(495,251,o),
(506,186,c),
(479,181,o),
(449,177,o),
(419,175,cs),
(214,161,o),
(40,114,o),
(40,-34,cs),
(40,-137,o),
(130,-184,o),
(233,-184,cs)
);
},
{
closed = 1;
nodes = (
(153,-84,o),
(140,-58,o),
(140,-34,cs),
(140,5,o),
(184,59,o),
(425,75,cs),
(447,77,o),
(468,79,o),
(487,82,c),
(445,-9,o),
(343,-84,o),
(233,-84,cs)
);
}
);
userData = {
com.hugojourdan.ColorFlow = {
"0" = 0;
"1" = 0;
"10" = 0;
"11" = 0;
"2" = 0;
"3" = 0;
"4" = 0;
"5" = 0;
"6" = 0;
"7" = 0;
"8" = 0;
"9" = 0;
};
};
width = 734;
}
);
metricLeft = S.ss03;
note = S;
unicode = 83;
},
{
glyphname = Germandbls;
lastChange = "2025-09-24 09:57:13 +0000";
layers = (
{
layerId = m01;
shapes = (
{
closed = 1;
nodes = (
(431,-66,o),
(599,68,o),
(613,232,cs),
(624,363,o),
(537,442,o),
(422,479,c),
(601,730,ls),
(621,758,o),
(609,796,o),
(573,805,cs),
(459,832,o),
(248,811,o),
(131,798,cs),
(69,791,o),
(80,696,o),
(141,702,c),
(120,531,o),
(72,127,o),
(46,23,cs),
(32,-36,o),
(124,-63,o),
(140,-1,cs),
(170,122,o),
(220,557,o),
(239,712,c),
(317,718,o),
(406,722,o),
(476,719,c),
(303,477,ls),
(283,449,o),
(297,408,o),
(334,402,cs),
(456,382,o),
(524,320,o),
(517,240,cs),
(508,135,o),
(387,33,o),
(267,41,cs),
(205,45,o),
(198,-51,o),
(261,-55,cs)
);
}
);
userData = {
com.hugojourdan.ColorFlow = {
"0" = 0;
"1" = 0;
"10" = 0;
"11" = 0;
"2" = 0;
"3" = 0;
"4" = 0;
"5" = 0;
"6" = 0;
"7" = 0;
"8" = 0;
"9" = 0;
};
};
width = 649;
}
);
unicode = 7838;
},
{
glyphname = T;
kernLeft = T;
kernRight = T;
lastChange = "2025-09-24 09:57:13 +0000";
layers = (
{
anchors = (
{
name = bottom;
pos = (363,0);
},
{
name = center;
pos = (363,375);
},
{
name = top;
pos = (670,950);
}
);
background = {
shapes = (
{
closed = 0;
nodes = (
(1026,851,l,{
"Letterink-NibData" = {
AngleInDegrees = "28";
MainAxisWidth = "85";
MinorAxisWidth = "85";
ValidForParentMainAxisWidth = "15";
ValidForParentMinorAxisWidth = "15";
};
"Letterink-NibStyleId" = "7";
}),
(776,825,o),
(711,859,o),
(453,859,cs,{
"Letterink-NibData" = {
AngleInDegrees = "28";
MainAxisWidth = "85";
MinorAxisWidth = "85";
ValidForParentMainAxisWidth = "15";
ValidForParentMinorAxisWidth = "15";
};
"Letterink-NibStyleId" = "7";
}),
(265,859,o),
(92,753,o),
(92,623,cs,{
"Letterink-NibData" = {
AngleInDegrees = "28";
MainAxisWidth = "85";
MinorAxisWidth = "85";
ValidForParentMainAxisWidth = "15";
ValidForParentMinorAxisWidth = "15";
};
"Letterink-NibStyleId" = "7";
}),
(92,536,o),
(171,501,o),
(280,541,c,{
"Letterink-NibData" = {
AngleInDegrees = "28";
MainAxisWidth = "85";
MinorAxisWidth = "85";
ValidForParentMainAxisWidth = "15";
ValidForParentMinorAxisWidth = "15";
};
"Letterink-NibStyleId" = "7";
})
);
},
{
closed = 0;
nodes = (
(689,822,l,{
"Letterink-NibData" = {
AngleInDegrees = "28";
MainAxisWidth = "87";
MinorAxisWidth = "87";
ValidForParentMainAxisWidth = "15";
ValidForParentMinorAxisWidth = "15";
};
"Letterink-NibStyleId" = "6";
}),
(571,631,o),
(522,290,o),
(461,154,cs,{
"Letterink-NibData" = {
AngleInDegrees = "28";
MainAxisWidth = "87";
MinorAxisWidth = "87";
ValidForParentMainAxisWidth = "15";
ValidForParentMinorAxisWidth = "15";
};
"Letterink-NibStyleId" = "6";
}),
(420,63,o),
(348,20,o),
(268,20,cs,{
"Letterink-NibData" = {
AngleInDegrees = "28";
MainAxisWidth = "85";
MinorAxisWidth = "85";
ValidForParentMainAxisWidth = "15";
ValidForParentMinorAxisWidth = "15";
};
"Letterink-NibStyleId" = "7";
}),
(203,20,o),
(151,49,o),
(117,105,c,{
"Letterink-NibData" = {
AngleInDegrees = "28";
MainAxisWidth = "85";
MinorAxisWidth = "85";
ValidForParentMainAxisWidth = "15";
ValidForParentMinorAxisWidth = "15";
};
"Letterink-NibStyleId" = "7";
})
);
}
);
};
layerId = m01;
shapes = (
{
closed = 1;
nodes = (
(477,195,o),
(572,651,o),
(676,861,c),
(860,857,o),
(917,866,o),
(1040,903,cs),
(1100,921,o),
(1075,1018,o),
(1012,999,cs),
(872,957,o),
(857,954,o),
(590,964,cs),
(305,974,o),
(66,930,o),
(42,757,cs),
(25,628,o),
(131,546,o),
(288,572,cs),
(351,582,o),
(337,681,o),
(272,670,cs),
(184,656,o),
(135,696,o),
(142,743,cs),
(150,804,o),
(275,872,o),
(565,865,c),
(458,621,o),
(376,210,o),
(341,49,cs),
(327,-15,o),
(427,-38,o),
(441,27,cs)
);
}
);
userData = {
com.hugojourdan.ColorFlow = {
"0" = 0;
"1" = 0;
"10" = 0;
"11" = 0;
"2" = 0;
"3" = 0;
"4" = 0;
"5" = 0;
"6" = 0;
"7" = 0;
"8" = 0;
"9" = 0;
};
};
width = 725;
}
);
metricLeft = T.ss03;
note = T;
unicode = 84;
},
{
glyphname = U;
kernLeft = U;
kernRight = U;
lastChange = "2025-09-24 09:57:13 +0000";
layers = (
{
anchors = (
{
name = bottom;
pos = (333,-15);
},
{
name = ogonek;
pos = (1022,-8);
},
{
name = top;
pos = (499,922);
},
{
name = topright;
pos = (698,870);
}
);
background = {
shapes = (
{
closed = 1;
nodes = (
(557,-62,o),
(617,-32,o),
(687,40,cs),
(693,46,o),
(697,54,o),
(697,63,cs),
(697,81,o),
(682,95,o),
(664,95,cs),
(656,95,o),
(648,92,o),
(642,87,cs),
(635,81,o),
(625,70,o),
(601,52,cs),
(582,38,o),
(568,29,o),
(553,24,cs),
(536,18,o),
(524,20,o),
(515,25,cs),
(504,31,o),
(495,41,o),
(487,59,cs),
(472,93,o),
(467,140,o),
(472,205,cs),
(475,243,o),
(481,284,o),
(495,353,cs),
(507,411,o),
(518,460,o),
(529,500,cs),
(546,562,o),
(555,594,o),
(572,653,cs),
(605,769,o),
(576,663,o),
(594,729,cs),
(600,751,o),
(583,775,o),
(558,775,cs),
(547,775,o),
(530,770,o),
(523,748,cs),
(518,732,o),
(445,471,o),
(375,294,cs),
(351,233,o),
(324,175,o),
(293,132,cs),
(261,88,o),
(229,65,o),
(193,65,cs),
(119,65,o),
(105,160,o),
(150,333,cs),
(157,359,o),
(167,395,o),
(182,448,cs),
(193,487,o),
(196,496,o),
(209,545,cs),
(215,568,o),
(221,592,o),
(223,616,cs),
(228,666,o),
(219,707,o),
(181,742,cs),
(144,776,o),
(96,791,o),
(39,791,cs),
(-24,791,o),
(-94,773,o),
(-153,736,cs),
(-209,701,o),
(-250,652,o),
(-266,596,cs),
(-282,541,o),
(-270,492,o),
(-254,459,cs),
(-234,418,o),
(-199,386,o),
(-151,371,cs),
(-123,362,o),
(-90,358,o),
(-59,359,cs),
(-28,360,o),
(-3,366,o),
(1,367,cs),
(24,373,o),
(30,383,o),
(30,398,cs),
(30,411,o),
(25,420,o),
(17,433,cs),
(13,439,o),
(7,437,o),
(5,437,cs),
(1,437,o),
(2,437,o),
(0,437,cs),
(-18,434,l),
(-42,431,ls),
(-50,430,o),
(-53,430,o),
(-67,430,cs),
(-118,430,o),
(-155,444,o),
(-178,471,cs),
(-201,498,o),
(-207,536,o),
(-196,576,cs),
(-183,623,o),
(-150,655,o),
(-109,678,cs),
(-71,699,o),
(-19,716,o),
(29,720,cs),
(79,724,o),
(106,711,o),
(122,697,cs),
(145,677,o),
(150,649,o),
(149,620,cs),
(148,595,o),
(143,568,o),
(137,545,cs),
(132,527,o),
(119,481,o),
(107,439,cs),
(96,402,o),
(87,375,o),
(77,338,cs),
(69,308,o),
(65,292,o),
(56,250,cs),
(50,221,o),
(48,209,o),
(46,172,cs),
(44,135,o),
(44,121,o),
(50,97,cs),
(56,71,o),
(66,51,o),
(77,36,cs),
(91,17,o),
(110,1,o),
(133,-10,cs),
(184,-34,o),
(234,-22,o),
(282,20,cs),
(330,62,o),
(371,129,o),
(399,204,c),
(389,133,o),
(396,72,o),
(415,27,cs),
(434,-18,o),
(466,-49,o),
(507,-55,cs)
);
}
);
};
layerId = m01;
shapes = (
{
closed = 1;
nodes = (
(741,-39,o),
(806,7,o),
(861,83,cs),
(919,164,o),
(989,286,o),
(1058,460,cs),
(1081,517,o),
(991,560,o),
(966,496,cs),
(899,329,o),
(832,214,o),
(779,141,cs),
(732,76,o),
(699,61,o),
(668,61,cs),
(608,61,o),
(593,105,o),
(631,278,cs),
(747,812,ls),
(759,868,o),
(678,897,o),
(653,845,cs),
(545,619,o),
(444,428,o),
(323,246,cs),
(211,76,o),
(172,64,o),
(161,67,cs),
(144,72,o),
(126,131,o),
(174,319,cs),
(308,844,ls),
(325,907,o),
(228,931,o),
(212,868,cs),
(167,695,o),
(120,519,o),
(76,345,cs),
(38,197,o),
(-11,14,o),
(133,-29,cs),
(240,-61,o),
(307,39,o),
(407,190,cs),
(463,275,o),
(515,362,o),
(565,452,c),
(531,300,ls),
(484,86,o),
(502,-39,o),
(668,-39,cs)
);
}
);
userData = {
com.hugojourdan.ColorFlow = {
"0" = 0;
"1" = 0;
"10" = 0;
"11" = 0;
"2" = 0;
"3" = 0;
"4" = 0;
"5" = 0;
"6" = 0;
"7" = 0;
"8" = 0;
"9" = 0;
};
};
width = 842;
}
);
metricLeft = U.ss03;
note = U;
unicode = 85;
},
{
glyphname = V;
kernLeft = V;
kernRight = V;
lastChange = "2025-09-24 09:57:13 +0000";
layers = (
{
background = {
hints = (
{
horizontal = 1;
place = (722,69);
type = Stem;
},
{
horizontal = 1;
place = (360,70);
type = Stem;
},
{
horizontal = 1;
place = (2,21);
target = up;
type = BottomGhost;
},
{
place = (751,67);
type = Stem;
},
{
place = (420,83);
type = Stem;
},
{
place = (4,66);
type = Stem;
}
);
shapes = (
{
closed = 1;
nodes = (
(490,88,o),
(476,76,o),
(491,89,cs),
(552,143,o),
(551,142,o),
(578,167,cs),
(616,202,o),
(639,224,o),
(658,245,cs),
(675,264,o),
(695,287,o),
(719,315,cs),
(742,342,o),
(760,367,o),
(773,390,cs),
(785,412,o),
(798,441,o),
(806,462,cs),
(816,488,o),
(824,521,o),
(828,545,cs),
(837,600,o),
(833,661,o),
(821,704,cs),
(808,750,o),
(786,787,o),
(745,835,cs),
(739,842,o),
(728,847,o),
(718,847,cs),
(699,847,o),
(683,831,o),
(683,811,cs),
(683,804,o),
(685,796,o),
(692,788,cs),
(724,752,o),
(744,720,o),
(755,685,cs),
(767,648,o),
(770,607,o),
(765,565,cs),
(760,523,o),
(747,483,o),
(732,450,cs),
(714,411,o),
(687,373,o),
(660,340,cs),
(628,301,o),
(580,253,o),
(557,231,cs),
(521,197,o),
(474,156,o),
(417,107,c),
(513,582,ls),
(519,612,o),
(518,644,o),
(510,672,cs),
(503,697,o),
(490,720,o),
(474,737,cs),
(442,771,o),
(385,791,o),
(323,791,cs),
(262,791,o),
(193,772,o),
(136,736,cs),
(79,700,o),
(41,651,o),
(25,598,cs),
(8,542,o),
(19,491,o),
(36,456,cs),
(55,417,o),
(89,384,o),
(138,369,cs),
(164,361,o),
(191,359,o),
(213,359,cs),
(235,359,o),
(270,361,o),
(291,367,cs),
(309,372,o),
(320,380,o),
(320,400,cs),
(320,414,o),
(314,423,o),
(306,434,cs),
(303,438,o),
(299,438,o),
(293,438,cs),
(291,438,o),
(289,437,o),
(287,437,cs),
(268,434,l),
(244,431,ls),
(236,430,o),
(232,430,o),
(218,430,cs),
(167,430,o),
(130,444,o),
(107,472,cs),
(84,500,o),
(78,540,o),
(89,579,cs),
(101,622,o),
(129,653,o),
(171,678,cs),
(210,701,o),
(260,718,o),
(307,722,cs),
(353,726,o),
(394,717,o),
(416,690,cs),
(435,667,o),
(439,630,o),
(429,582,cs),
(325,70,ls),
(319,38,o),
(342,7,o),
(376,7,cs),
(389,7,o),
(401,12,o),
(410,20,cs)
);
}
);
};
layerId = m01;
shapes = (
{
closed = 1;
nodes = (
(609,-18,o),
(725,115,o),
(827,327,cs),
(934,550,o),
(942,768,o),
(834,947,cs),
(802,1000,o),
(713,953,o),
(748,895,cs),
(836,750,o),
(836,577,o),
(737,371,cs),
(639,167,o),
(527,82,o),
(450,82,cs),
(413,82,o),
(379,145,o),
(388,250,cs),
(400,389,o),
(467,593,o),
(548,731,cs),
(562,754,o),
(568,779,o),
(528,800,cs),
(458,837,o),
(388,857,o),
(315,854,cs),
(176,849,o),
(40,765,o),
(40,622,cs),
(40,526,o),
(96,440,o),
(197,412,cs),
(258,395,o),
(287,490,o),
(223,508,cs),
(195,516,o),
(140,578,o),
(140,622,cs),
(140,695,o),
(209,750,o),
(319,754,cs),
(356,755,o),
(394,749,o),
(435,733,c),
(358,586,o),
(299,404,o),
(286,258,cs),
(271,82,o),
(319,-18,o),
(450,-18,cs)
);
}
);
userData = {
com.hugojourdan.ColorFlow = {
"0" = 0;
"1" = 0;
"10" = 0;
"11" = 0;
"2" = 0;
"3" = 0;
"4" = 0;
"5" = 0;
"6" = 0;
"7" = 0;
"8" = 0;
"9" = 0;
};
};
width = 901;
}
);
metricLeft = V.ss03;
metricRight = V.ss03;
note = V;
unicode = 86;
},
{
glyphname = W;
kernLeft = W;
kernRight = W;
lastChange = "2025-09-24 09:57:13 +0000";
layers = (
{
anchors = (
{
name = bottom;
pos = (622,0);
},
{
name = top;
pos = (783,890);
}
);
background = {
shapes = (
{
closed = 1;
nodes = (
(819,-20,o),
(889,10,o),
(947,69,cs),
(1005,128,o),
(1038,200,o),
(1054,277,cs),
(1069,349,o),
(1069,428,o),
(1052,499,cs),
(1036,565,o),
(1005,623,o),
(955,686,cs),
(948,695,o),
(938,699,o),
(928,699,cs),
(908,699,o),
(892,683,o),
(892,664,cs),
(892,655,o),
(896,646,o),
(900,641,cs),
(904,636,o),
(892,653,o),
(918,618,cs),
(927,605,o),
(937,590,o),
(949,570,cs),
(960,551,o),
(968,533,o),
(974,515,cs),
(980,497,o),
(985,479,o),
(989,454,cs),
(993,431,o),
(994,415,o),
(993,383,cs),
(992,355,o),
(990,332,o),
(983,299,cs),
(971,244,o),
(951,189,o),
(915,142,cs),
(879,95,o),
(836,69,o),
(796,60,cs),
(773,55,o),
(751,56,o),
(733,62,cs),
(710,69,o),
(695,84,o),
(686,97,cs),
(654,143,o),
(650,223,o),
(671,328,cs),
(682,383,ls),
(684,393,o),
(690,417,o),
(694,432,cs),
(698,446,o),
(702,459,o),
(706,470,cs),
(713,490,ls),
(714,494,o),
(715,498,o),
(713,503,cs),
(709,517,o),
(693,538,o),
(665,538,cs),
(647,538,o),
(632,530,o),
(627,514,c),
(394,190,l),
(472,370,ls),
(485,400,o),
(506,454,o),
(520,493,cs),
(538,543,o),
(545,573,o),
(547,601,cs),
(550,648,o),
(539,692,o),
(504,728,cs),
(466,767,o),
(409,787,o),
(348,791,cs),
(267,796,o),
(198,771,o),
(154,746,cs),
(98,714,o),
(63,670,o),
(48,619,cs),
(32,565,o),
(41,511,o),
(58,473,cs),
(80,424,o),
(117,396,o),
(159,383,cs),
(201,370,o),
(251,370,o),
(313,382,cs),
(329,385,o),
(342,399,o),
(342,415,cs),
(342,432,o),
(328,455,o),
(300,451,cs),
(286,449,o),
(267,443,o),
(236,443,cs),
(189,443,o),
(154,456,o),
(132,484,cs),
(110,512,o),
(102,555,o),
(114,596,cs),
(122,623,o),
(138,648,o),
(163,668,cs),
(189,689,o),
(221,703,o),
(256,710,cs),
(291,717,o),
(326,717,o),
(356,712,cs),
(386,707,o),
(417,696,o),
(437,678,cs),
(457,660,o),
(465,634,o),
(462,600,cs),
(458,551,o),
(431,463,o),
(376,325,cs),
(331,212,o),
(288,114,o),
(268,66,cs),
(266,61,o),
(264,57,o),
(264,49,cs),
(264,24,o),
(284,4,o),
(308,4,cs),
(323,4,o),
(335,11,o),
(343,22,cs),
(611,378,l),
(573,203,o),
(579,105,o),
(622,46,cs),
(652,5,o),
(702,-20,o),
(758,-20,cs)
);
}
);
};
layerId = m01;
shapes = (
{
closed = 1;
nodes = (
(869,-18,o),
(946,37,o),
(1022,117,cs),
(1144,245,o),
(1254,448,o),
(1254,661,cs),
(1254,758,o),
(1230,858,o),
(1171,948,cs),
(1136,1001,o),
(1051,949,o),
(1087,894,cs),
(1134,822,o),
(1154,742,o),
(1154,661,cs),
(1154,484,o),
(1055,297,o),
(950,187,cs),
(884,118,o),
(811,82,o),
(783,82,cs),
(763,82,o),
(742,95,o),
(742,179,cs),
(742,325,o),
(816,595,o),
(878,736,cs),
(903,793,o),
(813,837,o),
(786,776,cs),
(726,640,o),
(604,355,o),
(512,219,cs),
(452,131,o),
(396,103,o),
(360,103,cs),
(303,103,o),
(302,156,o),
(302,199,cs),
(302,334,o),
(423,605,o),
(541,720,cs),
(565,743,o),
(561,784,o),
(529,801,cs),
(461,837,o),
(395,854,o),
(326,854,cs),
(140,854,o),
(40,740,o),
(40,618,cs),
(40,537,o),
(81,460,o),
(154,425,cs),
(212,397,o),
(258,486,o),
(198,515,cs),
(167,530,o),
(140,571,o),
(140,618,cs),
(140,714,o),
(238,754,o),
(326,754,cs),
(359,754,o),
(388,749,o),
(420,738,c),
(296,588,o),
(200,359,o),
(200,199,cs),
(200,62,o),
(277,3,o),
(360,3,cs),
(448,3,o),
(525,61,o),
(594,163,cs),
(610,186,o),
(627,214,o),
(643,242,c),
(641,220,o),
(640,199,o),
(640,179,cs),
(640,89,o),
(669,-18,o),
(783,-18,cs)
);
}
);
userData = {
com.hugojourdan.ColorFlow = {
"0" = 0;
"1" = 0;
"10" = 0;
"11" = 0;
"2" = 0;
"3" = 0;
"4" = 0;
"5" = 0;
"6" = 0;
"7" = 0;
"8" = 0;
"9" = 0;
};
};
width = 1244;
}
);
metricLeft = W.ss03;
metricRight = W.ss03;
note = W;
unicode = 87;
},
{
glyphname = X;
kernLeft = X;
kernRight = X;
lastChange = "2025-09-24 09:57:13 +0000";
layers = (
{
background = {
shapes = (
{
closed = 0;
nodes = (
(264,-22,l,{
"Letterink-NibData" = {
AngleInDegrees = "28";
MainAxisWidth = "69";
MinorAxisWidth = "69";
ValidForParentMainAxisWidth = "15";
ValidForParentMinorAxisWidth = "15";
};
"Letterink-NibStyleId" = "6";
}),
(467,287,o),
(759,640,o),
(978,864,cs,{
"Letterink-NibData" = {
AngleInDegrees = "28";
MainAxisWidth = "69";
MinorAxisWidth = "69";
ValidForParentMainAxisWidth = "15";
ValidForParentMinorAxisWidth = "15";
};
"Letterink-NibStyleId" = "6";
})
);
},
{
closed = 0;
nodes = (
(481,824,l,{
"Letterink-NibData" = {
AngleInDegrees = "28";
MainAxisWidth = "69";
MinorAxisWidth = "69";
ValidForParentMainAxisWidth = "15";
ValidForParentMinorAxisWidth = "15";
};
"Letterink-NibStyleId" = "6";
}),
(601,212,ls,{
"Letterink-NibData" = {
AngleInDegrees = "28";
MainAxisWidth = "69";
MinorAxisWidth = "69";
ValidForParentMainAxisWidth = "15";
ValidForParentMinorAxisWidth = "15";
};
"Letterink-NibStyleId" = "6";
}),
(630,68,o),
(665,-7,o),
(745,-7,cs,{
"Letterink-NibData" = {
AngleInDegrees = "28";
MainAxisWidth = "65";
MinorAxisWidth = "65";
ValidForParentMainAxisWidth = "15";
ValidForParentMinorAxisWidth = "15";
};
"Letterink-NibStyleId" = "7";
}),
(878,-7,o),
(993,141,o),
(1125,484,c,{
"Letterink-NibData" = {
AngleInDegrees = "28";
MainAxisWidth = "65";
MinorAxisWidth = "65";
ValidForParentMainAxisWidth = "15";
ValidForParentMinorAxisWidth = "15";
};
"Letterink-NibStyleId" = "7";
})
);
}
);
};
layerId = m01;
shapes = (
{
closed = 1;
nodes = (
(262,-15,o),
(403,83,o),
(489,219,c),
(503,74,o),
(567,-38,o),
(702,-38,cs),
(773,-38,o),
(842,-2,o),
(899,56,cs),
(980,139,o),
(1055,283,o),
(1141,454,cs),
(1170,512,o),
(1080,556,o),
(1051,498,cs),
(967,331,o),
(889,189,o),
(827,126,cs),
(787,85,o),
(735,62,o),
(702,62,cs),
(637,62,o),
(577,131,o),
(590,327,cs),
(607,595,o),
(770,740,o),
(991,719,cs),
(1057,713,o),
(1066,815,o),
(1001,821,cs),
(822,838,o),
(676,770,o),
(585,638,c),
(565,749,o),
(496,822,o),
(370,822,cs),
(287,822,o),
(214,776,o),
(176,704,cs),
(145,645,o),
(235,597,o),
(266,656,cs),
(286,694,o),
(327,720,o),
(370,720,cs),
(492,720,o),
(546,608,o),
(442,349,cs),
(382,200,o),
(243,85,o),
(80,53,cs),
(14,40,o),
(34,-60,o),
(100,-47,cs)
);
}
);
userData = {
com.hugojourdan.ColorFlow = {
"0" = 0;
"1" = 0;
"10" = 0;
"11" = 0;
"2" = 0;
"3" = 0;
"4" = 0;
"5" = 0;
"6" = 0;
"7" = 0;
"8" = 0;
"9" = 0;
};
};
width = 932;
}
);
metricLeft = X.ss03;
note = X;
unicode = 88;
},
{
glyphname = Y;
kernLeft = Y;
kernRight = Y;
lastChange = "2025-09-24 09:57:13 +0000";
layers = (
{
anchors = (
{
name = bottom;
pos = (1019,132);
},
{
name = top;
pos = (679,922);
}
);
background = {
hints = (
{
horizontal = 1;
place = (719,70);
type = Stem;
},
{
horizontal = 1;
place = (355,70);
type = Stem;
},
{
horizontal = 1;
place = (100,81);
type = Stem;
},
{
horizontal = 1;
place = (-283,72);
type = Stem;
},
{
place = (438,75);
type = Stem;
},
{
place = (362,73);
type = Stem;
},
{
place = (175,74);
type = Stem;
},
{
place = (18,71);
type = Stem;
}
);
shapes = (
{
closed = 1;
nodes = (
(470,-282,o),
(510,-278,o),
(550,-263,cs),
(645,-227,o),
(703,-140,o),
(736,16,cs),
(886,730,ls),
(890,751,o),
(874,772,o),
(852,772,cs),
(840,772,o),
(825,766,o),
(818,746,cs),
(815,737,o),
(784,620,o),
(702,417,cs),
(688,383,o),
(677,357,o),
(671,343,cs),
(658,315,o),
(649,297,o),
(641,282,cs),
(627,256,o),
(616,240,o),
(603,227,cs),
(591,215,o),
(576,204,o),
(558,195,cs),
(540,186,o),
(520,181,o),
(498,181,cs),
(417,181,o),
(392,249,o),
(420,370,cs),
(429,410,o),
(441,445,o),
(456,491,cs),
(476,554,o),
(484,587,o),
(487,614,cs),
(493,671,o),
(477,710,o),
(446,739,cs),
(412,771,o),
(361,789,o),
(301,789,cs),
(239,789,o),
(167,770,o),
(108,732,cs),
(54,697,o),
(15,649,o),
(-1,590,cs),
(-14,542,o),
(-10,492,o),
(11,450,cs),
(30,412,o),
(62,384,o),
(114,367,cs),
(144,357,o),
(172,353,o),
(217,355,cs),
(243,356,o),
(253,358,o),
(265,362,cs),
(286,369,o),
(294,376,o),
(294,393,cs),
(294,407,o),
(289,416,o),
(281,429,cs),
(277,435,o),
(271,433,o),
(269,433,cs),
(265,433,o),
(266,433,o),
(264,433,cs),
(246,430,l),
(222,427,ls),
(213,426,o),
(204,425,o),
(192,425,cs),
(150,425,o),
(111,437,o),
(87,465,cs),
(63,493,o),
(57,532,o),
(68,572,cs),
(80,615,o),
(109,648,o),
(150,673,cs),
(194,700,o),
(247,715,o),
(290,718,cs),
(330,721,o),
(363,714,o),
(388,692,cs),
(410,673,o),
(416,650,o),
(412,616,cs),
(408,579,o),
(394,531,o),
(379,483,cs),
(361,425,o),
(354,405,o),
(347,373,cs),
(314,224,o),
(351,145,o),
(431,114,cs),
(454,105,o),
(482,100,o),
(504,100,cs),
(523,100,o),
(544,104,o),
(562,112,cs),
(580,120,o),
(596,130,o),
(611,142,cs),
(627,155,o),
(640,170,o),
(653,189,cs),
(666,208,o),
(678,228,o),
(688,246,cs),
(697,263,o),
(707,284,o),
(718,312,cs),
(722,323,o),
(728,338,o),
(736,357,c),
(668,29,ls),
(658,-20,o),
(638,-72,o),
(615,-111,cs),
(591,-151,o),
(567,-174,o),
(537,-190,cs),
(507,-206,o),
(478,-211,o),
(446,-211,cs),
(403,-211,o),
(369,-202,o),
(340,-186,cs),
(300,-164,o),
(277,-133,o),
(261,-98,cs),
(235,-39,o),
(230,27,o),
(227,41,cs),
(222,64,o),
(204,72,o),
(190,72,cs),
(168,72,o),
(150,52,o),
(153,30,cs),
(162,-38,o),
(173,-85,o),
(190,-123,cs),
(211,-170,o),
(243,-208,o),
(278,-234,cs),
(324,-268,o),
(377,-282,o),
(438,-282,cs)
);
}
);
};
layerId = m01;
shapes = (
{
closed = 1;
nodes = (
(588,-339,o),
(688,-221,o),
(728,-77,cs),
(747,-8,o),
(765,62,o),
(782,131,c),
(885,217,o),
(1015,322,o),
(1160,433,cs),
(1210,471,o),
(1154,554,o),
(1100,513,cs),
(998,435,o),
(905,361,o),
(823,294,c),
(866,470,o),
(912,646,o),
(974,813,cs),
(997,874,o),
(903,909,o),
(880,847,cs),
(792,611,o),
(695,422,o),
(606,302,cs),
(534,205,o),
(490,189,o),
(437,208,cs),
(406,219,o),
(377,269,o),
(402,360,cs),
(522,793,ls),
(531,824,o),
(510,856,o),
(474,856,cs),
(252,856,o),
(40,760,o),
(40,574,cs),
(40,460,o),
(129,395,o),
(260,432,cs),
(321,449,o),
(296,546,o),
(232,528,cs),
(185,515,o),
(140,532,o),
(140,574,cs),
(140,658,o),
(239,736,o),
(407,753,c),
(304,388,ls),
(273,276,o),
(299,151,o),
(403,114,cs),
(507,77,o),
(608,137,o),
(686,242,cs),
(715,283,l),
(691,185,l),
(566,80,o),
(481,1,o),
(448,-34,cs),
(359,-128,o),
(336,-284,o),
(464,-312,cs)
);
},
{
closed = 1;
nodes = (
(466,-210,o),
(440,-187,o),
(520,-102,cs),
(540,-81,o),
(583,-41,o),
(647,15,c),
(630,-49,ls),
(596,-171,o),
(518,-221,o),
(486,-214,cs)
);
}
);
userData = {
com.hugojourdan.ColorFlow = {
"0" = 0;
"1" = 0;
"10" = 0;
"11" = 0;
"2" = 0;
"3" = 0;
"4" = 0;
"5" = 0;
"6" = 0;
"7" = 0;
"8" = 0;
"9" = 0;
};
};
width = 964;
}
);
metricLeft = Y.ss03;
note = Y;
unicode = 89;
},
{
glyphname = Z;
kernLeft = Z;
kernRight = Z;
lastChange = "2025-09-24 09:57:13 +0000";
layers = (
{
anchors = (
{
name = bottom;
pos = (451,0);
},
{
name = top;
pos = (671,890);
}
);
background = {
shapes = (
{
closed = 1;
nodes = (
(608,-51,o),
(666,-36,o),
(713,-15,cs),
(762,7,o),
(819,47,o),
(882,97,cs),
(889,103,o),
(893,112,o),
(893,122,cs),
(893,139,o),
(879,153,o),
(862,153,cs),
(855,153,o),
(848,151,o),
(843,147,cs),
(781,100,ls),
(765,88,o),
(742,73,o),
(715,59,cs),
(681,41,o),
(659,35,o),
(637,32,cs),
(615,29,o),
(591,29,o),
(563,33,c),
(564,37,ls),
(565,39,o),
(564,39,o),
(555,42,cs),
(529,50,o),
(480,74,o),
(402,120,c),
(413,131,ls),
(459,177,o),
(573,300,o),
(636,369,cs),
(683,421,o),
(700,440,o),
(832,588,cs),
(895,659,ls),
(903,668,o),
(908,680,o),
(908,694,cs),
(908,722,o),
(884,746,o),
(856,746,cs),
(851,746,o),
(846,745,o),
(842,744,cs),
(826,740,o),
(811,737,o),
(795,735,cs),
(771,732,o),
(745,732,o),
(703,736,cs),
(675,739,o),
(654,742,o),
(629,746,cs),
(609,749,o),
(567,758,o),
(550,762,cs),
(508,771,o),
(472,779,o),
(406,777,cs),
(348,775,o),
(307,766,o),
(276,756,cs),
(235,743,o),
(200,725,o),
(169,690,cs),
(138,655,o),
(117,611,o),
(109,568,cs),
(98,509,o),
(112,457,o),
(147,418,cs),
(184,377,o),
(241,356,o),
(311,356,cs),
(332,356,o),
(348,358,o),
(362,360,cs),
(376,362,o),
(385,363,o),
(393,365,cs),
(397,366,o),
(401,367,o),
(404,371,cs),
(408,376,o),
(412,385,o),
(412,395,cs),
(412,409,o),
(404,422,o),
(394,431,cs),
(390,434,o),
(388,435,o),
(381,434,cs),
(376,433,o),
(424,441,o),
(376,433,cs),
(358,430,l),
(334,427,ls),
(325,426,o),
(316,425,o),
(304,425,cs),
(267,425,o),
(231,435,o),
(204,461,cs),
(177,487,o),
(171,518,o),
(176,548,cs),
(181,578,o),
(197,612,o),
(221,639,cs),
(245,666,o),
(276,682,o),
(305,691,cs),
(337,701,o),
(376,706,o),
(413,706,cs),
(465,706,o),
(504,696,o),
(533,689,cs),
(621,668,o),
(699,652,o),
(798,664,c),
(572,401,o),
(416,231,o),
(331,154,c),
(282,181,o),
(253,196,o),
(226,207,cs),
(165,232,o),
(118,234,o),
(69,215,cs),
(15,194,o),
(-7,160,o),
(-7,107,cs),
(-7,61,o),
(10,27,o),
(44,5,cs),
(77,-16,o),
(123,-23,o),
(172,-16,cs),
(235,-7,o),
(297,24,o),
(345,65,c),
(456,-1,o),
(506,-26,o),
(547,-36,cs)
);
},
{
closed = 1;
nodes = (
(65,124,o),
(73,136,o),
(89,144,cs),
(107,153,o),
(128,155,o),
(144,154,cs),
(174,152,o),
(214,137,o),
(273,106,c),
(261,95,ls),
(240,76,o),
(204,61,o),
(173,55,cs),
(143,49,o),
(117,51,o),
(96,61,cs),
(75,71,o),
(65,86,o),
(65,107,cs)
);
}
);
};
layerId = m01;
shapes = (
{
closed = 1;
nodes = (
(293,-65,o),
(343,19,o),
(388,84,c),
(451,49,o),
(535,-21,o),
(649,-21,cs),
(828,-21,o),
(989,153,o),
(1101,458,cs),
(1123,518,o),
(1030,555,o),
(1007,492,cs),
(905,213,o),
(750,79,o),
(649,79,cs),
(589,79,o),
(520,126,o),
(449,165,c),
(574,325,o),
(768,550,o),
(967,759,cs),
(1002,796,o),
(968,856,o),
(918,842,cs),
(747,795,o),
(669,784,o),
(444,803,cs),
(255,819,o),
(108,746,o),
(108,585,cs),
(108,431,o),
(242,411,o),
(363,455,cs),
(424,477,o),
(390,571,o),
(329,549,cs),
(224,511,o),
(208,557,o),
(208,585,cs),
(208,656,o),
(304,714,o),
(436,703,cs),
(585,691,o),
(684,692,o),
(782,708,c),
(613,525,o),
(456,341,o),
(352,206,c),
(214,244,o),
(40,220,o),
(40,68,cs),
(40,-1,o),
(88,-65,o),
(178,-65,cs)
);
},
{
closed = 1;
nodes = (
(160,35,o),
(140,41,o),
(140,68,cs),
(140,96,o),
(199,131,o),
(285,119,c),
(244,70,o),
(206,35,o),
(178,35,cs)
);
}
);
userData = {
com.hugojourdan.ColorFlow = {
"0" = 0;
"1" = 0;
"10" = 0;
"11" = 0;
"2" = 0;
"3" = 0;
"4" = 0;
"5" = 0;
"6" = 0;
"7" = 0;
"8" = 0;
"9" = 0;
};
};
width = 885;
}
);
metricLeft = Z.ss03;
note = Z;
unicode = 90;
},
{
color = 3;
glyphname = A.case;
kernLeft = A;
kernRight = A;
lastChange = "2025-09-24 09:57:13 +0000";
layers = (
{
anchors = (
{
name = bottom;
pos = (431,-15);
},
{
name = ogonek;
pos = (1070,20);
},
{
name = top;
pos = (862,921);
}
);
background = {
shapes = (
{
closed = 1;
nodes = (
(1016,221,o),
(1005,232,o),
(992,232,cs),
(986,232,o),
(980,229,o),
(975,225,cs),
(955,205,ls),
(938,188,o),
(851,99,o),
(795,52,cs),
(778,38,o),
(766,30,o),
(759,30,cs),
(749,30,o),
(745,44,o),
(745,72,cs),
(745,134,o),
(778,254,o),
(798,323,c),
(810,322,o),
(833,320,o),
(836,320,cs),
(851,320,o),
(860,332,o),
(860,344,cs),
(860,355,o),
(853,367,o),
(838,369,cs),
(811,371,l),
(837,463,o),
(904,696,o),
(904,725,cs),
(904,751,o),
(894,776,o),
(864,776,cs),
(815,776,o),
(711,690,o),
(555,553,cs),
(505,509,o),
(441,449,o),
(379,383,c),
(293,377,o),
(199,360,o),
(199,282,cs),
(199,265,o),
(208,246,o),
(226,246,cs),
(239,246,o),
(251,255,o),
(251,270,cs),
(251,276,o),
(248,279,o),
(248,284,cs),
(248,315,o),
(291,319,o),
(330,328,c),
(225,206,o),
(136,65,o),
(136,-64,cs),
(136,-79,o),
(148,-88,o),
(160,-88,cs),
(173,-88,o),
(185,-79,o),
(185,-64,cs),
(185,65,o),
(290,212,o),
(402,336,c),
(422,337,o),
(441,337,o),
(456,337,cs),
(490,337,ls),
(566,337,o),
(655,333,o),
(748,327,c),
(728,254,o),
(696,137,o),
(696,72,cs),
(696,29,o),
(709,-20,o),
(756,-20,cs),
(825,-20,o),
(949,131,o),
(989,171,cs),
(1009,190,ls),
(1014,195,o),
(1016,201,o),
(1016,207,cs)
);
},
{
closed = 1;
nodes = (
(855,703,o),
(785,461,o),
(761,375,c),
(663,382,o),
(569,386,o),
(490,386,cs),
(450,386,l),
(500,437,o),
(547,482,o),
(586,516,cs),
(693,609,o),
(810,708,o),
(855,725,c)
);
}
);
};
layerId = m01;
shapes = (
{
closed = 1;
nodes = (
(228,86,o),
(338,224,o),
(445,352,c),
(509,354,o),
(572,353,o),
(633,349,c),
(612,258,o),
(603,197,o),
(603,148,cs),
(603,49,o),
(675,-19,o),
(770,-19,cs),
(866,-19,o),
(963,28,o),
(1096,116,cs),
(1149,152,o),
(1095,236,o),
(1040,200,cs),
(913,115,o),
(830,81,o),
(770,81,cs),
(727,81,o),
(705,109,o),
(705,148,cs),
(705,186,o),
(714,244,o),
(736,339,c),
(788,330,ls),
(852,317,o),
(872,417,o),
(808,430,cs),
(760,439,l),
(785,536,o),
(819,660,o),
(865,821,cs),
(878,867,o),
(821,907,o),
(783,872,cs),
(700,795,o),
(556,638,o),
(399,452,c),
(279,445,o),
(166,428,o),
(75,401,cs),
(15,383,o),
(39,286,o),
(103,305,cs),
(160,322,o),
(231,334,o),
(307,342,c),
(219,235,o),
(131,123,o),
(51,14,cs),
(13,-38,o),
(92,-99,o),
(131,-46,cs)
);
},
{
closed = 1;
nodes = (
(618,453,o),
(577,455,o),
(533,456,c),
(598,531,o),
(660,601,o),
(715,660,c),
(692,577,o),
(673,509,o),
(658,450,c)
);
}
);
userData = {
com.hugojourdan.ColorFlow = {
"0" = 0;
"1" = 0;
"10" = 0;
"11" = 0;
"2" = 0;
"3" = 1;
"4" = 0;
"5" = 0;
"6" = 0;
"7" = 0;
"8" = 0;
"9" = 0;
};
};
width = 980;
}
);
metricLeft = A;
note = A;
},
{
color = 3;
glyphname = AE.case;
kernLeft = A;
kernRight = E;
lastChange = "2025-09-24 09:57:13 +0000";
layers = (
{
anchors = (
{
name = bottom;
pos = (432,-15);
},
{
name = ogonek;
pos = (1070,20);
},
{
name = top;
pos = (863,921);
}
);
layerId = m01;
shapes = (
{
closed = 1;
nodes = (
(228,86,o),
(339,225,o),
(447,354,c),
(673,357,l),
(640,176,o),
(627,74,o),
(627,-1,cs),
(627,-54,o),
(693,-65,o),
(719,-32,c),
(797,-29,o),
(975,-30,o),
(1091,-29,cs),
(1157,-28,o),
(1159,74,o),
(1091,73,cs),
(982,72,o),
(822,71,o),
(733,68,c),
(739,134,o),
(753,225,o),
(777,358,c),
(1142,361,ls),
(1208,362,o),
(1208,464,o),
(1140,463,cs),
(796,460,l),
(858,782,l),
(1191,781,ls),
(1257,781,o),
(1258,883,o),
(1191,883,cs),
(836,882,l),
(819,889,o),
(798,887,o),
(782,872,cs),
(700,796,o),
(555,638,o),
(399,454,c),
(301,451,o),
(216,447,o),
(164,442,cs),
(100,435,o),
(107,335,o),
(174,342,cs),
(208,346,o),
(256,348,o),
(313,350,c),
(223,240,o),
(132,124,o),
(51,14,cs),
(13,-38,o),
(92,-99,o),
(131,-46,cs)
);
},
{
closed = 1;
nodes = (
(608,541,o),
(676,617,o),
(734,678,c),
(691,459,l),
(535,456,l),
(535,456,l)
);
}
);
userData = {
com.hugojourdan.ColorFlow = {
"0" = 0;
"1" = 0;
"10" = 0;
"11" = 0;
"2" = 0;
"3" = 0;
"4" = 0;
"5" = 0;
"6" = 0;
"7" = 0;
"8" = 0;
"9" = 0;
};
};
width = 1171;
}
);
metricLeft = A.ss03;
metricRight = "=E.ss03-60";
},
{
color = 3;
glyphname = C.case;
kernLeft = C;
kernRight = C;
lastChange = "2025-09-24 09:57:13 +0000";
layers = (
{
anchors = (
{
name = bottom;
pos = (366,0);
},
{
name = top;
pos = (520,890);
}
);
background = {
shapes = (
{
closed = 1;
nodes = (
(335,-14,l),
(369,-11,o),
(405,-2,o),
(441,12,cs),
(482,28,o),
(522,52,o),
(554,74,cs),
(583,94,o),
(622,123,o),
(648,144,cs),
(668,160,o),
(691,180,o),
(717,203,cs),
(724,209,o),
(728,217,o),
(728,226,cs),
(728,244,o),
(714,258,o),
(697,258,cs),
(689,258,o),
(682,255,o),
(676,250,cs),
(672,247,o),
(652,230,o),
(651,229,cs),
(631,212,o),
(579,174,o),
(534,145,cs),
(484,113,o),
(436,87,o),
(391,72,cs),
(337,54,o),
(293,53,o),
(254,75,cs),
(229,89,o),
(208,113,o),
(192,145,cs),
(178,173,o),
(169,205,o),
(165,245,cs),
(160,295,o),
(163,354,o),
(178,417,cs),
(192,476,o),
(215,534,o),
(249,584,cs),
(287,640,o),
(333,678,o),
(384,699,cs),
(418,713,o),
(451,719,o),
(479,716,cs),
(506,713,o),
(527,702,o),
(538,680,cs),
(549,658,o),
(548,631,o),
(530,597,cs),
(506,552,o),
(463,517,o),
(394,487,cs),
(381,481,o),
(372,468,o),
(372,452,cs),
(372,432,o),
(388,415,o),
(409,415,cs),
(415,415,o),
(418,416,o),
(423,418,cs),
(514,455,o),
(574,512,o),
(602,589,cs),
(623,646,o),
(619,693,o),
(589,731,cs),
(562,765,o),
(519,786,o),
(471,791,cs),
(408,798,o),
(340,775,o),
(278,726,cs),
(221,681,o),
(169,614,o),
(134,538,cs),
(106,477,o),
(89,409,o),
(84,340,cs),
(79,268,o),
(88,199,o),
(108,142,cs),
(129,82,o),
(163,35,o),
(208,8,cs),
(241,-12,o),
(280,-21,o),
(321,-18,cs),
(330,-17,o),
(332,-17,o),
(333,-16,cs)
);
}
);
};
layerId = m01;
shapes = (
{
closed = 1;
nodes = (
(535,-13,o),
(699,40,o),
(845,124,cs),
(901,156,o),
(852,243,o),
(795,210,cs),
(664,135,o),
(507,87,o),
(406,87,cs),
(255,87,o),
(182,197,o),
(182,347,cs),
(182,586,o),
(353,780,o),
(520,780,cs),
(615,780,o),
(671,711,o),
(564,550,cs),
(529,497,o),
(612,440,o),
(648,494,cs),
(766,673,o),
(741,880,o),
(520,880,cs),
(275,880,o),
(80,618,o),
(80,347,cs),
(80,117,o),
(219,-13,o),
(406,-13,cs)
);
}
);
userData = {
com.hugojourdan.ColorFlow = {
"0" = 0;
"1" = 0;
"10" = 0;
"11" = 0;
"2" = 0;
"3" = 1;
"4" = 0;
"5" = 0;
"6" = 0;
"7" = 0;
"8" = 0;
"9" = 0;
};
};
width = 731;
}
);
metricLeft = C;
note = C;
},
{
color = 3;
glyphname = E.case;
kernLeft = E;
kernRight = E;
lastChange = "2025-09-24 09:57:13 +0000";
layers = (
{
anchors = (
{
name = bottom;
pos = (306,-15);
},
{
name = ogonek;
pos = (730,20);
},
{
name = top;
pos = (467,921);
},
{
name = topleft;
pos = (71,883);
}
);
background = {
hints = (
{
horizontal = 1;
place = (555,-20);
target = down;
type = TopGhost;
},
{
horizontal = 1;
place = (708,83);
type = Stem;
},
{
horizontal = 1;
place = (-16,74);
type = Stem;
},
{
place = (440,70);
type = Stem;
},
{
place = (106,79);
type = Stem;
},
{
place = (3,88);
type = Stem;
}
);
shapes = (
{
closed = 1;
nodes = (
(243,-20,o),
(318,-19,o),
(400,10,cs),
(448,27,o),
(495,53,o),
(547,92,cs),
(590,124,o),
(637,166,o),
(695,224,cs),
(701,230,o),
(704,238,o),
(704,247,cs),
(704,265,o),
(690,279,o),
(672,279,cs),
(663,279,o),
(656,276,o),
(650,271,cs),
(638,261,o),
(581,203,o),
(512,153,cs),
(469,122,o),
(426,98,o),
(382,81,cs),
(322,58,o),
(272,55,o),
(235,61,cs),
(193,68,o),
(162,87,o),
(143,113,cs),
(124,139,o),
(119,170,o),
(124,201,cs),
(132,249,o),
(163,286,o),
(208,313,cs),
(251,339,o),
(311,359,o),
(397,376,cs),
(412,379,o),
(424,392,o),
(424,408,cs),
(424,429,o),
(405,445,o),
(386,442,cs),
(366,439,l),
(325,433,ls),
(318,432,o),
(309,432,o),
(298,433,cs),
(287,434,o),
(274,437,o),
(264,442,cs),
(242,453,o),
(225,477,o),
(219,508,cs),
(213,540,o),
(220,575,o),
(232,604,cs),
(253,655,o),
(290,692,o),
(342,709,cs),
(373,719,o),
(403,720,o),
(426,715,cs),
(451,710,o),
(464,698,o),
(470,681,cs),
(477,661,o),
(473,643,o),
(458,622,cs),
(449,609,o),
(435,594,o),
(415,576,cs),
(410,571,o),
(403,565,o),
(403,551,cs),
(403,529,o),
(419,512,o),
(439,512,cs),
(449,512,o),
(457,516,o),
(466,523,cs),
(492,543,o),
(515,584,o),
(522,597,cs),
(551,651,o),
(552,686,o),
(526,727,cs),
(503,763,o),
(470,786,o),
(419,791,cs),
(374,795,o),
(318,785,o),
(267,755,cs),
(219,727,o),
(180,683,o),
(158,632,cs),
(138,585,o),
(133,534,o),
(144,490,cs),
(155,446,o),
(182,413,o),
(218,396,c),
(127,363,o),
(71,312,o),
(47,239,cs),
(29,184,o),
(33,131,o),
(59,84,cs),
(86,35,o),
(130,5,o),
(189,-8,cs)
);
}
);
};
layerId = m01;
shapes = (
{
closed = 1;
nodes = (
(463,-32,o),
(638,27,o),
(795,131,cs),
(848,167,o),
(794,251,o),
(739,215,cs),
(597,120,o),
(435,68,o),
(322,68,cs),
(222,68,o),
(142,121,o),
(142,220,cs),
(142,296,o),
(177,366,o),
(247,405,c),
(295,382,o),
(351,380,o),
(392,380,cs),
(426,380,o),
(491,389,o),
(491,442,cs),
(490,496,o),
(433,504,o),
(394,504,cs),
(356,504,o),
(316,499,o),
(280,491,c),
(259,516,o),
(247,552,o),
(247,599,cs),
(247,705,o),
(305,771,o),
(390,782,cs),
(475,793,o),
(530,759,o),
(542,689,cs),
(553,626,o),
(651,643,o),
(640,707,cs),
(619,829,o),
(502,898,o),
(378,882,cs),
(239,864,o),
(145,735,o),
(145,599,cs),
(145,534,o),
(160,488,o),
(184,455,c),
(99,410,o),
(40,333,o),
(40,220,cs),
(40,81,o),
(148,-32,o),
(322,-32,cs)
);
}
);
userData = {
com.hugojourdan.ColorFlow = {
"0" = 0;
"1" = 0;
"10" = 0;
"11" = 0;
"2" = 0;
"3" = 1;
"4" = 0;
"5" = 0;
"6" = 0;
"7" = 0;
"8" = 0;
"9" = 0;
};
};
width = 679;
}
);
metricLeft = E;
note = E;
},
{
color = 3;
glyphname = G.case;
kernLeft = G;
kernRight = G;
lastChange = "2025-09-24 09:57:13 +0000";
layers = (
{
anchors = (
{
name = bottom;
pos = (764,0);
},
{
name = top;
pos = (548,890);
}
);
background = {
hints = (
{
horizontal = 1;
place = (578,-20);
target = down;
type = TopGhost;
},
{
horizontal = 1;
place = (524,-20);
target = down;
type = TopGhost;
},
{
horizontal = 1;
place = (712,80);
type = Stem;
},
{
horizontal = 1;
place = (383,62);
type = Stem;
},
{
horizontal = 1;
place = (-325,66);
type = Stem;
},
{
horizontal = 1;
place = (-16,21);
target = up;
type = BottomGhost;
},
{
place = (604,72);
type = Stem;
},
{
place = (283,70);
type = Stem;
},
{
place = (133,75);
type = Stem;
}
);
shapes = (
{
closed = 0;
nodes = (
(709,591,l,{
"Letterink-NibData" = {
AngleInDegrees = "28";
MainAxisWidth = "69";
MinorAxisWidth = "69";
ValidForParentMainAxisWidth = "15";
ValidForParentMinorAxisWidth = "15";
};
"Letterink-NibStyleId" = "6";
}),
(807,750,o),
(754,870,o),
(586,870,cs,{
"Letterink-NibData" = {
AngleInDegrees = "28";
MainAxisWidth = "65";
MinorAxisWidth = "65";
ValidForParentMainAxisWidth = "15";
ValidForParentMinorAxisWidth = "15";
};
"Letterink-NibStyleId" = "7";
}),
(320,870,o),
(144,572,o),
(144,317,cs,{
"Letterink-NibData" = {
AngleInDegrees = "28";
MainAxisWidth = "69";
MinorAxisWidth = "69";
ValidForParentMainAxisWidth = "15";
ValidForParentMinorAxisWidth = "15";
};
"Letterink-NibStyleId" = "6";
}),
(144,127,o),
(230,8,o),
(368,8,cs,{
"Letterink-NibData" = {
AngleInDegrees = "28";
MainAxisWidth = "65";
MinorAxisWidth = "65";
ValidForParentMainAxisWidth = "15";
ValidForParentMinorAxisWidth = "15";
};
"Letterink-NibStyleId" = "7";
}),
(512,8,o),
(670,169,o),
(756,404,c,{
"Letterink-NibData" = {
AngleInDegrees = "28";
MainAxisWidth = "57";
MinorAxisWidth = "57";
ValidForParentMainAxisWidth = "15";
ValidForParentMinorAxisWidth = "15";
};
"Letterink-NibStyleId" = "8";
}),
(598,-145,ls,{
"Letterink-NibData" = {
AngleInDegrees = "28";
MainAxisWidth = "69";
MinorAxisWidth = "69";
ValidForParentMainAxisWidth = "15";
ValidForParentMinorAxisWidth = "15";
};
"Letterink-NibStyleId" = "6";
}),
(553,-297,o),
(467,-384,o),
(385,-368,cs,{
"Letterink-NibData" = {
AngleInDegrees = "28";
MainAxisWidth = "65";
MinorAxisWidth = "65";
ValidForParentMainAxisWidth = "15";
ValidForParentMinorAxisWidth = "15";
};
"Letterink-NibStyleId" = "7";
}),
(309,-354,o),
(328,-270,o),
(396,-198,cs,{
"Letterink-NibData" = {
AngleInDegrees = "28";
MainAxisWidth = "69";
MinorAxisWidth = "69";
ValidForParentMainAxisWidth = "15";
ValidForParentMinorAxisWidth = "15";
};
"Letterink-NibStyleId" = "6";
}),
(569,-25,o),
(836,118,o),
(1138,492,c,{
"Letterink-NibData" = {
AngleInDegrees = "28";
MainAxisWidth = "57";
MinorAxisWidth = "57";
ValidForParentMainAxisWidth = "15";
ValidForParentMinorAxisWidth = "15";
};
"Letterink-NibStyleId" = "8";
})
);
}
);
};
layerId = m01;
shapes = (
{
closed = 1;
nodes = (
(463,-399,o),
(559,-251,o),
(597,-117,cs),
(614,-58,l),
(702,-10,o),
(806,43,o),
(941,121,cs),
(997,153,o),
(948,240,o),
(891,207,cs),
(799,154,o),
(721,113,o),
(651,76,c),
(680,181,o),
(709,285,o),
(742,386,cs),
(763,449,o),
(666,481,o),
(646,418,cs),
(580,217,o),
(432,87,o),
(337,87,cs),
(240,87,o),
(182,156,o),
(182,322,cs),
(182,516,o),
(302,780,o),
(537,780,cs),
(630,780,o),
(688,731,o),
(608,601,cs),
(574,546,o),
(659,490,o),
(694,547,cs),
(794,709,o),
(754,880,o),
(537,880,cs),
(284,880,o),
(80,596,o),
(80,322,cs),
(80,124,o),
(146,-13,o),
(337,-13,cs),
(409,-13,o),
(479,16,o),
(543,69,c),
(526,9,l),
(459,-29,o),
(400,-66,o),
(341,-113,cs),
(244,-190,o),
(215,-315,o),
(337,-356,cs)
);
},
{
closed = 1;
nodes = (
(355,-257,o),
(343,-239,o),
(403,-191,cs),
(430,-170,o),
(455,-152,o),
(484,-134,c),
(443,-235,o),
(381,-266,o),
(369,-262,cs)
);
}
);
userData = {
com.hugojourdan.ColorFlow = {
"0" = 0;
"1" = 0;
"10" = 0;
"11" = 0;
"2" = 0;
"3" = 1;
"4" = 0;
"5" = 0;
"6" = 0;
"7" = 0;
"8" = 0;
"9" = 0;
};
};
width = 827;
}
);
metricLeft = G;
note = G;
},
{
color = 3;
glyphname = H.case;
kernLeft = H;
kernRight = H;
lastChange = "2025-09-24 09:57:13 +0000";
layers = (
{
anchors = (
{
name = bottom;
pos = (510,0);
},
{
name = center;
pos = (510,683);
},
{
name = top;
pos = (703,922);
},
{
name = topleft;
pos = (20,750);
}
);
background = {
hints = (
{
horizontal = 1;
place = (779,-20);
target = down;
type = TopGhost;
},
{
horizontal = 1;
place = (564,-20);
target = down;
type = TopGhost;
},
{
horizontal = 1;
place = (662,70);
type = Stem;
},
{
horizontal = 1;
place = (293,69);
type = Stem;
},
{
horizontal = 1;
place = (-16,68);
type = Stem;
},
{
place = (6,899);
type = Stem;
}
);
shapes = (
{
closed = 0;
nodes = (
(945,902,l,{
"Letterink-NibData" = {
AngleInDegrees = "28";
MainAxisWidth = "65";
MinorAxisWidth = "65";
ValidForParentMainAxisWidth = "15";
ValidForParentMinorAxisWidth = "15";
};
"Letterink-NibStyleId" = "6";
}),
(787,221,ls,{
"Letterink-NibData" = {
AngleInDegrees = "28";
MainAxisWidth = "65";
MinorAxisWidth = "65";
ValidForParentMainAxisWidth = "15";
ValidForParentMinorAxisWidth = "15";
};
"Letterink-NibStyleId" = "6";
}),
(757,91,o),
(794,9,o),
(884,9,cs,{
"Letterink-NibData" = {
AngleInDegrees = "28";
MainAxisWidth = "63";
MinorAxisWidth = "63";
ValidForParentMainAxisWidth = "15";
ValidForParentMinorAxisWidth = "15";
};
"Letterink-NibStyleId" = "7";
}),
(944,9,o),
(1019,58,o),
(1078,135,cs,{
"Letterink-NibData" = {
AngleInDegrees = "28";
MainAxisWidth = "63";
MinorAxisWidth = "63";
ValidForParentMainAxisWidth = "15";
ValidForParentMinorAxisWidth = "15";
};
"Letterink-NibStyleId" = "7";
}),
(1145,223,o),
(1213,308,o),
(1286,492,c,{
"Letterink-NibData" = {
AngleInDegrees = "28";
MainAxisWidth = "57";
MinorAxisWidth = "57";
ValidForParentMainAxisWidth = "15";
ValidForParentMinorAxisWidth = "15";
};
"Letterink-NibStyleId" = "8";
})
);
},
{
closed = 0;
nodes = (
(464,440,l,{
"Letterink-NibData" = {
AngleInDegrees = "28";
MainAxisWidth = "63";
MinorAxisWidth = "63";
ValidForParentMainAxisWidth = "15";
ValidForParentMinorAxisWidth = "15";
};
"Letterink-NibStyleId" = "7";
}),
(987,440,l,{
"Letterink-NibData" = {
AngleInDegrees = "28";
MainAxisWidth = "63";
MinorAxisWidth = "63";
ValidForParentMainAxisWidth = "15";
ValidForParentMinorAxisWidth = "15";
};
"Letterink-NibStyleId" = "7";
})
);
},
{
closed = 0;
nodes = (
(309,633,l,{
"Letterink-NibData" = {
AngleInDegrees = "28";
MainAxisWidth = "63";
MinorAxisWidth = "63";
ValidForParentMainAxisWidth = "15";
ValidForParentMinorAxisWidth = "15";
};
"Letterink-NibStyleId" = "7";
}),
(187,589,o),
(104,627,o),
(104,725,cs,{
"Letterink-NibData" = {
AngleInDegrees = "28";
MainAxisWidth = "65";
MinorAxisWidth = "65";
ValidForParentMainAxisWidth = "15";
ValidForParentMinorAxisWidth = "15";
};
"Letterink-NibStyleId" = "6";
}),
(104,848,o),
(240,907,o),
(563,902,c,{
"Letterink-NibData" = {
AngleInDegrees = "28";
MainAxisWidth = "65";
MinorAxisWidth = "65";
ValidForParentMainAxisWidth = "15";
ValidForParentMinorAxisWidth = "15";
};
"Letterink-NibStyleId" = "6";
}),
(350,-13,l,{
"Letterink-NibData" = {
AngleInDegrees = "28";
MainAxisWidth = "65";
MinorAxisWidth = "65";
ValidForParentMainAxisWidth = "15";
ValidForParentMinorAxisWidth = "15";
};
"Letterink-NibStyleId" = "6";
})
);
}
);
};
layerId = m01;
shapes = (
{
closed = 1;
nodes = (
(912,-12,o),
(1021,39,o),
(1137,120,cs),
(1188,156,o),
(1134,240,o),
(1079,202,cs),
(976,130,o),
(868,88,o),
(827,88,cs),
(800,88,o),
(744,114,o),
(769,222,cs),
(806,385,l),
(903,385,ls),
(967,385,o),
(968,485,o),
(903,485,cs),
(830,485,l),
(915,848,ls),
(929,909,o),
(831,940,o),
(815,872,cs),
(725,485,l),
(478,485,l),
(563,848,ls),
(570,880,o),
(550,911,o),
(514,911,cs),
(226,915,o),
(40,868,o),
(40,697,cs),
(40,546,o),
(176,522,o),
(296,565,cs),
(355,586,o),
(324,681,o),
(262,659,cs),
(158,622,o),
(142,668,o),
(142,697,cs),
(142,748,o),
(194,804,o),
(449,809,c),
(267,30,ls),
(253,-33,o),
(352,-59,o),
(367,6,cs),
(455,385,l),
(702,385,l),
(669,244,ls),
(639,113,o),
(674,-12,o),
(827,-12,cs)
);
}
);
userData = {
com.hugojourdan.ColorFlow = {
"0" = 0;
"1" = 0;
"10" = 0;
"11" = 0;
"2" = 0;
"3" = 1;
"4" = 0;
"5" = 0;
"6" = 0;
"7" = 0;
"8" = 0;
"9" = 0;
};
};
width = 1020;
}
);
metricLeft = H;
note = H;
},
{
color = 3;
glyphname = Hbar.case;
lastChange = "2025-09-24 09:57:13 +0000";
layers = (
{
anchors = (
{
name = bottom;
pos = (510,0);
},
{
name = center;
pos = (510,683);
},
{
name = top;
pos = (703,922);
},
{
name = topleft;
pos = (20,750);
}
);
layerId = m01;
shapes = (
{
closed = 1;
nodes = (
(912,-12,o),
(1021,39,o),
(1137,120,cs),
(1188,156,o),
(1134,240,o),
(1079,202,cs),
(976,130,o),
(868,88,o),
(827,88,cs),
(800,88,o),
(744,114,o),
(769,222,cs),
(787,300,l),
(837,300,ls),
(901,300,o),
(902,400,o),
(837,400,cs),
(810,400,l),
(844,544,l),
(938,543,ls),
(1005,542,o),
(1007,644,o),
(940,645,cs),
(867,646,l),
(915,848,ls),
(929,909,o),
(831,940,o),
(815,872,cs),
(763,646,l),
(515,645,l),
(563,848,ls),
(570,880,o),
(550,911,o),
(514,911,cs),
(226,915,o),
(40,868,o),
(40,697,cs),
(40,546,o),
(176,522,o),
(296,565,cs),
(355,586,o),
(324,681,o),
(262,659,cs),
(158,622,o),
(142,668,o),
(142,697,cs),
(142,748,o),
(194,804,o),
(449,809,c),
(408,635,l),
(389,620,o),
(385,594,o),
(394,572,c),
(354,400,l),
(302,398,o),
(293,327,o),
(332,306,c),
(267,30,ls),
(253,-33,o),
(352,-59,o),
(367,6,cs),
(435,300,l),
(682,300,l),
(669,244,ls),
(639,113,o),
(674,-12,o),
(827,-12,cs)
);
},
{
closed = 1;
nodes = (
(492,543,l),
(739,544,l),
(705,400,l),
(458,400,l),
(458,400,l)
);
}
);
userData = {
com.hugojourdan.ColorFlow = {
"0" = 0;
"1" = 0;
"10" = 0;
"11" = 0;
"2" = 0;
"3" = 0;
"4" = 0;
"5" = 0;
"6" = 0;
"7" = 0;
"8" = 0;
"9" = 0;
};
};
width = 1020;
}
);
metricLeft = H;
metricRight = H.case;
},
{
color = 3;
glyphname = J.case;
kernLeft = I;
kernRight = I;
lastChange = "2025-09-24 09:57:13 +0000";
layers = (
{
anchors = (
{
name = bottom;
pos = (369,0);
},
{
name = top;
pos = (511,890);
}
);
background = {
shapes = (
{
closed = 1;
nodes = (
(393,-232,o),
(433,-196,o),
(460,-119,cs),
(475,-77,o),
(493,1,o),
(554,274,c),
(839,375,ls),
(853,380,o),
(860,392,o),
(860,405,cs),
(860,428,o),
(836,440,o),
(818,434,cs),
(572,349,l),
(585,408,o),
(601,485,o),
(620,579,c),
(638,582,o),
(666,592,o),
(687,601,cs),
(739,623,o),
(774,650,o),
(793,686,cs),
(812,722,o),
(813,762,o),
(796,798,cs),
(782,828,o),
(760,846,o),
(729,853,cs),
(698,860,o),
(665,854,o),
(639,838,cs),
(613,822,o),
(595,797,o),
(587,763,cs),
(581,738,ls),
(578,725,o),
(575,715,o),
(570,690,cs),
(558,632,l),
(513,632,o),
(421,663,o),
(384,674,cs),
(333,689,o),
(278,696,o),
(221,672,cs),
(171,651,o),
(144,616,o),
(134,568,cs),
(125,525,o),
(132,482,o),
(151,447,cs),
(173,406,o),
(208,379,o),
(251,364,cs),
(282,353,o),
(316,349,o),
(345,350,cs),
(374,351,o),
(397,356,o),
(407,359,cs),
(426,365,o),
(433,375,o),
(433,390,cs),
(433,408,o),
(422,421,o),
(409,426,cs),
(405,428,o),
(401,427,o),
(397,426,cs),
(385,423,ls),
(379,422,o),
(363,419,o),
(361,419,cs),
(352,418,o),
(343,417,o),
(333,417,cs),
(297,417,o),
(266,429,o),
(241,453,cs),
(218,475,o),
(205,504,o),
(205,535,cs),
(205,569,o),
(220,595,o),
(247,609,cs),
(281,627,o),
(324,621,o),
(368,609,cs),
(420,595,o),
(487,570,o),
(544,568,c),
(487,318,l),
(233,230,ls),
(172,209,o),
(119,183,o),
(79,153,cs),
(38,122,o),
(13,89,o),
(3,50,cs),
(-15,-19,o),
(19,-86,o),
(109,-157,cs),
(188,-219,o),
(261,-244,o),
(326,-238,cs)
);
},
{
closed = 1;
nodes = (
(95,87,o),
(154,132,o),
(248,165,cs),
(471,243,l),
(423,38,o),
(394,-80,o),
(384,-110,c),
(384,-110,l),
(384,-110,o),
(382,-113,o),
(380,-118,cs),
(368,-150,o),
(340,-165,o),
(309,-165,cs),
(276,-165,o),
(217,-149,o),
(165,-115,cs),
(133,-94,o),
(106,-67,o),
(91,-39,cs),
(77,-12,o),
(74,14,o),
(81,38,cs)
);
},
{
closed = 1;
nodes = (
(655,737,o),
(649,718,o),
(654,742,cs),
(658,761,o),
(662,771,o),
(676,780,cs),
(687,787,o),
(698,789,o),
(710,785,cs),
(719,782,o),
(729,775,o),
(733,763,c),
(734,764,l),
(743,740,o),
(737,718,o),
(717,697,cs),
(697,676,o),
(669,660,o),
(634,649,c)
);
}
);
};
layerId = m01;
shapes = (
{
closed = 1;
nodes = (
(442,-200,o),
(502,-119,o),
(549,19,c),
(674,52,o),
(778,85,o),
(847,116,cs),
(906,143,o),
(866,235,o),
(805,208,cs),
(755,185,o),
(678,159,o),
(583,132,c),
(774,828,ls),
(786,871,o),
(736,910,o),
(697,882,cs),
(599,811,o),
(540,790,o),
(382,804,cs),
(198,820,o),
(40,749,o),
(40,587,cs),
(40,437,o),
(175,413,o),
(295,455,cs),
(356,476,o),
(323,570,o),
(263,549,cs),
(159,513,o),
(142,559,o),
(142,587,cs),
(142,653,o),
(234,714,o),
(374,702,cs),
(485,693,o),
(570,705,o),
(645,737,c),
(475,125,l),
(468,102,l),
(434,93,o),
(399,85,o),
(363,77,cs),
(279,58,o),
(204,14,o),
(204,-74,cs),
(204,-149,o),
(258,-200,o),
(326,-200,cs)
);
},
{
closed = 1;
nodes = (
(310,-100,o),
(306,-89,o),
(306,-74,cs),
(306,-70,o),
(336,-32,o),
(385,-21,cs),
(425,-12,l),
(390,-80,o),
(354,-100,o),
(326,-100,cs)
);
}
);
userData = {
com.hugojourdan.ColorFlow = {
"0" = 0;
"1" = 0;
"10" = 0;
"11" = 0;
"2" = 0;
"3" = 1;
"4" = 0;
"5" = 0;
"6" = 0;
"7" = 0;
"8" = 0;
"9" = 0;
};
};
width = 737;
}
);
metricLeft = J;
note = J;
},
{
color = 3;
glyphname = K.case;
kernLeft = K;
kernRight = K;
lastChange = "2025-09-24 09:57:13 +0000";
layers = (
{
anchors = (
{
name = bottom;
pos = (609,0);
},
{
name = top;
pos = (751,890);
}
);
background = {
shapes = (
{
closed = 1;
nodes = (
(319,-16,o),
(351,11,o),
(379,53,cs),
(412,102,o),
(442,179,o),
(471,283,c),
(552,167,o),
(613,89,o),
(665,43,cs),
(709,4,o),
(754,-19,o),
(809,-19,cs),
(834,-19,o),
(861,-14,o),
(888,-2,cs),
(915,10,o),
(943,30,o),
(975,57,cs),
(1001,79,o),
(1030,106,o),
(1052,128,cs),
(1070,145,o),
(1120,200,o),
(1123,203,cs),
(1129,209,o),
(1132,216,o),
(1132,225,cs),
(1132,242,o),
(1118,257,o),
(1100,257,cs),
(1091,257,o),
(1083,253,o),
(1077,247,cs),
(1070,240,o),
(1010,175,o),
(946,125,cs),
(890,81,o),
(849,62,o),
(813,62,cs),
(777,62,o),
(741,81,o),
(699,123,cs),
(659,164,o),
(605,232,o),
(537,328,c),
(549,341,o),
(574,370,o),
(612,414,cs),
(729,549,ls),
(770,596,o),
(813,644,o),
(840,669,cs),
(869,696,o),
(886,704,o),
(909,703,cs),
(934,702,o),
(947,690,o),
(957,675,cs),
(975,648,o),
(975,621,o),
(957,590,cs),
(935,553,o),
(892,519,o),
(876,502,cs),
(871,497,o),
(864,489,o),
(864,476,cs),
(864,457,o),
(880,441,o),
(899,441,cs),
(907,441,o),
(915,443,o),
(920,448,c),
(980,492,o),
(1017,536,o),
(1034,581,cs),
(1054,635,o),
(1041,692,o),
(1005,732,cs),
(988,751,o),
(968,763,o),
(946,769,cs),
(920,776,o),
(890,775,o),
(862,766,cs),
(830,756,o),
(804,737,o),
(776,706,cs),
(671,590,o),
(562,465,o),
(494,384,c),
(568,663,o),
(546,585,o),
(554,612,cs),
(569,664,ls),
(573,678,o),
(576,690,o),
(579,698,cs),
(580,701,o),
(580,705,o),
(579,710,cs),
(574,735,o),
(554,749,o),
(532,749,cs),
(520,749,o),
(508,745,o),
(502,735,c),
(489,724,o),
(475,716,o),
(458,710,cs),
(435,702,o),
(411,699,o),
(387,701,cs),
(363,702,o),
(362,704,o),
(298,719,cs),
(238,733,o),
(125,754,o),
(52,591,cs),
(50,587,o),
(49,582,o),
(49,577,cs),
(49,558,o),
(65,542,o),
(84,542,cs),
(97,542,o),
(110,550,o),
(116,563,cs),
(137,608,o),
(158,632,o),
(180,645,cs),
(207,661,o),
(241,663,o),
(282,651,cs),
(364,627,o),
(436,626,o),
(490,649,c),
(482,618,o),
(479,608,o),
(454,512,cs),
(410,343,o),
(376,214,o),
(342,138,cs),
(312,71,o),
(283,47,o),
(239,47,cs),
(224,47,o),
(210,50,o),
(198,56,cs),
(186,62,o),
(177,71,o),
(168,86,cs),
(162,96,o),
(155,110,o),
(150,123,cs),
(148,128,o),
(146,134,o),
(144,141,cs),
(141,150,o),
(131,164,o),
(108,164,cs),
(86,164,o),
(77,151,o),
(77,122,cs),
(77,120,o),
(77,114,o),
(77,116,cs),
(77,91,o),
(116,45,o),
(136,24,cs),
(170,-12,o),
(198,-25,o),
(252,-21,cs)
);
}
);
};
layerId = m01;
shapes = (
{
closed = 1;
nodes = (
(323,-30,o),
(406,36,o),
(455,133,cs),
(479,182,o),
(502,251,o),
(526,329,c),
(562,130,o),
(638,-14,o),
(784,-14,cs),
(899,-14,o),
(1016,32,o),
(1165,128,cs),
(1218,162,o),
(1167,248,o),
(1111,212,cs),
(968,120,o),
(871,86,o),
(784,86,cs),
(723,86,o),
(652,167,o),
(619,388,c),
(827,669,o),
(1001,793,o),
(1046,761,cs),
(1048,760,o),
(1067,756,o),
(1005,657,cs),
(971,603,o),
(1054,547,o),
(1089,604,cs),
(1141,686,o),
(1192,781,o),
(1104,843,cs),
(962,943,o),
(759,740,o),
(582,508,c),
(617,612,o),
(659,719,o),
(715,813,cs),
(742,859,o),
(686,912,o),
(642,881,cs),
(534,805,o),
(482,789,o),
(325,805,cs),
(195,818,o),
(66,763,o),
(57,625,cs),
(48,492,o),
(161,473,o),
(254,508,cs),
(315,531,o),
(282,625,o),
(220,602,cs),
(147,575,o),
(157,614,o),
(157,619,cs),
(161,673,o),
(214,715,o),
(315,705,cs),
(409,696,o),
(485,701,o),
(554,723,c),
(457,504,o),
(411,274,o),
(363,179,cs),
(326,105,o),
(269,70,o),
(228,70,cs),
(192,70,o),
(154,93,o),
(136,129,cs),
(107,185,o),
(16,142,o),
(46,83,cs),
(82,14,o),
(152,-30,o),
(228,-30,cs)
);
}
);
userData = {
com.hugojourdan.ColorFlow = {
"0" = 0;
"1" = 0;
"10" = 0;
"11" = 0;
"2" = 0;
"3" = 1;
"4" = 0;
"5" = 0;
"6" = 0;
"7" = 0;
"8" = 0;
"9" = 0;
};
};
width = 1049;
}
);
metricLeft = K;
note = K;
},
{
color = 3;
glyphname = L.case;
kernLeft = L;
kernRight = L;
lastChange = "2025-09-24 09:57:13 +0000";
layers = (
{
anchors = (
{
name = bottom;
pos = (429,0);
},
{
name = center;
pos = (429,375);
},
{
name = top;
pos = (635,890);
},
{
name = topright;
pos = (837,750);
}
);
background = {
shapes = (
{
closed = 1;
nodes = (
(899,203,o),
(888,214,o),
(875,214,cs),
(869,214,o),
(863,211,o),
(858,206,cs),
(839,187,ls),
(749,97,o),
(685,63,o),
(600,63,cs),
(522,63,o),
(438,100,o),
(349,125,c),
(400,208,o),
(438,304,o),
(461,363,cs),
(469,382,o),
(483,422,o),
(501,469,c),
(627,552,o),
(747,652,o),
(747,732,cs),
(747,772,o),
(721,800,o),
(682,800,cs),
(649,800,o),
(611,780,o),
(579,740,cs),
(541,692,o),
(504,605,o),
(465,505,c),
(356,435,o),
(243,375,o),
(210,357,cs),
(201,352,o),
(197,344,o),
(197,337,cs),
(197,325,o),
(207,312,o),
(220,312,cs),
(223,312,o),
(228,312,o),
(232,314,cs),
(275,338,o),
(354,378,o),
(435,428,c),
(395,324,o),
(350,217,o),
(300,137,c),
(271,142,o),
(240,146,o),
(209,146,cs),
(104,146,o),
(44,105,o),
(44,43,cs),
(44,-14,o),
(88,-40,o),
(134,-40,cs),
(208,-40,o),
(271,13,o),
(322,83,c),
(416,60,o),
(506,16,o),
(600,16,cs),
(703,16,o),
(779,61,o),
(873,154,cs),
(892,173,ls),
(896,178,o),
(899,184,o),
(899,190,cs)
);
},
{
closed = 1;
nodes = (
(700,684,o),
(625,616,o),
(534,551,c),
(576,652,o),
(632,753,o),
(682,753,cs),
(692,753,o),
(700,748,o),
(700,732,cs)
);
},
{
closed = 1;
nodes = (
(230,41,o),
(185,7,o),
(134,7,cs),
(105,7,o),
(92,20,o),
(92,43,cs),
(92,62,o),
(111,99,o),
(209,99,cs),
(230,99,o),
(251,97,o),
(271,94,c)
);
}
);
};
layerId = m01;
shapes = (
{
closed = 1;
nodes = (
(279,-65,o),
(349,8,o),
(404,105,c),
(447,83,ls),
(509,49,o),
(570,1,o),
(667,1,cs),
(755,1,o),
(845,41,o),
(972,122,cs),
(1027,157,o),
(973,241,o),
(918,206,cs),
(797,129,o),
(721,101,o),
(667,101,cs),
(610,101,o),
(570,132,o),
(495,173,cs),
(480,181,o),
(465,189,o),
(449,196,c),
(481,270,o),
(507,346,o),
(534,417,cs),
(546,449,l),
(654,503,o),
(731,556,o),
(785,606,cs),
(874,688,o),
(950,809,o),
(857,886,cs),
(736,985,o),
(590,822,o),
(465,521,c),
(391,486,o),
(302,450,o),
(192,413,cs),
(132,393,o),
(161,298,o),
(224,319,cs),
(294,342,o),
(358,366,o),
(414,389,c),
(394,334,o),
(373,277,o),
(351,227,c),
(328,232,o),
(306,234,o),
(281,234,cs),
(153,234,o),
(40,175,o),
(40,64,cs),
(40,2,o),
(82,-65,o),
(179,-65,cs)
);
},
{
closed = 1;
nodes = (
(166,35,o),
(140,38,o),
(140,64,cs),
(140,90,o),
(174,134,o),
(281,134,cs),
(288,134,o),
(295,134,o),
(302,133,c),
(258,64,o),
(213,35,o),
(179,35,cs)
);
},
{
closed = 1;
nodes = (
(720,810,o),
(791,810,o),
(793,808,c),
(795,807,o),
(815,770,o),
(717,680,cs),
(690,655,o),
(658,630,o),
(614,602,c)
);
}
);
userData = {
com.hugojourdan.ColorFlow = {
"0" = 0;
"1" = 0;
"10" = 0;
"11" = 0;
"2" = 0;
"3" = 1;
"4" = 0;
"5" = 0;
"6" = 0;
"7" = 0;
"8" = 0;
"9" = 0;
};
};
width = 857;
}
);
metricLeft = L;
note = L;
},
{
color = 3;
glyphname = Lslash.case;
kernLeft = L;
kernRight = L;
lastChange = "2025-09-24 09:57:13 +0000";
layers = (
{
anchors = (
{
name = bottom;
pos = (429,0);
},
{
name = center;
pos = (429,375);
},
{
name = top;
pos = (635,890);
},
{
name = topright;
pos = (837,750);
}
);
layerId = m01;
shapes = (
{
closed = 1;
nodes = (
(405,310,o),
(753,389,o),
(855,431,cs),
(917,456,o),
(878,550,o),
(817,525,cs),
(738,493,o),
(381,412,o),
(191,412,cs),
(125,412,o),
(124,310,o),
(191,310,cs)
);
},
{
ref = L.case;
}
);
userData = {
com.hugojourdan.ColorFlow = {
"0" = 0;
"1" = 0;
"10" = 0;
"11" = 0;
"2" = 0;
"3" = 0;
"4" = 0;
"5" = 0;
"6" = 0;
"7" = 0;
"8" = 0;
"9" = 0;
};
};
width = 857;
}
);
metricLeft = L;
metricRight = L.case;
},
{
color = 3;
glyphname = M.case;
kernLeft = M;
kernRight = M;
lastChange = "2025-09-24 09:57:13 +0000";
layers = (
{
background = {
shapes = (
{
closed = 0;
nodes = (
(273,778,l,{
"Letterink-NibData" = {
AngleInDegrees = "28";
MainAxisWidth = "87";
MinorAxisWidth = "87";
ValidForParentMainAxisWidth = "15";
ValidForParentMinorAxisWidth = "15";
};
"Letterink-NibStyleId" = "6";
}),
(262,697,o),
(199,399,o),
(120,-1,c,{
"Letterink-NibData" = {
AngleInDegrees = "28";
MainAxisWidth = "85";
MinorAxisWidth = "85";
ValidForParentMainAxisWidth = "15";
ValidForParentMinorAxisWidth = "15";
};
"Letterink-NibStyleId" = "7";
}),
(335,528,o),
(453,822,o),
(569,775,cs,{
"Letterink-NibData" = {
AngleInDegrees = "28";
MainAxisWidth = "85";
MinorAxisWidth = "85";
ValidForParentMainAxisWidth = "15";
ValidForParentMinorAxisWidth = "15";
};
"Letterink-NibStyleId" = "7";
}),
(693,725,o),
(575,355,o),
(531,9,c,{
"Letterink-NibData" = {
AngleInDegrees = "28";
MainAxisWidth = "85";
MinorAxisWidth = "85";
ValidForParentMainAxisWidth = "15";
ValidForParentMinorAxisWidth = "15";
};
"Letterink-NibStyleId" = "7";
}),
(638,294,o),
(856,797,o),
(1026,743,cs,{
"Letterink-NibData" = {
AngleInDegrees = "28";
MainAxisWidth = "85";
MinorAxisWidth = "85";
ValidForParentMainAxisWidth = "15";
ValidForParentMinorAxisWidth = "15";
};
"Letterink-NibStyleId" = "7";
}),
(1161,700,o),
(986,397,o),
(930,207,cs,{
"Letterink-NibData" = {
AngleInDegrees = "28";
MainAxisWidth = "87";
MinorAxisWidth = "87";
ValidForParentMainAxisWidth = "15";
ValidForParentMinorAxisWidth = "15";
};
"Letterink-NibStyleId" = "6";
}),
(897,96,o),
(918,15,o),
(980,4,cs,{
"Letterink-NibData" = {
AngleInDegrees = "28";
MainAxisWidth = "85";
MinorAxisWidth = "85";
ValidForParentMainAxisWidth = "15";
ValidForParentMinorAxisWidth = "15";
};
"Letterink-NibStyleId" = "7";
}),
(1061,-11,o),
(1142,34,o),
(1276,128,c,{
"Letterink-NibData" = {
AngleInDegrees = 28;
MainAxisWidth = 79;
MinorAxisWidth = 79;
ValidForParentMainAxisWidth = 15;
ValidForParentMinorAxisWidth = 15;
};
"Letterink-NibStyleId" = 1;
})
);
}
);
};
layerId = m01;
shapes = (
{
closed = 1;
nodes = (
(1063,-36,o),
(1155,16,o),
(1303,120,cs),
(1352,154,o),
(1299,231,o),
(1249,196,cs),
(1107,97,o),
(1023,76,o),
(991,83,cs),
(976,86,o),
(937,114,o),
(969,223,cs),
(1015,380,o),
(1230,723,o),
(1014,803,cs),
(892,848,o),
(767,738,o),
(665,583,c),
(679,714,o),
(659,812,o),
(569,851,cs),
(441,906,o),
(321,765,o),
(231,600,cs),
(153,457,o),
(84,266,o),
(41,44,cs),
(29,-20,o),
(128,-42,o),
(141,24,cs),
(182,236,o),
(249,420,o),
(321,552,cs),
(427,746,o),
(499,772,o),
(529,759,cs),
(603,727,o),
(554,504,o),
(442,82,cs),
(425,19,o),
(523,-9,o),
(540,56,cs),
(623,368,o),
(853,756,o),
(980,709,cs),
(1053,682,o),
(946,506,o),
(871,251,cs),
(837,135,o),
(840,14,o),
(969,-15,cs)
);
}
);
userData = {
com.hugojourdan.ColorFlow = {
"0" = 0;
"1" = 0;
"10" = 0;
"11" = 0;
"2" = 0;
"3" = 1;
"4" = 0;
"5" = 0;
"6" = 0;
"7" = 0;
"8" = 0;
"9" = 0;
};
};
width = 1189;
}
);
metricLeft = M;
note = M;
},
{
color = 3;
glyphname = N.case;
kernLeft = N;
kernRight = N;
lastChange = "2025-09-24 09:57:13 +0000";
layers = (
{
anchors = (
{
name = bottom;
pos = (397,0);
},
{
name = top;
pos = (543,890);
}
);
background = {
shapes = (
{
closed = 0;
nodes = (
(70,682,l,{
"Letterink-NibData" = {
AngleInDegrees = "28";
MainAxisWidth = "87";
MinorAxisWidth = "87";
ValidForParentMainAxisWidth = "15";
ValidForParentMinorAxisWidth = "15";
};
"Letterink-NibStyleId" = "6";
}),
(93,759,o),
(148,812,o),
(204,798,cs,{
"Letterink-NibData" = {
AngleInDegrees = "28";
MainAxisWidth = "85";
MinorAxisWidth = "85";
ValidForParentMainAxisWidth = "15";
ValidForParentMinorAxisWidth = "15";
};
"Letterink-NibStyleId" = "7";
}),
(247,788,o),
(259,723,o),
(243,626,cs,{
"Letterink-NibData" = {
AngleInDegrees = "28";
MainAxisWidth = "85";
MinorAxisWidth = "85";
ValidForParentMainAxisWidth = "15";
ValidForParentMinorAxisWidth = "15";
};
"Letterink-NibStyleId" = "7";
}),
(221,498,o),
(174,300,o),
(90,17,c,{
"Letterink-NibData" = {
AngleInDegrees = "28";
MainAxisWidth = "87";
MinorAxisWidth = "87";
ValidForParentMainAxisWidth = "15";
ValidForParentMinorAxisWidth = "15";
};
"Letterink-NibStyleId" = "6";
}),
(178,197,o),
(377,520,o),
(462,629,cs,{
"Letterink-NibData" = {
AngleInDegrees = "28";
MainAxisWidth = "85";
MinorAxisWidth = "85";
ValidForParentMainAxisWidth = "15";
ValidForParentMinorAxisWidth = "15";
};
"Letterink-NibStyleId" = "7";
}),
(543,733,o),
(631,783,o),
(694,748,cs,{
"Letterink-NibData" = {
AngleInDegrees = "28";
MainAxisWidth = "87";
MinorAxisWidth = "87";
ValidForParentMainAxisWidth = "15";
ValidForParentMinorAxisWidth = "15";
};
"Letterink-NibStyleId" = "6";
}),
(750,718,o),
(753,651,o),
(699,517,cs,{
"Letterink-NibData" = {
AngleInDegrees = "28";
MainAxisWidth = "87";
MinorAxisWidth = "87";
ValidForParentMainAxisWidth = "15";
ValidForParentMinorAxisWidth = "15";
};
"Letterink-NibStyleId" = "6";
}),
(688,489,o),
(584,250,o),
(562,168,cs,{
"Letterink-NibData" = {
AngleInDegrees = "28";
MainAxisWidth = "87";
MinorAxisWidth = "87";
ValidForParentMainAxisWidth = "15";
ValidForParentMinorAxisWidth = "15";
};
"Letterink-NibStyleId" = "6";
}),
(542,91,o),
(580,24,o),
(647,19,c,{
"Letterink-NibData" = {
AngleInDegrees = "28";
MainAxisWidth = "85";
MinorAxisWidth = "85";
ValidForParentMainAxisWidth = "15";
ValidForParentMinorAxisWidth = "15";
};
"Letterink-NibStyleId" = "7";
})
);
}
);
};
layerId = m01;
shapes = (
{
closed = 1;
nodes = (
(734,-7,o),
(809,41,o),
(929,129,cs),
(979,166,o),
(922,241,o),
(873,205,cs),
(755,118,o),
(694,96,o),
(651,99,cs),
(626,101,o),
(597,128,o),
(612,185,cs),
(632,259,o),
(736,500,o),
(747,528,cs),
(799,658,o),
(816,770,o),
(719,823,cs),
(613,881,o),
(505,794,o),
(424,690,cs),
(380,634,o),
(315,534,o),
(248,422,c),
(289,579,o),
(321,712,o),
(335,802,cs),
(345,865,o),
(247,883,o),
(237,818,cs),
(214,671,o),
(129,368,o),
(42,42,cs),
(26,-17,o),
(111,-48,o),
(137,7,cs),
(223,188,o),
(420,523,o),
(502,628,cs),
(585,734,o),
(645,747,o),
(671,733,cs),
(684,726,o),
(708,705,o),
(653,566,cs),
(642,539,o),
(538,302,o),
(514,211,cs),
(488,114,o),
(536,6,o),
(645,-1,cs)
);
}
);
userData = {
com.hugojourdan.ColorFlow = {
"0" = 0;
"1" = 0;
"10" = 0;
"11" = 0;
"2" = 0;
"3" = 1;
"4" = 0;
"5" = 0;
"6" = 0;
"7" = 0;
"8" = 0;
"9" = 0;
};
};
width = 793;
}
);
metricLeft = N;
note = N;
},
{
color = 3;
glyphname = O.case;
kernLeft = O;
kernRight = O;
lastChange = "2025-09-24 09:57:13 +0000";
layers = (
{
anchors = (
{
name = bottom;
pos = (408,-15);
},
{
name = center;
pos = (518,455);
},
{
name = ogonek;
pos = (914,26);
},
{
name = top;
pos = (556,901);
},
{
name = topright;
pos = (635,878);
}
);
background = {
hints = (
{
horizontal = 1;
place = (721,75);
type = Stem;
},
{
horizontal = 1;
place = (577,64);
type = Stem;
},
{
horizontal = 1;
place = (-8,70);
type = Stem;
},
{
place = (564,73);
type = Stem;
},
{
place = (314,73);
type = Stem;
},
{
place = (18,76);
type = Stem;
}
);
shapes = (
{
closed = 1;
nodes = (
(382,-6,o),
(408,-1,o),
(432,7,cs),
(462,17,o),
(489,31,o),
(516,53,cs),
(542,74,o),
(565,100,o),
(589,134,cs),
(613,168,o),
(637,212,o),
(652,247,c),
(701,254,o),
(750,271,o),
(812,300,cs),
(863,324,o),
(910,351,o),
(945,376,cs),
(952,381,o),
(958,390,o),
(958,401,cs),
(958,418,o),
(944,431,o),
(927,431,cs),
(922,431,o),
(916,430,o),
(909,425,cs),
(831,371,o),
(753,334,o),
(680,317,c),
(710,417,o),
(704,504,o),
(662,572,cs),
(638,611,o),
(607,634,o),
(563,641,cs),
(517,648,o),
(475,635,o),
(442,607,cs),
(415,584,o),
(392,550,o),
(382,508,cs),
(372,467,o),
(376,426,o),
(387,393,cs),
(399,357,o),
(420,326,o),
(449,302,cs),
(478,278,o),
(516,260,o),
(571,247,c),
(559,224,o),
(544,200,o),
(526,174,cs),
(490,123,o),
(455,92,o),
(415,76,cs),
(375,60,o),
(330,58,o),
(290,68,cs),
(259,76,o),
(233,91,o),
(211,116,cs),
(189,141,o),
(176,167,o),
(167,201,cs),
(152,257,o),
(152,327,o),
(166,393,cs),
(179,454,o),
(204,512,o),
(240,561,cs),
(284,621,o),
(340,663,o),
(394,687,cs),
(439,707,o),
(489,717,o),
(548,720,cs),
(568,721,o),
(584,736,o),
(584,761,cs),
(584,786,o),
(569,794,o),
(524,794,cs),
(508,794,o),
(493,793,o),
(473,790,cs),
(440,785,o),
(407,777,o),
(375,766,cs),
(335,752,o),
(304,735,o),
(272,709,cs),
(240,683,o),
(206,647,o),
(176,603,cs),
(131,537,o),
(99,459,o),
(86,375,cs),
(74,297,o),
(80,221,o),
(102,170,c),
(137,73,o),
(197,16,o),
(280,-3,cs),
(302,-8,o),
(324,-10,o),
(352,-8,cs)
);
},
{
closed = 1;
nodes = (
(443,454,o),
(449,495,o),
(464,526,cs),
(480,559,o),
(505,577,o),
(541,577,cs),
(572,577,o),
(593,563,o),
(608,533,cs),
(632,484,o),
(635,400,o),
(599,313,c),
(596,313,o),
(592,314,o),
(587,315,cs),
(588,315,o),
(569,320,o),
(559,323,cs),
(532,331,o),
(510,344,o),
(498,354,cs),
(480,369,o),
(464,392,o),
(456,416,cs)
);
}
);
};
layerId = m01;
shapes = (
{
closed = 1;
nodes = (
(564,-13,o),
(701,108,o),
(753,286,c),
(858,296,o),
(966,347,o),
(1049,423,cs),
(1095,465,o),
(1031,543,o),
(981,497,cs),
(921,442,o),
(845,405,o),
(774,391,c),
(777,419,o),
(778,443,o),
(778,461,cs),
(778,617,o),
(718,741,o),
(583,741,cs),
(490,741,o),
(400,666,o),
(400,536,cs),
(400,411,o),
(508,312,o),
(649,289,c),
(604,156,o),
(513,87,o),
(400,87,cs),
(258,87,o),
(182,209,o),
(182,360,cs),
(182,576,o),
(327,754,o),
(528,780,cs),
(581,787,o),
(639,781,o),
(678,769,cs),
(741,750,o),
(770,846,o),
(708,865,cs),
(654,881,o),
(586,889,o),
(516,880,cs),
(264,847,o),
(80,622,o),
(80,360,cs),
(80,129,o),
(222,-13,o),
(400,-13,cs)
);
},
{
closed = 1;
nodes = (
(554,401,o),
(502,454,o),
(502,536,cs),
(502,584,o),
(524,641,o),
(583,641,cs),
(628,641,o),
(678,593,o),
(678,461,cs),
(678,444,o),
(677,418,o),
(672,387,c)
);
}
);
userData = {
com.hugojourdan.ColorFlow = {
"0" = 0;
"1" = 0;
"10" = 0;
"11" = 0;
"2" = 0;
"3" = 1;
"4" = 0;
"5" = 0;
"6" = 0;
"7" = 0;
"8" = 0;
"9" = 0;
};
};
width = 927;
}
);
metricLeft = O;
note = O;
},
{
color = 3;
glyphname = OE.case;
kernLeft = O;
kernRight = E;
lastChange = "2025-09-24 09:57:13 +0000";
layers = (
{
anchors = (
{
name = bottom;
pos = (1278,-15);
},
{
name = center;
pos = (518,455);
},
{
name = ogonek;
pos = (1916,20);
},
{
name = top;
pos = (1709,921);
},
{
name = topright;
pos = (635,878);
}
);
layerId = m01;
shapes = (
{
closed = 1;
nodes = (
(680,-29,o),
(858,-30,o),
(974,-29,cs),
(1040,-28,o),
(1042,74,o),
(974,73,cs),
(865,72,o),
(705,71,o),
(616,68,c),
(622,134,o),
(635,223,o),
(659,356,c),
(745,360,o),
(914,359,o),
(1025,361,cs),
(1090,362,o),
(1089,464,o),
(1023,463,cs),
(921,461,o),
(773,461,o),
(678,457,c),
(741,782,l),
(1074,781,ls),
(1140,781,o),
(1141,883,o),
(1074,883,cs),
(715,882,l),
(698,888,o),
(680,886,o),
(667,875,c),
(620,884,o),
(569,887,o),
(516,880,cs),
(264,847,o),
(80,622,o),
(80,360,cs),
(80,129,o),
(222,-13,o),
(400,-13,cs),
(438,-13,o),
(474,-8,o),
(510,4,c),
(510,-1,ls),
(510,-54,o),
(576,-65,o),
(602,-32,c)
);
},
{
closed = 1;
nodes = (
(258,87,o),
(182,209,o),
(182,360,cs),
(182,576,o),
(327,754,o),
(528,780,cs),
(564,785,o),
(604,783,o),
(637,778,c),
(569,439,o),
(533,247,o),
(518,119,c),
(484,99,o),
(444,87,o),
(400,87,cs)
);
}
);
userData = {
com.hugojourdan.ColorFlow = {
"0" = 0;
"1" = 0;
"10" = 0;
"11" = 0;
"2" = 0;
"3" = 0;
"4" = 0;
"5" = 0;
"6" = 0;
"7" = 0;
"8" = 0;
"9" = 0;
};
};
width = 1164;
}
);
metricLeft = O;
},
{
color = 3;
glyphname = Q.case;
kernLeft = Q;
kernRight = Q;
lastChange = "2025-09-24 09:57:13 +0000";
layers = (
{
anchors = (
{
name = bottom;
pos = (260,10);
},
{
name = center;
pos = (385,455);
},
{
name = ogonek;
pos = (-162,26);
},
{
name = top;
pos = (508,901);
},
{
name = topleft;
pos = (417,878);
}
);
background = {
anchors = (
{
name = bottom;
pos = (284,-22);
},
{
name = center;
pos = (420,462);
},
{
name = ogonek;
pos = (-174,-4);
},
{
name = top;
pos = (554,947);
},
{
name = topleft;
pos = (455,922);
}
);
shapes = (
{
closed = 0;
nodes = (
(369,855,l,{
"Letterink-NibData" = {
AngleInDegrees = "28";
MainAxisWidth = "65";
MinorAxisWidth = "65";
ValidForParentMainAxisWidth = "15";
ValidForParentMinorAxisWidth = "15";
};
"Letterink-NibStyleId" = "7";
}),
(423,871,o),
(493,878,o),
(557,870,cs,{
"Letterink-NibData" = {
AngleInDegrees = "28";
MainAxisWidth = "65";
MinorAxisWidth = "65";
ValidForParentMainAxisWidth = "15";
ValidForParentMinorAxisWidth = "15";
};
"Letterink-NibStyleId" = "7";
}),
(792,841,o),
(894,622,o),
(803,359,cs,{
"Letterink-NibData" = {
AngleInDegrees = "28";
MainAxisWidth = "69";
MinorAxisWidth = "69";
ValidForParentMainAxisWidth = "15";
ValidForParentMinorAxisWidth = "15";
};
"Letterink-NibStyleId" = "6";
}),
(730,148,o),
(569,8,o),
(399,8,cs,{
"Letterink-NibData" = {
AngleInDegrees = "28";
MainAxisWidth = "65";
MinorAxisWidth = "65";
ValidForParentMainAxisWidth = "15";
ValidForParentMinorAxisWidth = "15";
};
"Letterink-NibStyleId" = "7";
}),
(239,8,o),
(133,133,o),
(145,335,cs,{
"Letterink-NibData" = {
AngleInDegrees = "28";
MainAxisWidth = "65";
MinorAxisWidth = "65";
ValidForParentMainAxisWidth = "15";
ValidForParentMinorAxisWidth = "15";
};
"Letterink-NibStyleId" = "7";
}),
(157,542,o),
(288,744,o),
(487,744,c,{
"Letterink-NibData" = {
AngleInDegrees = "28";
MainAxisWidth = "65";
MinorAxisWidth = "65";
ValidForParentMainAxisWidth = "15";
ValidForParentMinorAxisWidth = "15";
};
"Letterink-NibStyleId" = "7";
})
);
},
{
closed = 0;
nodes = (
(254,55,l,{
"Letterink-NibData" = {
AngleInDegrees = "28";
MainAxisWidth = "57";
MinorAxisWidth = "57";
ValidForParentMainAxisWidth = "15";
ValidForParentMinorAxisWidth = "15";
};
"Letterink-NibStyleId" = "8";
}),
(225,166,o),
(269,243,o),
(355,243,cs,{
"Letterink-NibData" = {
AngleInDegrees = "28";
MainAxisWidth = "65";
MinorAxisWidth = "65";
ValidForParentMainAxisWidth = "15";
ValidForParentMinorAxisWidth = "15";
};
"Letterink-NibStyleId" = "7";
}),
(463,243,o),
(528,126,o),
(552,86,cs,{
"Letterink-NibData" = {
AngleInDegrees = "28";
MainAxisWidth = "69";
MinorAxisWidth = "69";
ValidForParentMainAxisWidth = "15";
ValidForParentMinorAxisWidth = "15";
};
"Letterink-NibStyleId" = "6";
}),
(610,-11,o),
(677,-69,o),
(752,-69,cs,{
"Letterink-NibData" = {
AngleInDegrees = "28";
MainAxisWidth = "65";
MinorAxisWidth = "65";
ValidForParentMainAxisWidth = "15";
ValidForParentMinorAxisWidth = "15";
};
"Letterink-NibStyleId" = "7";
}),
(807,-69,o),
(867,-38,o),
(934,35,cs,{
"Letterink-NibData" = {
AngleInDegrees = "28";
MainAxisWidth = "65";
MinorAxisWidth = "65";
ValidForParentMainAxisWidth = "15";
ValidForParentMinorAxisWidth = "15";
};
"Letterink-NibStyleId" = "7";
}),
(1012,120,o),
(1098,262,o),
(1203,486,c,{
"Letterink-NibData" = {
AngleInDegrees = "28";
MainAxisWidth = "65";
MinorAxisWidth = "65";
ValidForParentMainAxisWidth = "15";
ValidForParentMinorAxisWidth = "15";
};
"Letterink-NibStyleId" = "7";
})
);
}
);
};
layerId = m01;
shapes = (
{
closed = 1;
nodes = (
(800,-37,o),
(909,13,o),
(1064,118,cs),
(1118,154,o),
(1062,237,o),
(1008,200,cs),
(861,101,o),
(764,63,o),
(697,63,cs),
(667,63,o),
(641,70,o),
(617,85,c),
(689,148,o),
(748,239,o),
(784,344,cs),
(883,628,o),
(768,848,o),
(517,880,cs),
(451,888,o),
(381,882,o),
(324,866,cs),
(260,848,o),
(288,750,o),
(352,768,cs),
(395,780,o),
(453,787,o),
(505,780,cs),
(686,757,o),
(759,576,o),
(690,376,cs),
(658,285,o),
(606,211,o),
(547,161,c),
(541,172,ls),
(494,251,o),
(417,304,o),
(329,304,cs),
(264,304,o),
(218,266,o),
(195,215,c),
(184,249,o),
(180,288,o),
(183,336,cs),
(194,518,o),
(303,663,o),
(447,663,cs),
(513,663,o),
(514,765,o),
(447,765,cs),
(226,765,o),
(93,546,o),
(81,342,cs),
(68,133,o),
(188,-13,o),
(366,-13,cs),
(424,-13,o),
(480,1,o),
(531,27,c),
(578,-13,o),
(634,-37,o),
(697,-37,cs)
);
},
{
closed = 1;
nodes = (
(333,87,o),
(303,94,o),
(277,108,c),
(265,173,o),
(296,204,o),
(329,204,cs),
(373,204,o),
(421,174,o),
(453,120,cs),
(461,107,l),
(429,94,o),
(397,87,o),
(366,87,cs)
);
}
);
userData = {
com.hugojourdan.ColorFlow = {
"0" = 0;
"1" = 0;
"10" = 0;
"11" = 0;
"2" = 0;
"3" = 1;
"4" = 0;
"5" = 0;
"6" = 0;
"7" = 0;
"8" = 0;
"9" = 0;
};
};
width = 948;
}
);
metricLeft = Q;
note = Q;
},
{
color = 3;
glyphname = R.case;
kernLeft = R;
kernRight = R;
lastChange = "2025-09-24 09:57:13 +0000";
layers = (
{
anchors = (
{
name = bottom;
pos = (441,0);
},
{
name = top;
pos = (588,890);
}
);
background = {
shapes = (
{
closed = 1;
nodes = (
(716,-15,o),
(758,-4,o),
(797,18,cs),
(829,36,o),
(862,65,o),
(897,105,cs),
(904,113,o),
(906,118,o),
(906,125,cs),
(906,146,o),
(891,161,o),
(872,161,cs),
(863,161,o),
(854,158,o),
(846,149,cs),
(787,83,o),
(731,55,o),
(667,55,cs),
(612,55,o),
(558,75,o),
(515,115,cs),
(497,132,o),
(476,157,o),
(424,228,c),
(466,230,o),
(507,236,o),
(547,246,cs),
(586,256,o),
(627,271,o),
(664,291,cs),
(705,313,o),
(735,338,o),
(760,369,cs),
(788,404,o),
(807,443,o),
(816,482,cs),
(832,551,o),
(814,611,o),
(775,658,cs),
(732,710,o),
(661,749,o),
(576,771,cs),
(522,785,o),
(463,792,o),
(409,793,cs),
(356,794,o),
(298,790,o),
(240,778,cs),
(177,765,o),
(126,745,o),
(84,720,cs),
(38,693,o),
(-1,659,o),
(-25,624,cs),
(-45,595,o),
(-55,565,o),
(-55,533,cs),
(-55,519,o),
(-53,504,o),
(-47,486,cs),
(-42,470,o),
(-35,458,o),
(-27,448,cs),
(-7,424,o),
(29,407,o),
(60,404,cs),
(69,403,o),
(90,402,o),
(97,402,cs),
(109,402,o),
(119,402,o),
(127,403,cs),
(150,406,l),
(167,409,l),
(172,410,ls),
(177,411,o),
(179,413,o),
(182,417,cs),
(187,424,o),
(189,431,o),
(189,439,cs),
(189,451,o),
(184,462,o),
(176,471,cs),
(172,476,o),
(168,477,o),
(162,475,cs),
(159,474,l),
(145,471,l),
(127,468,ls),
(121,467,o),
(112,466,o),
(102,466,cs),
(75,466,o),
(48,474,o),
(33,489,cs),
(22,500,o),
(20,513,o),
(20,523,cs),
(20,535,o),
(23,551,o),
(29,565,cs),
(36,582,o),
(47,597,o),
(60,611,cs),
(75,627,o),
(93,641,o),
(114,654,cs),
(145,673,o),
(181,688,o),
(223,698,cs),
(268,709,o),
(327,717,o),
(377,718,cs),
(431,719,o),
(501,712,o),
(556,698,cs),
(638,677,o),
(690,640,o),
(718,605,cs),
(745,571,o),
(754,533,o),
(747,494,cs),
(741,460,o),
(722,427,o),
(695,399,cs),
(668,371,o),
(633,349,o),
(596,333,cs),
(561,318,o),
(520,305,o),
(479,297,cs),
(439,289,o),
(401,285,o),
(366,285,c),
(344,296,o),
(322,306,o),
(299,314,c),
(364,601,ls),
(370,625,o),
(351,648,o),
(327,648,cs),
(308,648,o),
(293,635,o),
(289,618,cs),
(223,329,l),
(194,329,ls),
(177,329,o),
(160,323,o),
(149,312,cs),
(139,302,o),
(137,290,o),
(138,279,cs),
(140,265,o),
(146,258,o),
(156,251,cs),
(167,243,o),
(183,236,o),
(201,231,c),
(159,47,ls),
(154,23,o),
(172,0,o),
(196,0,cs),
(214,0,o),
(230,13,o),
(234,30,cs),
(277,217,l),
(299,215,o),
(321,215,o),
(342,216,c),
(352,204,o),
(367,185,o),
(386,159,cs),
(403,136,o),
(416,117,o),
(429,102,cs),
(440,89,o),
(455,73,o),
(472,57,cs),
(490,40,o),
(507,27,o),
(525,18,cs),
(541,10,o),
(562,2,o),
(587,-5,cs),
(613,-12,o),
(639,-15,o),
(665,-15,cs)
);
}
);
};
layerId = m01;
shapes = (
{
closed = 1;
nodes = (
(186,-37,o),
(264,54,o),
(301,173,cs),
(303,180,o),
(331,278,o),
(365,403,c),
(377,384,o),
(401,372,o),
(431,364,c),
(444,153,o),
(516,0,o),
(698,0,cs),
(799,0,o),
(920,52,o),
(1002,122,cs),
(1052,164,o),
(987,240,o),
(938,198,cs),
(876,146,o),
(763,100,o),
(698,100,cs),
(608,100,o),
(547,173,o),
(532,351,c),
(548,351,ls),
(738,351,o),
(853,468,o),
(853,624,cs),
(853,789,o),
(727,886,o),
(554,886,cs),
(529,886,o),
(505,884,o),
(481,880,c),
(485,938,o),
(392,957,o),
(380,892,cs),
(371,847,l),
(297,813,o),
(238,762,o),
(190,702,cs),
(150,652,o),
(228,590,o),
(268,640,cs),
(290,667,o),
(314,692,o),
(340,713,c),
(286,493,o),
(206,213,o),
(203,203,cs),
(174,109,o),
(112,65,o),
(70,65,cs),
(4,65,o),
(3,-37,o),
(70,-37,cs)
);
},
{
closed = 1;
nodes = (
(483,467,o),
(417,478,o),
(381,462,c),
(409,567,o),
(438,681,o),
(459,774,c),
(489,782,o),
(520,786,o),
(554,786,cs),
(690,786,o),
(751,724,o),
(751,624,cs),
(751,517,o),
(678,459,o),
(570,452,cs),
(561,452,l),
(540,451,l),
(507,451,l),
(507,451,l)
);
}
);
userData = {
com.hugojourdan.ColorFlow = {
"0" = 0;
"1" = 0;
"10" = 0;
"11" = 0;
"2" = 0;
"3" = 1;
"4" = 0;
"5" = 0;
"6" = 0;
"7" = 0;
"8" = 0;
"9" = 0;
};
};
width = 882;
}
);
metricLeft = R;
note = R;
},
{
color = 3;
glyphname = S.case;
kernLeft = S;
kernRight = S;
lastChange = "2025-09-24 09:57:13 +0000";
layers = (
{
anchors = (
{
name = bottom;
pos = (641,0);
},
{
name = top;
pos = (481,890);
}
);
background = {
shapes = (
{
closed = 1;
nodes = (
(788,241,o),
(777,252,o),
(763,252,cs),
(757,252,o),
(750,250,o),
(745,245,cs),
(725,224,ls),
(657,157,o),
(580,122,o),
(495,103,c),
(502,125,o),
(504,148,o),
(504,172,cs),
(504,386,o),
(206,403,o),
(206,540,cs),
(206,637,o),
(327,740,o),
(469,740,cs),
(565,740,o),
(612,685,o),
(612,614,cs),
(612,578,o),
(600,538,o),
(576,499,cs),
(573,494,o),
(572,491,o),
(572,486,cs),
(572,472,o),
(585,460,o),
(598,460,cs),
(606,460,o),
(613,463,o),
(619,472,cs),
(646,516,o),
(661,566,o),
(661,614,cs),
(661,708,o),
(603,791,o),
(469,791,cs),
(311,791,o),
(155,676,o),
(155,540,cs),
(155,363,o),
(454,354,o),
(454,172,cs),
(454,143,o),
(449,118,o),
(439,93,c),
(388,85,o),
(334,83,o),
(280,81,cs),
(113,79,o),
(31,42,o),
(31,-29,cs),
(31,-98,o),
(98,-132,o),
(158,-132,cs),
(286,-132,o),
(415,-63,o),
(473,46,c),
(578,65,o),
(675,104,o),
(760,189,cs),
(780,209,ls),
(785,214,o),
(788,221,o),
(788,227,cs)
);
},
{
closed = 1;
nodes = (
(351,-38,o),
(252,-82,o),
(158,-82,cs),
(109,-82,o),
(81,-57,o),
(81,-29,cs),
(81,-11,o),
(100,27,o),
(280,31,cs),
(324,32,o),
(366,34,o),
(408,37,c)
);
}
);
};
layerId = m01;
shapes = (
{
closed = 1;
nodes = (
(387,-184,o),
(513,-80,o),
(568,37,c),
(689,53,o),
(778,78,o),
(854,119,cs),
(909,149,o),
(865,239,o),
(806,207,cs),
(753,178,o),
(688,157,o),
(598,142,c),
(599,151,o),
(599,159,o),
(599,167,cs),
(599,322,o),
(473,380,o),
(394,430,cs),
(284,500,o),
(250,536,o),
(250,606,cs),
(250,716,o),
(362,791,o),
(470,791,cs),
(600,791,o),
(659,726,o),
(598,624,cs),
(565,569,o),
(650,515,o),
(684,572,cs),
(783,738,o),
(688,891,o),
(470,891,cs),
(280,891,o),
(148,754,o),
(148,606,cs),
(148,482,o),
(233,412,o),
(340,344,cs),
(428,288,o),
(497,242,o),
(497,167,cs),
(497,154,o),
(496,142,o),
(493,129,c),
(409,122,ls),
(224,110,o),
(40,84,o),
(40,-54,cs),
(40,-147,o),
(123,-184,o),
(223,-184,cs)
);
},
{
closed = 1;
nodes = (
(140,-84,o),
(140,-60,o),
(140,-54,cs),
(140,-38,o),
(192,7,o),
(415,22,cs),
(440,24,l),
(389,-38,o),
(308,-84,o),
(223,-84,cs)
);
}
);
userData = {
com.hugojourdan.ColorFlow = {
"0" = 0;
"1" = 0;
"10" = 0;
"11" = 0;
"2" = 0;
"3" = 1;
"4" = 0;
"5" = 0;
"6" = 0;
"7" = 0;
"8" = 0;
"9" = 0;
};
};
width = 752;
}
);
metricLeft = S;
note = S;
},
{
color = 3;
glyphname = U.case;
kernLeft = U;
kernRight = U;
lastChange = "2025-09-24 09:57:13 +0000";
layers = (
{
anchors = (
{
name = bottom;
pos = (334,-15);
},
{
name = ogonek;
pos = (1023,-8);
},
{
name = top;
pos = (500,922);
},
{
name = topright;
pos = (699,870);
}
);
background = {
shapes = (
{
closed = 0;
nodes = (
(1077,487,l,{
"Letterink-NibData" = {
AngleInDegrees = "28";
MainAxisWidth = "65";
MinorAxisWidth = "65";
ValidForParentMainAxisWidth = "15";
ValidForParentMinorAxisWidth = "15";
};
"Letterink-NibStyleId" = "7";
}),
(1011,301,o),
(948,170,o),
(890,89,cs,{
"Letterink-NibData" = {
AngleInDegrees = "28";
MainAxisWidth = "65";
MinorAxisWidth = "65";
ValidForParentMainAxisWidth = "15";
ValidForParentMinorAxisWidth = "15";
};
"Letterink-NibStyleId" = "7";
}),
(834,12,o),
(782,-21,o),
(725,-21,cs,{
"Letterink-NibData" = {
AngleInDegrees = "28";
MainAxisWidth = "65";
MinorAxisWidth = "65";
ValidForParentMainAxisWidth = "15";
ValidForParentMinorAxisWidth = "15";
};
"Letterink-NibStyleId" = "7";
}),
(631,-21,o),
(617,71,o),
(663,281,cs,{
"Letterink-NibData" = {
AngleInDegrees = "28";
MainAxisWidth = "69";
MinorAxisWidth = "69";
ValidForParentMainAxisWidth = "15";
ValidForParentMinorAxisWidth = "15";
};
"Letterink-NibStyleId" = "6";
}),
(790,862,l,{
"Letterink-NibData" = {
AngleInDegrees = "28";
MainAxisWidth = "69";
MinorAxisWidth = "69";
ValidForParentMainAxisWidth = "15";
ValidForParentMinorAxisWidth = "15";
};
"Letterink-NibStyleId" = "6";
}),
(675,618,o),
(537,364,o),
(428,204,cs,{
"Letterink-NibData" = {
AngleInDegrees = "28";
MainAxisWidth = "65";
MinorAxisWidth = "65";
ValidForParentMainAxisWidth = "15";
ValidForParentMinorAxisWidth = "15";
};
"Letterink-NibStyleId" = "7";
}),
(335,67,o),
(263,13,o),
(190,32,cs,{
"Letterink-NibData" = {
AngleInDegrees = "28";
MainAxisWidth = "65";
MinorAxisWidth = "65";
ValidForParentMainAxisWidth = "15";
ValidForParentMinorAxisWidth = "15";
};
"Letterink-NibStyleId" = "7";
}),
(110,53,o),
(127,171,o),
(168,328,cs,{
"Letterink-NibData" = {
AngleInDegrees = "28";
MainAxisWidth = "69";
MinorAxisWidth = "69";
ValidForParentMainAxisWidth = "15";
ValidForParentMinorAxisWidth = "15";
};
"Letterink-NibStyleId" = "6";
}),
(314,898,l,{
"Letterink-NibData" = {
AngleInDegrees = "28";
MainAxisWidth = "65";
MinorAxisWidth = "65";
ValidForParentMainAxisWidth = "15";
ValidForParentMinorAxisWidth = "15";
};
"Letterink-NibStyleId" = "7";
}),
(38,898,o),
(-188,781,o),
(-188,639,cs,{
"Letterink-NibData" = {
AngleInDegrees = "28";
MainAxisWidth = "65";
MinorAxisWidth = "65";
ValidForParentMainAxisWidth = "15";
ValidForParentMinorAxisWidth = "15";
};
"Letterink-NibStyleId" = "7";
}),
(-188,552,o),
(-95,513,o),
(17,555,c,{
"Letterink-NibData" = {
AngleInDegrees = "28";
MainAxisWidth = "65";
MinorAxisWidth = "65";
ValidForParentMainAxisWidth = "15";
ValidForParentMinorAxisWidth = "15";
};
"Letterink-NibStyleId" = "7";
})
);
}
);
};
layerId = m01;
shapes = (
{
closed = 1;
nodes = (
(249,-64,o),
(310,49,o),
(407,190,cs),
(456,261,o),
(510,351,o),
(565,451,c),
(532,300,ls),
(491,111,o),
(509,-3,o),
(648,-3,cs),
(725,-3,o),
(817,47,o),
(916,118,cs),
(966,154,o),
(914,240,o),
(858,200,cs),
(769,136,o),
(673,97,o),
(648,97,cs),
(619,97,o),
(597,118,o),
(632,278,cs),
(748,812,ls),
(760,868,o),
(679,897,o),
(654,844,cs),
(549,623,o),
(423,389,o),
(325,246,cs),
(212,82,o),
(178,62,o),
(161,67,cs),
(144,72,o),
(131,146,o),
(175,319,cs),
(310,843,ls),
(327,908,o),
(228,933,o),
(212,869,cs),
(77,345,ls),
(43,214,o),
(-16,16,o),
(133,-29,cs)
);
}
);
userData = {
com.hugojourdan.ColorFlow = {
"0" = 0;
"1" = 0;
"10" = 0;
"11" = 0;
"2" = 0;
"3" = 1;
"4" = 0;
"5" = 0;
"6" = 0;
"7" = 0;
"8" = 0;
"9" = 0;
};
};
width = 798;
}
);
metricLeft = U;
note = U;
},
{
color = 3;
glyphname = X.case;
kernLeft = X;
kernRight = X;
lastChange = "2025-09-24 09:57:13 +0000";
layers = (
{
background = {
shapes = (
{
closed = 0;
nodes = (
(264,-22,l,{
"Letterink-NibData" = {
AngleInDegrees = "28";
MainAxisWidth = "69";
MinorAxisWidth = "69";
ValidForParentMainAxisWidth = "15";
ValidForParentMinorAxisWidth = "15";
};
"Letterink-NibStyleId" = "6";
}),
(467,287,o),
(759,640,o),
(978,864,cs,{
"Letterink-NibData" = {
AngleInDegrees = "28";
MainAxisWidth = "69";
MinorAxisWidth = "69";
ValidForParentMainAxisWidth = "15";
ValidForParentMinorAxisWidth = "15";
};
"Letterink-NibStyleId" = "6";
})
);
},
{
closed = 0;
nodes = (
(481,824,l,{
"Letterink-NibData" = {
AngleInDegrees = "28";
MainAxisWidth = "69";
MinorAxisWidth = "69";
ValidForParentMainAxisWidth = "15";
ValidForParentMinorAxisWidth = "15";
};
"Letterink-NibStyleId" = "6";
}),
(601,212,ls,{
"Letterink-NibData" = {
AngleInDegrees = "28";
MainAxisWidth = "69";
MinorAxisWidth = "69";
ValidForParentMainAxisWidth = "15";
ValidForParentMinorAxisWidth = "15";
};
"Letterink-NibStyleId" = "6";
}),
(630,68,o),
(665,-7,o),
(745,-7,cs,{
"Letterink-NibData" = {
AngleInDegrees = "28";
MainAxisWidth = "65";
MinorAxisWidth = "65";
ValidForParentMainAxisWidth = "15";
ValidForParentMinorAxisWidth = "15";
};
"Letterink-NibStyleId" = "7";
}),
(878,-7,o),
(993,141,o),
(1125,484,c,{
"Letterink-NibData" = {
AngleInDegrees = "28";
MainAxisWidth = "65";
MinorAxisWidth = "65";
ValidForParentMainAxisWidth = "15";
ValidForParentMinorAxisWidth = "15";
};
"Letterink-NibStyleId" = "7";
})
);
}
);
};
layerId = m01;
shapes = (
{
closed = 1;
nodes = (
(263,4,o),
(405,95,o),
(489,221,c),
(504,88,o),
(572,-11,o),
(703,-11,cs),
(797,-11,o),
(900,30,o),
(1045,117,cs),
(1101,151,o),
(1048,236,o),
(993,203,cs),
(855,120,o),
(765,89,o),
(703,89,cs),
(642,89,o),
(579,150,o),
(589,309,cs),
(607,596,o),
(769,721,o),
(991,700,cs),
(1057,694,o),
(1066,796,o),
(1001,802,cs),
(823,819,o),
(677,759,o),
(586,631,c),
(568,745,o),
(499,822,o),
(370,822,cs),
(287,822,o),
(214,776,o),
(176,704,cs),
(145,645,o),
(235,597,o),
(266,656,cs),
(286,694,o),
(327,720,o),
(370,720,cs),
(492,720,o),
(546,609,o),
(442,349,cs),
(388,215,o),
(248,105,o),
(80,72,cs),
(14,59,o),
(34,-41,o),
(100,-28,cs)
);
}
);
userData = {
com.hugojourdan.ColorFlow = {
"0" = 0;
"1" = 0;
"10" = 0;
"11" = 0;
"2" = 0;
"3" = 1;
"4" = 0;
"5" = 0;
"6" = 0;
"7" = 0;
"8" = 0;
"9" = 0;
};
};
width = 931;
}
);
metricLeft = X;
note = X;
},
{
color = 3;
glyphname = Y.case;
kernLeft = Y;
kernRight = Y;
lastChange = "2025-09-24 09:57:13 +0000";
layers = (
{
anchors = (
{
name = bottom;
pos = (1019,132);
},
{
name = top;
pos = (679,922);
}
);
background = {
hints = (
{
horizontal = 1;
place = (719,70);
type = Stem;
},
{
horizontal = 1;
place = (355,70);
type = Stem;
},
{
horizontal = 1;
place = (100,81);
type = Stem;
},
{
horizontal = 1;
place = (-283,72);
type = Stem;
},
{
place = (438,75);
type = Stem;
},
{
place = (362,73);
type = Stem;
},
{
place = (175,74);
type = Stem;
},
{
place = (18,71);
type = Stem;
}
);
shapes = (
{
closed = 1;
nodes = (
(470,-282,o),
(510,-278,o),
(550,-263,cs),
(645,-227,o),
(703,-140,o),
(736,16,cs),
(886,730,ls),
(890,751,o),
(874,772,o),
(852,772,cs),
(840,772,o),
(825,766,o),
(818,746,cs),
(815,737,o),
(784,620,o),
(702,417,cs),
(688,383,o),
(677,357,o),
(671,343,cs),
(658,315,o),
(649,297,o),
(641,282,cs),
(627,256,o),
(616,240,o),
(603,227,cs),
(591,215,o),
(576,204,o),
(558,195,cs),
(540,186,o),
(520,181,o),
(498,181,cs),
(417,181,o),
(392,249,o),
(420,370,cs),
(429,410,o),
(441,445,o),
(456,491,cs),
(476,554,o),
(484,587,o),
(487,614,cs),
(493,671,o),
(477,710,o),
(446,739,cs),
(412,771,o),
(361,789,o),
(301,789,cs),
(239,789,o),
(167,770,o),
(108,732,cs),
(54,697,o),
(15,649,o),
(-1,590,cs),
(-14,542,o),
(-10,492,o),
(11,450,cs),
(30,412,o),
(62,384,o),
(114,367,cs),
(144,357,o),
(172,353,o),
(217,355,cs),
(243,356,o),
(253,358,o),
(265,362,cs),
(286,369,o),
(294,376,o),
(294,393,cs),
(294,407,o),
(289,416,o),
(281,429,cs),
(277,435,o),
(271,433,o),
(269,433,cs),
(265,433,o),
(266,433,o),
(264,433,cs),
(246,430,l),
(222,427,ls),
(213,426,o),
(204,425,o),
(192,425,cs),
(150,425,o),
(111,437,o),
(87,465,cs),
(63,493,o),
(57,532,o),
(68,572,cs),
(80,615,o),
(109,648,o),
(150,673,cs),
(194,700,o),
(247,715,o),
(290,718,cs),
(330,721,o),
(363,714,o),
(388,692,cs),
(410,673,o),
(416,650,o),
(412,616,cs),
(408,579,o),
(394,531,o),
(379,483,cs),
(361,425,o),
(354,405,o),
(347,373,cs),
(314,224,o),
(351,145,o),
(431,114,cs),
(454,105,o),
(482,100,o),
(504,100,cs),
(523,100,o),
(544,104,o),
(562,112,cs),
(580,120,o),
(596,130,o),
(611,142,cs),
(627,155,o),
(640,170,o),
(653,189,cs),
(666,208,o),
(678,228,o),
(688,246,cs),
(697,263,o),
(707,284,o),
(718,312,cs),
(722,323,o),
(728,338,o),
(736,357,c),
(668,29,ls),
(658,-20,o),
(638,-72,o),
(615,-111,cs),
(591,-151,o),
(567,-174,o),
(537,-190,cs),
(507,-206,o),
(478,-211,o),
(446,-211,cs),
(403,-211,o),
(369,-202,o),
(340,-186,cs),
(300,-164,o),
(277,-133,o),
(261,-98,cs),
(235,-39,o),
(230,27,o),
(227,41,cs),
(222,64,o),
(204,72,o),
(190,72,cs),
(168,72,o),
(150,52,o),
(153,30,cs),
(162,-38,o),
(173,-85,o),
(190,-123,cs),
(211,-170,o),
(243,-208,o),
(278,-234,cs),
(324,-268,o),
(377,-282,o),
(438,-282,cs)
);
}
);
};
layerId = m01;
shapes = (
{
closed = 1;
nodes = (
(533,-366,o),
(676,-244,o),
(733,-57,c),
(802,-23,o),
(903,29,o),
(1060,115,cs),
(1117,146,o),
(1069,234,o),
(1012,203,cs),
(908,146,o),
(829,104,o),
(768,73,c),
(833,324,o),
(886,577,o),
(974,813,cs),
(997,874,o),
(903,909,o),
(880,847,cs),
(792,611,o),
(695,422,o),
(606,302,cs),
(536,208,o),
(473,193,o),
(439,207,cs),
(401,223,o),
(374,258,o),
(402,360,cs),
(522,793,ls),
(531,824,o),
(510,856,o),
(474,856,cs),
(252,856,o),
(40,760,o),
(40,574,cs),
(40,460,o),
(129,395,o),
(260,432,cs),
(321,449,o),
(296,546,o),
(232,528,cs),
(185,515,o),
(140,532,o),
(140,574,cs),
(140,658,o),
(239,736,o),
(407,753,c),
(304,388,ls),
(276,287,o),
(298,158,o),
(401,115,cs),
(509,70,o),
(608,137,o),
(686,242,cs),
(717,285,l),
(694,194,o),
(671,102,o),
(647,12,c),
(593,-13,o),
(564,-25,o),
(532,-41,cs),
(385,-115,o),
(322,-255,o),
(421,-307,cs)
);
},
{
closed = 1;
nodes = (
(465,-218,o),
(430,-204,o),
(576,-131,cs),
(597,-121,l),
(543,-215,o),
(475,-223,o),
(467,-219,cs)
);
}
);
userData = {
com.hugojourdan.ColorFlow = {
"0" = 0;
"1" = 0;
"10" = 0;
"11" = 0;
"2" = 0;
"3" = 1;
"4" = 0;
"5" = 0;
"6" = 0;
"7" = 0;
"8" = 0;
"9" = 0;
};
};
width = 947;
}
);
metricLeft = Y;
note = Y;
},
{
color = 3;
glyphname = Z.case;
kernLeft = Z;
kernRight = Z;
lastChange = "2025-09-24 09:57:13 +0000";
layers = (
{
anchors = (
{
name = bottom;
pos = (451,0);
},
{
name = center;
pos = (451,375);
},
{
name = top;
pos = (671,890);
}
);
background = {
shapes = (
{
closed = 1;
nodes = (
(608,-51,o),
(666,-36,o),
(713,-15,cs),
(762,7,o),
(819,47,o),
(882,97,cs),
(889,103,o),
(893,112,o),
(893,122,cs),
(893,139,o),
(879,153,o),
(862,153,cs),
(855,153,o),
(848,151,o),
(843,147,cs),
(781,100,ls),
(765,88,o),
(742,73,o),
(715,59,cs),
(681,41,o),
(659,35,o),
(637,32,cs),
(615,29,o),
(591,29,o),
(563,33,c),
(564,37,ls),
(565,39,o),
(564,39,o),
(555,42,cs),
(529,50,o),
(480,74,o),
(402,120,c),
(413,131,ls),
(459,177,o),
(573,300,o),
(636,369,cs),
(683,421,o),
(700,440,o),
(832,588,cs),
(895,659,ls),
(903,668,o),
(908,680,o),
(908,694,cs),
(908,722,o),
(884,746,o),
(856,746,cs),
(851,746,o),
(846,745,o),
(842,744,cs),
(826,740,o),
(811,737,o),
(795,735,cs),
(771,732,o),
(745,732,o),
(703,736,cs),
(675,739,o),
(654,742,o),
(629,746,cs),
(609,749,o),
(567,758,o),
(550,762,cs),
(508,771,o),
(472,779,o),
(406,777,cs),
(348,775,o),
(307,766,o),
(276,756,cs),
(235,743,o),
(200,725,o),
(169,690,cs),
(138,655,o),
(117,611,o),
(109,568,cs),
(98,509,o),
(112,457,o),
(147,418,cs),
(184,377,o),
(241,356,o),
(311,356,cs),
(332,356,o),
(348,358,o),
(362,360,cs),
(376,362,o),
(385,363,o),
(393,365,cs),
(397,366,o),
(401,367,o),
(404,371,cs),
(408,376,o),
(412,385,o),
(412,395,cs),
(412,409,o),
(404,422,o),
(394,431,cs),
(390,434,o),
(388,435,o),
(381,434,cs),
(376,433,o),
(424,441,o),
(376,433,cs),
(358,430,l),
(334,427,ls),
(325,426,o),
(316,425,o),
(304,425,cs),
(267,425,o),
(231,435,o),
(204,461,cs),
(177,487,o),
(171,518,o),
(176,548,cs),
(181,578,o),
(197,612,o),
(221,639,cs),
(245,666,o),
(276,682,o),
(305,691,cs),
(337,701,o),
(376,706,o),
(413,706,cs),
(465,706,o),
(504,696,o),
(533,689,cs),
(621,668,o),
(699,652,o),
(798,664,c),
(572,401,o),
(416,231,o),
(331,154,c),
(282,181,o),
(253,196,o),
(226,207,cs),
(165,232,o),
(118,234,o),
(69,215,cs),
(15,194,o),
(-7,160,o),
(-7,107,cs),
(-7,61,o),
(10,27,o),
(44,5,cs),
(77,-16,o),
(123,-23,o),
(172,-16,cs),
(235,-7,o),
(297,24,o),
(345,65,c),
(456,-1,o),
(506,-26,o),
(547,-36,cs)
);
},
{
closed = 1;
nodes = (
(65,124,o),
(73,136,o),
(89,144,cs),
(107,153,o),
(128,155,o),
(144,154,cs),
(174,152,o),
(214,137,o),
(273,106,c),
(261,95,ls),
(240,76,o),
(204,61,o),
(173,55,cs),
(143,49,o),
(117,51,o),
(96,61,cs),
(75,71,o),
(65,86,o),
(65,107,cs)
);
}
);
};
layerId = m01;
shapes = (
{
closed = 1;
nodes = (
(290,-65,o),
(339,15,o),
(388,84,c),
(449,54,o),
(530,-3,o),
(662,-3,cs),
(783,-3,o),
(903,43,o),
(1018,121,cs),
(1072,157,o),
(1016,240,o),
(962,203,cs),
(858,133,o),
(757,97,o),
(662,97,cs),
(567,97,o),
(517,131,o),
(451,165,c),
(579,323,o),
(793,549,o),
(1006,758,cs),
(1041,793,o),
(1008,856,o),
(958,842,cs),
(791,796,o),
(685,783,o),
(448,803,cs),
(255,819,o),
(108,748,o),
(108,585,cs),
(108,431,o),
(242,411,o),
(363,455,cs),
(424,477,o),
(390,571,o),
(329,549,cs),
(224,511,o),
(208,557,o),
(208,585,cs),
(208,656,o),
(306,714,o),
(440,703,cs),
(597,690,o),
(709,692,o),
(813,708,c),
(631,525,o),
(460,341,o),
(352,205,c),
(204,246,o),
(40,215,o),
(40,68,cs),
(40,-1,o),
(88,-65,o),
(178,-65,cs)
);
},
{
closed = 1;
nodes = (
(160,35,o),
(140,41,o),
(140,68,cs),
(140,94,o),
(194,132,o),
(285,118,c),
(242,66,o),
(208,35,o),
(178,35,cs)
);
}
);
userData = {
com.hugojourdan.ColorFlow = {
"0" = 0;
"1" = 0;
"10" = 0;
"11" = 0;
"2" = 0;
"3" = 1;
"4" = 0;
"5" = 0;
"6" = 0;
"7" = 0;
"8" = 0;
"9" = 0;
};
};
width = 902;
}
);
metricLeft = Z;
note = Z;
},
{
color = 3;
glyphname = a.case;
kernLeft = KO_a;
kernRight = KO_a;
lastChange = "2025-09-24 09:57:13 +0000";
layers = (
{
anchors = (
{
name = bottom;
pos = (341,9);
},
{
name = ogonek;
pos = (668,20);
},
{
name = top;
pos = (429,614);
}
);
background = {
shapes = (
{
closed = 0;
nodes = (
(592,501,l,{
"Letterink-NibData" = {
AngleInDegrees = "343";
MainAxisWidth = "59";
MinorAxisWidth = "59";
ValidForParentMainAxisWidth = "15";
ValidForParentMinorAxisWidth = "15";
};
"Letterink-NibStyleId" = "2";
}),
(553,526,o),
(485,545,o),
(428,545,cs,{
"Letterink-NibData" = {
AngleInDegrees = "28";
MainAxisWidth = "59";
MinorAxisWidth = "59";
ValidForParentMainAxisWidth = "15";
ValidForParentMinorAxisWidth = "15";
};
"Letterink-NibStyleId" = "1";
}),
(238,545,o),
(79,353,o),
(79,187,cs,{
"Letterink-NibData" = {
AngleInDegrees = "28";
MainAxisWidth = "63";
MinorAxisWidth = "63";
ValidForParentMainAxisWidth = "15";
ValidForParentMinorAxisWidth = "15";
};
"Letterink-NibStyleId" = "2";
}),
(79,84,o),
(133,21,o),
(214,21,cs,{
"Letterink-NibData" = {
AngleInDegrees = "118";
MainAxisWidth = "55";
MinorAxisWidth = "55";
ValidForParentMainAxisWidth = "15";
ValidForParentMinorAxisWidth = "15";
};
"Letterink-NibStyleId" = "1";
}),
(281,21,o),
(353,61,o),
(408,134,cs,{
"Letterink-NibData" = {
AngleInDegrees = "66.92754364013672";
MainAxisWidth = "55";
MinorAxisWidth = "55";
ValidForParentMainAxisWidth = "15";
ValidForParentMinorAxisWidth = "15";
};
"Letterink-NibStyleId" = "1";
}),
(459,201,o),
(513,306,o),
(543,378,c,{
"Letterink-NibData" = {
AngleInDegrees = "222.211181640625";
MainAxisWidth = "59";
MinorAxisWidth = "59";
ValidForParentMainAxisWidth = "15";
ValidForParentMinorAxisWidth = "15";
};
"Letterink-NibStyleId" = "2";
}),
(496,145,ls,{
"Letterink-NibData" = {
AngleInDegrees = "221.2405090332031";
MainAxisWidth = "59";
MinorAxisWidth = "59";
ValidForParentMainAxisWidth = "15";
ValidForParentMinorAxisWidth = "15";
};
"Letterink-NibStyleId" = "2";
}),
(478,58,o),
(514,-3,o),
(581,-3,cs,{
"Letterink-NibData" = {
AngleInDegrees = "118";
MainAxisWidth = "55";
MinorAxisWidth = "55";
ValidForParentMainAxisWidth = "15";
ValidForParentMinorAxisWidth = "15";
};
"Letterink-NibStyleId" = "1";
}),
(628,-3,o),
(676,27,o),
(735,98,cs,{
"Letterink-NibData" = {
AngleInDegrees = "28";
MainAxisWidth = "59";
MinorAxisWidth = "59";
ValidForParentMainAxisWidth = "15";
ValidForParentMinorAxisWidth = "15";
};
"Letterink-NibStyleId" = "1";
}),
(829,207,o),
(936,389,o),
(986,488,c,{
"Letterink-NibData" = {
AngleInDegrees = "28";
MainAxisWidth = "59";
MinorAxisWidth = "59";
ValidForParentMainAxisWidth = "15";
ValidForParentMinorAxisWidth = "15";
};
"Letterink-NibStyleId" = "1";
})
);
}
);
};
layerId = m01;
shapes = (
{
closed = 1;
nodes = (
(629,-11,o),
(719,35,o),
(844,128,cs),
(892,164,o),
(838,241,o),
(788,204,cs),
(669,115,o),
(593,83,o),
(537,83,cs),
(531,83,o),
(491,94,o),
(503,153,cs),
(546,369,ls),
(557,422,o),
(479,448,o),
(457,396,cs),
(430,333,o),
(380,238,o),
(337,181,cs),
(294,123,o),
(240,96,o),
(197,96,cs),
(153,96,o),
(121,124,o),
(121,202,cs),
(121,328,o),
(242,484,o),
(394,484,cs),
(435,484,o),
(495,467,o),
(520,451,cs),
(570,419,o),
(623,497,o),
(570,531,cs),
(523,561,o),
(457,578,o),
(394,578,cs),
(196,578,o),
(25,382,o),
(25,202,cs),
(25,87,o),
(89,2,o),
(197,2,cs),
(274,2,o),
(348,44,o),
(404,113,c),
(406,47,o),
(441,-11,o),
(537,-11,cs)
);
}
);
userData = {
com.hugojourdan.ColorFlow = {
"0" = 0;
"1" = 0;
"10" = 0;
"11" = 0;
"2" = 0;
"3" = 1;
"4" = 0;
"5" = 0;
"6" = 0;
"7" = 0;
"8" = 0;
"9" = 0;
};
};
width = 725;
},
{
associatedMasterId = m01;
background = {
shapes = (
{
closed = 0;
nodes = (
(459,413,l,{
"Letterink-NibData" = {
AngleInDegrees = "28";
MainAxisWidth = "59";
MinorAxisWidth = "59";
ValidForParentMainAxisWidth = "15";
ValidForParentMinorAxisWidth = "15";
};
"Letterink-NibStyleId" = "2";
}),
(413,459,o),
(364,479,o),
(298,479,cs,{
"Letterink-NibData" = {
AngleInDegrees = "28";
MainAxisWidth = "55";
MinorAxisWidth = "55";
ValidForParentMainAxisWidth = "15";
ValidForParentMinorAxisWidth = "15";
};
"Letterink-NibStyleId" = "1";
}),
(176,479,o),
(77,358,o),
(77,208,cs,{
"Letterink-NibData" = {
AngleInDegrees = "28";
MainAxisWidth = "59";
MinorAxisWidth = "59";
ValidForParentMainAxisWidth = "15";
ValidForParentMinorAxisWidth = "15";
};
"Letterink-NibStyleId" = "2";
}),
(77,117,o),
(121,50,o),
(197,50,cs,{
"Letterink-NibData" = {
AngleInDegrees = "28";
MainAxisWidth = "55";
MinorAxisWidth = "55";
ValidForParentMainAxisWidth = "15";
ValidForParentMinorAxisWidth = "15";
};
"Letterink-NibStyleId" = "1";
}),
(246,50,o),
(285,80,o),
(328,134,cs,{
"Letterink-NibData" = {
AngleInDegrees = "28";
MainAxisWidth = "55";
MinorAxisWidth = "55";
ValidForParentMainAxisWidth = "15";
ValidForParentMinorAxisWidth = "15";
};
"Letterink-NibStyleId" = "1";
}),
(372,189,o),
(425,268,o),
(451,322,c,{
"Letterink-NibData" = {
AngleInDegrees = "28";
MainAxisWidth = "59";
MinorAxisWidth = "59";
ValidForParentMainAxisWidth = "15";
ValidForParentMinorAxisWidth = "15";
};
"Letterink-NibStyleId" = "2";
}),
(409,154,ls,{
"Letterink-NibData" = {
AngleInDegrees = "28";
MainAxisWidth = "59";
MinorAxisWidth = "59";
ValidForParentMainAxisWidth = "15";
ValidForParentMinorAxisWidth = "15";
};
"Letterink-NibStyleId" = "2";
}),
(384,52,o),
(393,-5,o),
(458,-5,cs,{
"Letterink-NibData" = {
AngleInDegrees = "28";
MainAxisWidth = "55";
MinorAxisWidth = "55";
ValidForParentMainAxisWidth = "15";
ValidForParentMinorAxisWidth = "15";
};
"Letterink-NibStyleId" = "1";
}),
(502,-5,o),
(552,21,o),
(620,103,cs,{
"Letterink-NibData" = {
AngleInDegrees = "28";
MainAxisWidth = "55";
MinorAxisWidth = "55";
ValidForParentMainAxisWidth = "15";
ValidForParentMinorAxisWidth = "15";
};
"Letterink-NibStyleId" = "1";
}),
(697,196,o),
(778,339,o),
(805,402,c,{
"Letterink-NibData" = {
AngleInDegrees = "28";
MainAxisWidth = "55";
MinorAxisWidth = "55";
ValidForParentMainAxisWidth = "15";
ValidForParentMinorAxisWidth = "15";
};
"Letterink-NibStyleId" = "1";
})
);
}
);
};
layerId = "A9F820C9-2C89-43B7-A73C-D7FC6E7C6C27";
name = Rialto;
shapes = (
{
closed = 1;
nodes = (
(439.937,305.55,o),
(508.373,320.452,o),
(496.96,365.467,cs),
(474.756,453.049,o),
(389.352,514,o),
(298,514,cs),
(164.81,514,o),
(40,388.967,o),
(40,208,cs),
(40,82.829,o),
(112.764,15,o),
(197,15,cs),
(262.602,15,o),
(310.671,56.406,o),
(355.268,112.058,cs),
(435.545,212.233,o),
(506.985,368.463,o),
(543.21,477.632,cs),
(558.084,522.455,o),
(488.145,546.644,o),
(472.79,500.368,cs),
(435.377,387.619,o),
(406.665,276.363,o),
(373.609,164.793,cs),
(344.187,65.487,o),
(350.128,-40,o),
(458,-40,cs),
(517.841,-40,o),
(577.232,-3.469,o),
(646.803,80.492,cs),
(727.946,178.419,o),
(807.867,319.84,o),
(837.218,388.324,cs),
(854.751,429.236,o),
(791.014,458.216,o),
(772.782,415.676,cs),
(748.133,358.16,o),
(666.126,213.521,o),
(593.197,125.508,cs),
(526.832,45.416,o),
(486.159,30,o),
(458,30,cs),
(435.872,30,o),
(413.953,40.472,o),
(444.391,143.207,cs),
(477.49,254.925,o),
(507.32,369.471,o),
(543.21,477.632,cs),
(558.084,522.455,o),
(488.145,546.644,o),
(472.79,500.368,cs),
(439.901,401.252,o),
(369.879,242.229,o),
(300.732,155.942,cs),
(258.996,103.861,o),
(229.398,85,o),
(197,85,cs),
(129.236,85,o),
(114,151.171,o),
(114,208,cs),
(114,327.033,o),
(187.19,444,o),
(298,444,cs),
(362.648,444,o),
(415.244,402.951,o),
(429.04,348.533,cs)
);
}
);
width = 670;
},
{
anchors = (
{
name = bottom;
pos = (334,0);
},
{
name = ogonek;
pos = (601,10);
},
{
name = top;
pos = (334,554);
}
);
associatedMasterId = m01;
background = {
shapes = (
{
pos = (-30,0);
ref = u;
}
);
};
layerId = "34A7B6C8-7C87-4E6B-8D4D-68639DBD334E";
name = "26 Jun 24 at 18:14";
shapes = (
{
closed = 1;
nodes = (
(495.356,350.148,o),
(549.312,400.803,o),
(515.618,435.7,cs),
(478.739,473.896,o),
(418.128,498,o),
(356,498,cs),
(184.781,498,o),
(40,307.651,o),
(40,177,cs),
(40,81.778,o),
(104.434,15,o),
(197,15,cs),
(262.624,15,o),
(310.663,56.44,o),
(355.276,112.068,cs),
(397.593,164.833,o),
(452.882,237.19,o),
(480.89,291.051,c),
(457.959,299.684,o),
(435.029,308.318,o),
(412.099,316.951,c),
(399.149,265.814,o),
(385.915,215.421,o),
(373.02,162.628,cs),
(349.632,66.874,o),
(347.466,-40,o),
(458,-40,cs),
(510.352,-40,o),
(552.763,-6.963,o),
(603.996,49.565,cs),
(693.59,148.418,o),
(781.723,310.388,o),
(831.622,382.359,cs),
(855.376,416.619,o),
(802.659,454.662,o),
(778.378,419.641,cs),
(724.277,341.612,o),
(634.522,187.48,o),
(552.004,96.435,cs),
(505.301,44.906,o),
(473.648,30,o),
(458,30,cs),
(438.534,30,o),
(418.644,37.548,o),
(444.98,145.372,cs),
(457.214,195.458,o),
(470.851,247.519,o),
(483.901,299.049,cs),
(494.37,340.39,o),
(435.112,363.413,o),
(415.11,324.949,cs),
(391.118,278.81,o),
(342.045,207.457,o),
(300.724,155.932,cs),
(258.963,103.86,o),
(229.376,85,o),
(197,85,cs),
(137.566,85,o),
(114,126.222,o),
(114,177,cs),
(114,270.349,o),
(221.219,428,o),
(356,428,cs),
(395.872,428,o),
(443.261,404.104,o),
(462.382,384.3,cs)
);
}
);
width = 668;
}
);
note = a;
userData = {
KernOnName = a;
};
},
{
color = 3;
glyphname = ae.case;
lastChange = "2025-09-24 09:57:13 +0000";
layers = (
{
background = {
shapes = (
{
closed = 0;
nodes = (
(467,165,l,{
"Letterink-NibData" = {
AngleInDegrees = "28";
MainAxisWidth = "79";
MinorAxisWidth = "79";
ValidForParentMainAxisWidth = "15";
ValidForParentMinorAxisWidth = "15";
};
"Letterink-NibStyleId" = "1";
}),
(536,207,o),
(613,259,o),
(674,312,cs,{
"Letterink-NibData" = {
AngleInDegrees = "28";
MainAxisWidth = "79";
MinorAxisWidth = "79";
ValidForParentMainAxisWidth = "15";
ValidForParentMinorAxisWidth = "15";
};
"Letterink-NibStyleId" = "1";
}),
(740,369,o),
(782,423,o),
(782,465,cs,{
"Letterink-NibData" = {
AngleInDegrees = "28";
MainAxisWidth = "79";
MinorAxisWidth = "79";
ValidForParentMainAxisWidth = "15";
ValidForParentMinorAxisWidth = "15";
};
"Letterink-NibStyleId" = "1";
}),
(782,504,o),
(743,535,o),
(698,535,cs,{
"Letterink-NibData" = {
AngleInDegrees = "28";
MainAxisWidth = "79";
MinorAxisWidth = "79";
ValidForParentMainAxisWidth = "15";
ValidForParentMinorAxisWidth = "15";
};
"Letterink-NibStyleId" = "1";
}),
(608,535,o),
(459,405,o),
(459,234,cs,{
"Letterink-NibData" = {
AngleInDegrees = "28";
MainAxisWidth = "81";
MinorAxisWidth = "81";
ValidForParentMainAxisWidth = "15";
ValidForParentMinorAxisWidth = "15";
};
"Letterink-NibStyleId" = "2";
}),
(459,113,o),
(529,31,o),
(643,31,cs,{
"Letterink-NibData" = {
AngleInDegrees = "28";
MainAxisWidth = "79";
MinorAxisWidth = "79";
ValidForParentMainAxisWidth = "15";
ValidForParentMinorAxisWidth = "15";
};
"Letterink-NibStyleId" = "1";
}),
(705,31,o),
(775,55,o),
(870,160,c,{
"Letterink-NibData" = {
AngleInDegrees = "28";
MainAxisWidth = "79";
MinorAxisWidth = "79";
ValidForParentMainAxisWidth = "15";
ValidForParentMinorAxisWidth = "15";
};
"Letterink-NibStyleId" = "1";
})
);
},
{
closed = 0;
nodes = (
(435,315,l,{
"Letterink-NibData" = {
AngleInDegrees = "28";
MainAxisWidth = "79";
MinorAxisWidth = "79";
ValidForParentMainAxisWidth = "15";
ValidForParentMinorAxisWidth = "15";
};
"Letterink-NibStyleId" = "1";
}),
(243,301,o),
(104,215,o),
(104,112,cs,{
"Letterink-NibData" = {
AngleInDegrees = "28";
MainAxisWidth = "79";
MinorAxisWidth = "79";
ValidForParentMainAxisWidth = "15";
ValidForParentMinorAxisWidth = "15";
};
"Letterink-NibStyleId" = "1";
}),
(104,62,o),
(139,31,o),
(188,31,cs,{
"Letterink-NibData" = {
AngleInDegrees = "28";
MainAxisWidth = "79";
MinorAxisWidth = "79";
ValidForParentMainAxisWidth = "15";
ValidForParentMinorAxisWidth = "15";
};
"Letterink-NibStyleId" = "1";
}),
(287,31,o),
(450,157,o),
(450,338,cs,{
"Letterink-NibData" = {
AngleInDegrees = "28";
MainAxisWidth = "81";
MinorAxisWidth = "81";
ValidForParentMainAxisWidth = "15";
ValidForParentMinorAxisWidth = "15";
};
"Letterink-NibStyleId" = "2";
}),
(450,451,o),
(390,535,o),
(301,535,cs,{
"Letterink-NibData" = {
AngleInDegrees = "28";
MainAxisWidth = "79";
MinorAxisWidth = "79";
ValidForParentMainAxisWidth = "15";
ValidForParentMinorAxisWidth = "15";
};
"Letterink-NibStyleId" = "1";
}),
(238,535,o),
(165,495,o),
(119,435,c,{
"Letterink-NibData" = {
AngleInDegrees = "28";
MainAxisWidth = "79";
MinorAxisWidth = "79";
ValidForParentMainAxisWidth = "15";
ValidForParentMinorAxisWidth = "15";
};
"Letterink-NibStyleId" = "1";
})
);
}
);
};
layerId = m01;
shapes = (
{
closed = 1;
nodes = (
(277,2,o),
(353,48,o),
(411,124,cs),
(459,187,o),
(505,280,o),
(528,337,cs),
(552,395,o),
(463,430,o),
(440,373,cs),
(419,323,o),
(373,229,o),
(337,182,cs),
(291,122,o),
(239,96,o),
(198,96,cs),
(139,96,o),
(120,124,o),
(120,199,cs),
(120,329,o),
(241,484,o),
(392,484,cs),
(424,484,o),
(467,473,o),
(485,463,cs),
(536,434,o),
(585,514,o),
(531,545,cs),
(492,567,o),
(442,578,o),
(392,578,cs),
(197,578,o),
(24,385,o),
(24,199,cs),
(24,87,o),
(90,2,o),
(198,2,cs)
);
},
{
pos = (373,0);
ref = e.case;
}
);
userData = {
com.hugojourdan.ColorFlow = {
"0" = 0;
"1" = 0;
"10" = 0;
"11" = 0;
"2" = 0;
"3" = 0;
"4" = 0;
"5" = 0;
"6" = 0;
"7" = 0;
"8" = 0;
"9" = 0;
};
};
width = 876;
}
);
metricLeft = a;
metricRight = e.case;
},
{
color = 3;
glyphname = b.case;
kernLeft = KO_b;
kernRight = KO_b;
lastChange = "2025-09-24 09:57:13 +0000";
layers = (
{
background = {
shapes = (
{
closed = 0;
nodes = (
(776,427,l,{
"Letterink-NibData" = {
AngleInDegrees = "28";
MainAxisWidth = "55";
MinorAxisWidth = "55";
ValidForParentMainAxisWidth = "15";
ValidForParentMinorAxisWidth = "15";
};
"Letterink-NibStyleId" = "1";
}),
(693,289,o),
(539,267,o),
(462,277,cs,{
"Letterink-NibData" = {
AngleInDegrees = "28";
MainAxisWidth = "55";
MinorAxisWidth = "55";
ValidForParentMainAxisWidth = "15";
ValidForParentMinorAxisWidth = "15";
};
"Letterink-NibStyleId" = "1";
}),
(399,285,o),
(355,318,o),
(355,371,cs,{
"Letterink-NibData" = {
AngleInDegrees = "28";
MainAxisWidth = "59";
MinorAxisWidth = "59";
ValidForParentMainAxisWidth = "15";
ValidForParentMinorAxisWidth = "15";
};
"Letterink-NibStyleId" = "2";
}),
(355,413,o),
(385,445,o),
(426,445,cs,{
"Letterink-NibData" = {
AngleInDegrees = "28";
MainAxisWidth = "55";
MinorAxisWidth = "55";
ValidForParentMainAxisWidth = "15";
ValidForParentMinorAxisWidth = "15";
};
"Letterink-NibStyleId" = "1";
}),
(498,445,o),
(528,357,o),
(497,240,cs,{
"Letterink-NibData" = {
AngleInDegrees = "28";
MainAxisWidth = "55";
MinorAxisWidth = "55";
ValidForParentMainAxisWidth = "15";
ValidForParentMinorAxisWidth = "15";
};
"Letterink-NibStyleId" = "1";
}),
(461,108,o),
(377,22,o),
(286,22,cs,{
"Letterink-NibData" = {
AngleInDegrees = "28";
MainAxisWidth = "55";
MinorAxisWidth = "55";
ValidForParentMainAxisWidth = "15";
ValidForParentMinorAxisWidth = "15";
};
"Letterink-NibStyleId" = "1";
}),
(117,22,o),
(114,223,o),
(144,385,cs,{
"Letterink-NibData" = {
AngleInDegrees = "28";
MainAxisWidth = "59";
MinorAxisWidth = "59";
ValidForParentMainAxisWidth = "15";
ValidForParentMinorAxisWidth = "15";
};
"Letterink-NibStyleId" = "2";
}),
(194,661,o),
(263,812,o),
(332,799,cs,{
"Letterink-NibData" = {
AngleInDegrees = "28";
MainAxisWidth = "55";
MinorAxisWidth = "55";
ValidForParentMainAxisWidth = "15";
ValidForParentMinorAxisWidth = "15";
};
"Letterink-NibStyleId" = "1";
}),
(388,789,o),
(376,725,o),
(290,587,cs,{
"Letterink-NibData" = {
AngleInDegrees = "28";
MainAxisWidth = "50";
MinorAxisWidth = "50";
ValidForParentMainAxisWidth = "15";
ValidForParentMinorAxisWidth = "15";
};
"Letterink-NibStyleId" = "1";
}),
(144,355,l,{
"Letterink-NibData" = {
AngleInDegrees = "28";
MainAxisWidth = "59";
MinorAxisWidth = "59";
ValidForParentMainAxisWidth = "15";
ValidForParentMinorAxisWidth = "15";
};
"Letterink-NibStyleId" = "2";
})
);
}
);
};
layerId = m01;
shapes = (
{
closed = 1;
nodes = (
(401,-13,o),
(474,34,o),
(524,107,c),
(606,77,o),
(706,79,o),
(802,123,cs),
(856,148,o),
(819,235,o),
(762,209,cs),
(691,176,o),
(623,173,o),
(568,191,c),
(577,214,o),
(585,240,o),
(591,267,cs),
(624,418,o),
(581,543,o),
(452,521,cs),
(356,505,o),
(318,438,o),
(343,317,cs),
(357,249,o),
(392,194,o),
(442,154,c),
(405,105,o),
(358,81,o),
(312,81,cs),
(227,81,o),
(168,181,o),
(212,445,c),
(213,446,l),
(304,610,ls),
(380,746,o),
(467,964,o),
(375,995,cs),
(280,1026,o),
(180,742,o),
(143,586,cs),
(63,249,o),
(89,-13,o),
(312,-13,cs)
);
},
{
closed = 1;
nodes = (
(461,268,o),
(445,299,o),
(437,337,cs),
(423,406,o),
(444,425,o),
(468,429,cs),
(489,432,o),
(526,408,o),
(499,287,cs),
(496,272,o),
(492,256,o),
(487,241,c)
);
}
);
userData = {
com.hugojourdan.ColorFlow = {
"0" = 0;
"1" = 0;
"10" = 0;
"11" = 0;
"2" = 0;
"3" = 1;
"4" = 0;
"5" = 0;
"6" = 0;
"7" = 0;
"8" = 0;
"9" = 0;
};
};
width = 690;
},
{
associatedMasterId = m01;
background = {
shapes = (
{
ref = h.ss01;
}
);
};
layerId = "19461BFA-3939-46FA-9B03-97791FD5061E";
name = OK1;
shapes = (
{
closed = 1;
nodes = (
(804.988,421.053,o),
(751.38,466.111,o),
(722.693,429.894,cs),
(651.376,339.856,o),
(532.592,303.575,o),
(461.106,311.758,cs),
(392.874,319.569,o),
(380,368.941,o),
(380,377,cs),
(380,399.311,o),
(389.971,410,o),
(400,410,cs),
(419.951,410,o),
(449,394.344,o),
(449,308,cs),
(449,243.357,o),
(411.842,166.689,o),
(368.291,118.75,cs),
(335.478,82.631,o),
(296.538,69,o),
(260,69,cs),
(213.764,69,o),
(181.995,91.452,o),
(171.059,139.293,cs),
(158.699,193.361,o),
(176.409,298.96,o),
(193.932,370.173,cs),
(269.571,677.569,o),
(369.577,776.272,o),
(384.582,764.021,cs),
(385.394,763.358,o),
(379.173,744.117,o),
(289.899,620.52,cs),
(234.069,543.224,o),
(191.908,455.287,o),
(136.804,378.735,cs),
(114.288,347.456,o),
(162.25,311.387,o),
(185.196,343.265,cs),
(241.426,421.38,o),
(310.347,488.291,o),
(366.101,565.48,cs),
(436.365,662.759,o),
(488.758,766.794,o),
(433.418,811.979,cs),
(314.843,908.795,o),
(183.97,639.395,o),
(122.068,387.827,cs),
(103.662,313.023,o),
(80.7,202.501,o),
(98.941,122.707,cs),
(115.465,50.425,o),
(182.236,-5,o),
(260,-5,cs),
(319.462,-5,o),
(376.534,23.725,o),
(419.709,71.25,cs),
(475.398,132.551,o),
(519,218.643,o),
(519,308,cs),
(519,411.066,o),
(480.172,480,o),
(400,480,cs),
(324.029,480,o),
(284,420.689,o),
(284,377,cs),
(284,287.356,o),
(372.496,251.445,o),
(452.894,242.242,cs),
(553.443,230.731,o),
(688.624,274.144,o),
(777.307,386.106,cs)
);
}
);
width = 649;
},
{
associatedMasterId = m01;
background = {
anchors = (
{
name = bottom;
pos = (322,0);
},
{
name = center;
pos = (342,277);
},
{
name = ogonek;
pos = (588,10);
},
{
name = top;
pos = (362,554);
},
{
name = topright;
pos = (414,540);
}
);
shapes = (
{
pos = (19,0);
ref = o;
}
);
};
layerId = "0041BCFC-8C28-425F-88BC-FDEDACCE156D";
name = Loop;
shapes = (
{
closed = 1;
nodes = (
(826.18,452.496,o),
(748.637,505.947,o),
(715.724,451.224,cs),
(646.355,335.888,o),
(510.859,315.543,o),
(447.987,323.617,cs),
(394.81,330.447,o),
(383,349.331,o),
(383,371,cs),
(383,383.876,o),
(388.261,398,o),
(406,398,cs),
(423.347,398,o),
(460.621,360.108,o),
(431.612,252.202,cs),
(399.155,131.473,o),
(316.142,69,o),
(266,69,cs),
(158.708,69,o),
(139.141,201.249,o),
(171.214,376.352,cs),
(228.453,688.835,o),
(298.267,753.735,o),
(303.518,752.772,cs),
(305.196,752.464,o),
(343.43,765.488,o),
(242.455,604.25,cs),
(194.01,526.89,o),
(132.073,457.949,o),
(83.375,380.566,cs),
(50.247,327.925,o),
(131.432,276.688,o),
(164.625,329.434,cs),
(213.26,406.718,o),
(248.998,492.23,o),
(297.545,569.75,cs),
(365.556,678.353,o),
(454.534,820.632,o),
(320.482,845.228,cs),
(187.441,869.639,o),
(124.737,655.435,o),
(76.786,393.648,cs),
(49.491,244.635,o),
(35.292,-25,o),
(266,-25,cs),
(397.858,-25,o),
(483.803,84.27,o),
(522.388,227.798,cs),
(556.226,353.664,o),
(532.653,492,o),
(406,492,cs),
(341.739,492,o),
(287,442.124,o),
(287,371,cs),
(287,286.669,o),
(363.213,239.732,o),
(436.013,230.383,cs),
(527.169,218.676,o),
(699.645,242.112,o),
(796.276,402.776,cs)
);
}
);
width = 601;
}
);
note = b;
userData = {
KernOnName = b;
};
},
{
color = 3;
glyphname = c.case;
kernLeft = KO_c;
kernRight = KO_c.ss01;
lastChange = "2025-09-24 09:57:13 +0000";
layers = (
{
anchors = (
{
name = bottom;
pos = (434,0);
},
{
name = top;
pos = (339,610);
}
);
background = {
shapes = (
{
closed = 0;
nodes = (
(386,371,l,{
"Letterink-NibData" = {
AngleInDegrees = "28";
MainAxisWidth = "59";
MinorAxisWidth = "59";
ValidForParentMainAxisWidth = "15";
ValidForParentMinorAxisWidth = "15";
};
"Letterink-NibStyleId" = "2";
}),
(410,448,o),
(348,502,o),
(263,490,cs,{
"Letterink-NibData" = {
AngleInDegrees = "28";
MainAxisWidth = "55";
MinorAxisWidth = "55";
ValidForParentMainAxisWidth = "15";
ValidForParentMinorAxisWidth = "15";
};
"Letterink-NibStyleId" = "1";
}),
(154,475,o),
(65,360,o),
(65,217,cs,{
"Letterink-NibData" = {
AngleInDegrees = "28";
MainAxisWidth = "59";
MinorAxisWidth = "59";
ValidForParentMainAxisWidth = "15";
ValidForParentMinorAxisWidth = "15";
};
"Letterink-NibStyleId" = "2";
}),
(65,103,o),
(135,20,o),
(242,20,cs,{
"Letterink-NibData" = {
AngleInDegrees = "118";
MainAxisWidth = "55";
MinorAxisWidth = "55";
ValidForParentMainAxisWidth = "15";
ValidForParentMinorAxisWidth = "15";
};
"Letterink-NibStyleId" = "1";
}),
(314,20,o),
(382,63,o),
(444,128,cs,{
"Letterink-NibData" = {
AngleInDegrees = "67.38779";
MainAxisWidth = "55";
MinorAxisWidth = "55";
ValidForParentMainAxisWidth = "15";
ValidForParentMinorAxisWidth = "15";
};
"Letterink-NibStyleId" = "1";
}),
(511,198,o),
(575,294,o),
(643,408,c,{
"Letterink-NibData" = {
AngleInDegrees = "62.69515";
MainAxisWidth = "55";
MinorAxisWidth = "55";
ValidForParentMainAxisWidth = "15";
ValidForParentMinorAxisWidth = "15";
};
"Letterink-NibStyleId" = "1";
})
);
}
);
};
layerId = m01;
shapes = (
{
closed = 1;
nodes = (
(400,-16,o),
(518,34,o),
(673,131,cs),
(724,163,o),
(676,244,o),
(623,211,cs),
(475,118,o),
(368,78,o),
(293,78,cs),
(185,78,o),
(133,152,o),
(133,251,cs),
(133,371,o),
(218,501,o),
(338,501,cs),
(390,501,o),
(427,465,o),
(422,435,cs),
(411,375,o),
(503,358,o),
(514,419,cs),
(533,523,o),
(454,595,o),
(338,595,cs),
(188,595,o),
(37,449,o),
(37,251,cs),
(37,88,o),
(143,-16,o),
(293,-16,cs)
);
}
);
userData = {
com.hugojourdan.ColorFlow = {
"0" = 0;
"1" = 0;
"10" = 0;
"11" = 0;
"2" = 0;
"3" = 1;
"4" = 0;
"5" = 0;
"6" = 0;
"7" = 0;
"8" = 0;
"9" = 0;
};
};
width = 557;
}
);
note = c;
userData = {
KernOnName = c;
};
},
{
color = 3;
glyphname = d.case;
kernLeft = KO_d;
kernRight = KO_d;
lastChange = "2025-09-24 09:57:13 +0000";
layers = (
{
anchors = (
{
name = bottom;
pos = (367,0);
},
{
name = center;
pos = (550,760);
},
{
name = top;
pos = (557,892);
},
{
name = topright;
pos = (713,950);
}
);
background = {
shapes = (
{
closed = 0;
nodes = (
(986,488,l,{
"Letterink-NibData" = {
AngleInDegrees = "28";
MainAxisWidth = "59";
MinorAxisWidth = "59";
ValidForParentMainAxisWidth = "15";
ValidForParentMinorAxisWidth = "15";
};
"Letterink-NibStyleId" = "1";
}),
(936,389,o),
(829,207,o),
(735,98,cs,{
"Letterink-NibData" = {
AngleInDegrees = "28";
MainAxisWidth = "59";
MinorAxisWidth = "59";
ValidForParentMainAxisWidth = "15";
ValidForParentMinorAxisWidth = "15";
};
"Letterink-NibStyleId" = "1";
}),
(676,27,o),
(629,-3,o),
(580,-3,cs,{
"Letterink-NibData" = {
AngleInDegrees = "118";
MainAxisWidth = "55";
MinorAxisWidth = "55";
ValidForParentMainAxisWidth = "15";
ValidForParentMinorAxisWidth = "15";
};
"Letterink-NibStyleId" = "1";
}),
(510,-3,o),
(489,59,o),
(519,166,cs,{
"Letterink-NibData" = {
AngleInDegrees = "221.2405090332031";
MainAxisWidth = "59";
MinorAxisWidth = "59";
ValidForParentMainAxisWidth = "15";
ValidForParentMinorAxisWidth = "15";
};
"Letterink-NibStyleId" = "2";
}),
(724,888,l,{
"Letterink-NibData" = {
AngleInDegrees = "222.211181640625";
MainAxisWidth = "59";
MinorAxisWidth = "59";
ValidForParentMainAxisWidth = "15";
ValidForParentMinorAxisWidth = "15";
};
"Letterink-NibStyleId" = "2";
}),
(665,674,o),
(548,311,o),
(415,137,cs,{
"Letterink-NibData" = {
AngleInDegrees = "66.92754364013672";
MainAxisWidth = "55";
MinorAxisWidth = "55";
ValidForParentMainAxisWidth = "15";
ValidForParentMinorAxisWidth = "15";
};
"Letterink-NibStyleId" = "1";
}),
(358,58,o),
(292,16,o),
(220,16,cs,{
"Letterink-NibData" = {
AngleInDegrees = "118";
MainAxisWidth = "55";
MinorAxisWidth = "55";
ValidForParentMainAxisWidth = "15";
ValidForParentMinorAxisWidth = "15";
};
"Letterink-NibStyleId" = "1";
}),
(134,16,o),
(79,83,o),
(79,188,cs,{
"Letterink-NibData" = {
AngleInDegrees = "28";
MainAxisWidth = "63";
MinorAxisWidth = "63";
ValidForParentMainAxisWidth = "15";
ValidForParentMinorAxisWidth = "15";
};
"Letterink-NibStyleId" = "2";
}),
(79,353,o),
(242,545,o),
(419,545,cs,{
"Letterink-NibData" = {
AngleInDegrees = "28";
MainAxisWidth = "59";
MinorAxisWidth = "59";
ValidForParentMainAxisWidth = "15";
ValidForParentMinorAxisWidth = "15";
};
"Letterink-NibStyleId" = "1";
}),
(446,545,o),
(472,539,o),
(489,530,c,{
"Letterink-NibData" = {
AngleInDegrees = "28";
MainAxisWidth = "59";
MinorAxisWidth = "59";
ValidForParentMainAxisWidth = "15";
ValidForParentMinorAxisWidth = "15";
};
"Letterink-NibStyleId" = "1";
})
);
}
);
};
layerId = m01;
shapes = (
{
closed = 1;
nodes = (
(630,-20,o),
(739,50,o),
(839,127,cs),
(887,164,o),
(830,239,o),
(781,201,cs),
(691,132,o),
(580,74,o),
(535,74,cs),
(530,74,o),
(496,70,o),
(523,170,cs),
(587,406,o),
(648,641,o),
(711,875,cs),
(727,933,o),
(637,958,o),
(621,899,cs),
(566,697,o),
(459,334,o),
(346,184,cs),
(295,118,o),
(249,92,o),
(204,92,cs),
(138,92,o),
(121,146,o),
(121,199,cs),
(121,330,o),
(249,484,o),
(384,484,cs),
(404,484,o),
(421,479,o),
(427,476,cs),
(483,450,o),
(522,536,o),
(467,562,cs),
(445,572,o),
(416,578,o),
(384,578,cs),
(211,578,o),
(25,396,o),
(25,199,cs),
(25,66,o),
(108,-2,o),
(204,-2,cs),
(288,-2,o),
(360,49,o),
(418,124,c),
(412,48,o),
(436,-20,o),
(535,-20,cs)
);
}
);
userData = {
com.hugojourdan.ColorFlow = {
"0" = 0;
"1" = 0;
"10" = 0;
"11" = 0;
"2" = 0;
"3" = 1;
"4" = 0;
"5" = 0;
"6" = 0;
"7" = 0;
"8" = 0;
"9" = 0;
};
};
width = 719;
},
{
associatedMasterId = m01;
background = {
shapes = (
{
closed = 0;
nodes = (
(383,460,l,{
"Letterink-NibData" = {
AngleInDegrees = "331.6900634765625";
MainAxisWidth = "55";
MinorAxisWidth = "55";
ValidForParentMainAxisWidth = "15";
ValidForParentMinorAxisWidth = "15";
};
"Letterink-NibStyleId" = "1";
}),
(365,472,o),
(334,479,o),
(297,479,cs,{
"Letterink-NibData" = {
AngleInDegrees = "298";
MainAxisWidth = "55";
MinorAxisWidth = "55";
ValidForParentMainAxisWidth = "15";
ValidForParentMinorAxisWidth = "15";
};
"Letterink-NibStyleId" = "1";
}),
(178,479,o),
(77,364,o),
(77,219,cs,{
"Letterink-NibData" = {
AngleInDegrees = "208";
MainAxisWidth = "59";
MinorAxisWidth = "59";
ValidForParentMainAxisWidth = "15";
ValidForParentMinorAxisWidth = "15";
};
"Letterink-NibStyleId" = "2";
}),
(77,123,o),
(121,50,o),
(196,50,cs,{
"Letterink-NibData" = {
AngleInDegrees = "118";
MainAxisWidth = "55";
MinorAxisWidth = "55";
ValidForParentMainAxisWidth = "15";
ValidForParentMinorAxisWidth = "15";
};
"Letterink-NibStyleId" = "1";
}),
(244,50,o),
(286,77,o),
(334,137,cs,{
"Letterink-NibData" = {
AngleInDegrees = "66.70318603515625";
MainAxisWidth = "55";
MinorAxisWidth = "55";
ValidForParentMainAxisWidth = "15";
ValidForParentMinorAxisWidth = "15";
};
"Letterink-NibStyleId" = "1";
}),
(463,298,o),
(589,658,o),
(627,762,c,{
"Letterink-NibData" = {
AngleInDegrees = "227.2603149414062";
MainAxisWidth = "59";
MinorAxisWidth = "59";
ValidForParentMainAxisWidth = "15";
ValidForParentMinorAxisWidth = "15";
};
"Letterink-NibStyleId" = "2";
}),
(417,161,ls,{
"Letterink-NibData" = {
AngleInDegrees = "227.4059753417969";
MainAxisWidth = "59";
MinorAxisWidth = "59";
ValidForParentMainAxisWidth = "15";
ValidForParentMinorAxisWidth = "15";
};
"Letterink-NibStyleId" = "2";
}),
(386,73,o),
(401,15,o),
(467,15,cs,{
"Letterink-NibData" = {
AngleInDegrees = "118";
MainAxisWidth = "55";
MinorAxisWidth = "55";
ValidForParentMainAxisWidth = "15";
ValidForParentMinorAxisWidth = "15";
};
"Letterink-NibStyleId" = "1";
}),
(502,15,o),
(540,32,o),
(580,75,cs,{
"Letterink-NibData" = {
AngleInDegrees = "71.05191802978516";
MainAxisWidth = "55";
MinorAxisWidth = "55";
ValidForParentMainAxisWidth = "15";
ValidForParentMinorAxisWidth = "15";
};
"Letterink-NibStyleId" = "1";
}),
(651,151,o),
(764,342,o),
(805,402,c,{
"Letterink-NibData" = {
AngleInDegrees = "62.34609603881836";
MainAxisWidth = "50";
MinorAxisWidth = "50";
ValidForParentMainAxisWidth = "15";
ValidForParentMinorAxisWidth = "15";
};
"Letterink-NibStyleId" = "5";
})
);
}
);
};
hints = (
{
horizontal = 1;
place = (798,-20);
target = down;
type = TopGhost;
},
{
horizontal = 1;
place = (445,72);
type = Stem;
},
{
horizontal = 1;
place = (-29,21);
target = up;
type = BottomGhost;
},
{
place = (453,74);
type = Stem;
},
{
place = (56,78);
type = Stem;
},
{
horizontal = 1;
place = (533,-20);
target = down;
type = TopGhost;
},
{
horizontal = 1;
place = (429,71);
type = Stem;
},
{
horizontal = 1;
place = (15,71);
type = Stem;
},
{
place = (371,65);
type = Stem;
},
{
place = (15,79);
type = Stem;
},
{
horizontal = 1;
place = (533,-20);
target = down;
type = TopGhost;
},
{
horizontal = 1;
place = (429,71);
type = Stem;
},
{
horizontal = 1;
place = (1,71);
type = Stem;
},
{
place = (371,65);
type = Stem;
},
{
place = (15,79);
type = Stem;
}
);
layerId = "E31F6B47-31A4-4391-A2C1-9B16AA0A30BE";
name = OPT1;
shapes = (
{
closed = 1;
nodes = (
(504.586,362.623,o),
(548.498,422.186,o),
(510.046,450.715,cs),
(470.895,479.762,o),
(424.149,504,o),
(366,504,cs),
(183.67,504,o),
(29,350.752,o),
(29,177,cs),
(29,79.09,o),
(105.594,11,o),
(185,11,cs),
(253.726,11,o),
(312.095,52.126,o),
(359.973,115.965,cs),
(452.202,238.936,o),
(604.413,580.096,o),
(664.046,754.136,cs),
(679.629,799.614,o),
(609.483,823.186,o),
(593.954,777.864,cs),
(523.121,571.138,o),
(431.031,368.064,o),
(373.2,150.348,cs),
(348.163,56.089,o),
(365.361,-35,o),
(464,-35,cs),
(527.834,-35,o),
(578.097,7.716,o),
(643.057,85.798,cs),
(730.763,191.222,o),
(801.941,317.226,o),
(843.736,378.018,cs),
(869.316,415.226,o),
(812.12,455.59,o),
(786.264,417.982,cs),
(740.059,350.774,o),
(672.871,231.083,o),
(588.943,130.202,cs),
(527.634,56.508,o),
(488.166,35,o),
(464,35,cs),
(456.639,35,o),
(421.447,43.734,o),
(444.8,131.652,cs),
(500.018,339.533,o),
(591.702,543,o),
(664.046,754.136,cs),
(679.629,799.614,o),
(609.483,823.186,o),
(593.954,777.864,cs),
(536.738,610.88,o),
(385.798,267.064,o),
(304.027,158.035,cs),
(261.905,101.874,o),
(224.274,81,o),
(185,81,cs),
(140.406,81,o),
(125,122.91,o),
(125,177,cs),
(125,301.248,o),
(240.33,410,o),
(366,410,cs),
(401.851,410,o),
(443.105,408.238,o),
(465.954,391.285,cs)
);
}
);
width = 680;
}
);
note = d;
userData = {
KernOnName = d;
};
},
{
color = 3;
glyphname = dcroat.case;
kernLeft = KO_d;
kernRight = KO_d;
lastChange = "2025-09-24 09:57:13 +0000";
layers = (
{
background = {
shapes = (
{
closed = 1;
nodes = (
(351,784,o),
(347,707,o),
(405,706,cs,{
"Letterink-NibData" = {
AngleInDegrees = "360";
};
}),
(591,701,o),
(714,695,o),
(899,692,cs,{
"Letterink-NibData" = {
AngleInDegrees = "360";
};
}),
(955,691,o),
(960,768,o),
(901,771,cs,{
"Letterink-NibData" = {
AngleInDegrees = "0";
};
}),
(716,774,o),
(593,779,o),
(407,783,cs,{
"Letterink-NibData" = {
AngleInDegrees = "360";
};
})
);
}
);
};
layerId = m01;
shapes = (
{
closed = 1;
nodes = (
(800,621,o),
(804,715,o),
(742,718,cs),
(319,736,ls),
(257,739,o),
(253,645,o),
(315,642,cs),
(738,624,l),
(738,624,l)
);
},
{
ref = d.case;
}
);
userData = {
com.hugojourdan.ColorFlow = {
"0" = 0;
"1" = 0;
"10" = 0;
"11" = 0;
"2" = 0;
"3" = 1;
"4" = 0;
"5" = 0;
"6" = 0;
"7" = 0;
"8" = 0;
"9" = 0;
};
};
width = 719;
}
);
metricLeft = d;
note = dcroat;
},
{
color = 3;
glyphname = e.case;
kernLeft = KO_e;
kernRight = KO_e.case;
lastChange = "2025-09-24 09:57:13 +0000";
layers = (
{
anchors = (
{
name = bottom;
pos = (293,9);
},
{
name = ogonek;
pos = (520,20);
},
{
name = top;
pos = (336,614);
}
);
background = {
shapes = (
{
closed = 0;
nodes = (
(85,200,ls,{
"Letterink-NibData" = {
AngleInDegrees = "115.80651";
MainAxisWidth = "50";
MinorAxisWidth = "50";
ValidForParentMainAxisWidth = "15";
ValidForParentMinorAxisWidth = "15";
};
"Letterink-NibStyleId" = "3";
}),
(137,200,o),
(219,223,o),
(272,252,cs,{
"Letterink-NibData" = {
AngleInDegrees = "28";
MainAxisWidth = "55";
MinorAxisWidth = "55";
ValidForParentMainAxisWidth = "15";
ValidForParentMinorAxisWidth = "15";
};
"Letterink-NibStyleId" = "1";
}),
(330,284,o),
(364,332,o),
(364,384,cs,{
"Letterink-NibData" = {
AngleInDegrees = "11.75646";
MainAxisWidth = "55";
MinorAxisWidth = "48.13065";
ValidForParentMainAxisWidth = "15";
ValidForParentMinorAxisWidth = "15";
};
"Letterink-NibStyleId" = "1";
}),
(364,442,o),
(323,480,o),
(262,480,cs,{
"Letterink-NibData" = {
AngleInDegrees = "298";
MainAxisWidth = "55";
MinorAxisWidth = "55";
ValidForParentMainAxisWidth = "15";
ValidForParentMinorAxisWidth = "15";
};
"Letterink-NibStyleId" = "1";
}),
(158,480,o),
(72,371,o),
(72,233,cs,{
"Letterink-NibData" = {
AngleInDegrees = "208";
MainAxisWidth = "59";
MinorAxisWidth = "59";
ValidForParentMainAxisWidth = "15";
ValidForParentMinorAxisWidth = "15";
};
"Letterink-NibStyleId" = "2";
}),
(72,113,o),
(138,32,o),
(236,32,cs,{
"Letterink-NibData" = {
AngleInDegrees = "118";
MainAxisWidth = "55";
MinorAxisWidth = "55";
ValidForParentMainAxisWidth = "15";
ValidForParentMinorAxisWidth = "15";
};
"Letterink-NibStyleId" = "1";
}),
(300,32,o),
(366,66,o),
(425,124,cs,{
"Letterink-NibData" = {
AngleInDegrees = "72.51853";
MainAxisWidth = "55";
MinorAxisWidth = "55";
ValidForParentMainAxisWidth = "15";
ValidForParentMinorAxisWidth = "15";
};
"Letterink-NibStyleId" = "1";
}),
(482,180,o),
(561,289,o),
(641,424,c,{
"Letterink-NibData" = {
AngleInDegrees = "64.56310000000001";
MainAxisWidth = "55";
MinorAxisWidth = "55";
ValidForParentMainAxisWidth = "15";
ValidForParentMinorAxisWidth = "15";
};
"Letterink-NibStyleId" = "1";
})
);
}
);
};
layerId = m01;
shapes = (
{
closed = 1;
nodes = (
(356,-19,o),
(454,18,o),
(617,125,cs),
(668,158,o),
(617,237,o),
(565,203,cs),
(408,100,o),
(328,75,o),
(267,77,cs),
(212,78,o),
(172,100,o),
(151,144,c),
(218,183,o),
(276,221,o),
(334,267,cs),
(417,335,o),
(461,385,o),
(463,455,cs),
(465,530,o),
(412,571,o),
(338,575,cs),
(181,584,o),
(46,421,o),
(39,242,cs),
(33,94,o),
(120,-13,o),
(265,-17,cs)
);
},
{
closed = 1;
nodes = (
(143,384,o),
(243,486,o),
(332,481,cs),
(370,479,o),
(369,465,o),
(369,457,cs),
(369,445,o),
(351,403,o),
(274,341,cs),
(232,306,o),
(186,275,o),
(135,244,c)
);
}
);
userData = {
com.hugojourdan.ColorFlow = {
"0" = 0;
"1" = 0;
"10" = 0;
"11" = 0;
"2" = 0;
"3" = 1;
"4" = 0;
"5" = 0;
"6" = 0;
"7" = 0;
"8" = 0;
"9" = 0;
};
};
width = 503;
}
);
note = e;
userData = {
KernOnName = e;
};
},
